<?xml version="1.0" encoding="UTF-8" standalone="no"?>
<svg
   xmlns:dc="http://purl.org/dc/elements/1.1/"
   xmlns:cc="http://creativecommons.org/ns#"
   xmlns:rdf="http://www.w3.org/1999/02/22-rdf-syntax-ns#"
   xmlns:svg="http://www.w3.org/2000/svg"
   xmlns="http://www.w3.org/2000/svg"
   xmlns:sodipodi="http://sodipodi.sourceforge.net/DTD/sodipodi-0.dtd"
   xmlns:inkscape="http://www.inkscape.org/namespaces/inkscape"
   version="1.1"
   id="svg2"
   xml:space="preserve"
   width="668.30664"
   height="668.30664"
   viewBox="0 0 668.30664 668.30664"
   sodipodi:docname="CopyWriting.eps"><metadata
     id="metadata8"><rdf:RDF><cc:Work
         rdf:about=""><dc:format>image/svg+xml</dc:format><dc:type
           rdf:resource="http://purl.org/dc/dcmitype/StillImage" /></cc:Work></rdf:RDF></metadata><defs
     id="defs6"><clipPath
       clipPathUnits="userSpaceOnUse"
       id="clipPath26"><path
         d="m 2088.47,1420.17 h 167.08 v -167.08 h -167.08 z"
         id="path24" /></clipPath><clipPath
       clipPathUnits="userSpaceOnUse"
       id="clipPath38"><path
         d="m 2756.79,1420.17 h 167.07 v -167.08 h -167.07 z"
         id="path36" /></clipPath><clipPath
       clipPathUnits="userSpaceOnUse"
       id="clipPath50"><path
         d="m 3090.94,1420.17 h 167.08 v -167.08 h -167.08 z"
         id="path48" /></clipPath><clipPath
       clipPathUnits="userSpaceOnUse"
       id="clipPath64"><path
         d="m 2088.47,1086.01 h 167.08 V 918.93 h -167.08 z"
         id="path62" /></clipPath><clipPath
       clipPathUnits="userSpaceOnUse"
       id="clipPath76"><path
         d="m 2756.79,1086.01 h 167.07 V 918.93 h -167.07 z"
         id="path74" /></clipPath><clipPath
       clipPathUnits="userSpaceOnUse"
       id="clipPath88"><path
         d="m 2422.63,1086.01 h 167.08 V 918.93 h -167.08 z"
         id="path86" /></clipPath><clipPath
       clipPathUnits="userSpaceOnUse"
       id="clipPath100"><path
         d="M 1921.39,751.859 H 3090.94 V 584.781 H 1921.39 Z"
         id="path98" /></clipPath><clipPath
       clipPathUnits="userSpaceOnUse"
       id="clipPath112"><path
         d="m 1336.62,3842.79 h 2339.1 v -167.08 h -2339.1 z"
         id="path110" /></clipPath><clipPath
       clipPathUnits="userSpaceOnUse"
       id="clipPath126"><path
         d="M 1670.78,4511.11 H 3090.94 V 4344.03 H 1670.78 Z"
         id="path124" /></clipPath><clipPath
       clipPathUnits="userSpaceOnUse"
       id="clipPath138"><path
         d="M 1336.62,4511.11 H 1503.7 V 4344.03 H 1336.62 Z"
         id="path136" /></clipPath></defs><sodipodi:namedview
     pagecolor="#ffffff"
     bordercolor="#666666"
     borderopacity="1"
     objecttolerance="10"
     gridtolerance="10"
     guidetolerance="10"
     inkscape:pageopacity="0"
     inkscape:pageshadow="2"
     inkscape:window-width="640"
     inkscape:window-height="480"
     id="namedview4" /><g
     id="g10"
     inkscape:groupmode="layer"
     inkscape:label="ink_ext_XXXXXX"
     transform="matrix(1.3333333,0,0,-1.3333333,0,668.30667)"><g
       id="g12"
       transform="scale(0.1)"><path
         d="m 4845.26,417.699 h -167.08 v 543.012 c 0,115.349 -93.49,208.839 -208.85,208.839 -15.18,0.05 -30.29,-1.63 -45.08,-5 -17.85,99.52 -104.37,172.02 -205.54,172.07 -15.17,0.06 -30.29,-1.62 -45.08,-4.99 -15,84.89 -80.77,151.79 -165.39,168.27 -84.62,16.48 -170.67,-20.84 -216.41,-93.93 -23.65,9.35 -48.9,14.14 -74.35,14.2 -115.35,0 -208.85,-93.5 -208.85,-208.85 V 998.281 c -13.75,2.669 -27.73,4.079 -41.76,4.189 -115.35,0 -208.85,-93.49 -208.85,-208.841 V 417.699 H 1837.86 v 375.93 c 0,115.351 -93.5,208.841 -208.85,208.841 -14.04,-0.11 -28.02,-1.52 -41.77,-4.189 v 213.039 c 0,115.35 -93.49,208.85 -208.85,208.85 -25.45,-0.06 -50.69,-4.85 -74.35,-14.2 -45.74,73.09 -131.78,110.41 -216.41,93.93 -84.62,-16.48 -150.376,-83.38 -165.388,-168.27 -14.789,3.37 -29.906,5.05 -45.082,4.99 -101.168,-0.05 -187.683,-72.55 -205.539,-172.07 -14.781,3.37 -29.906,5.05 -45.082,5 -115.351,0 -208.848,-93.49 -208.848,-208.839 V 417.699 H 167.078 V 1587.25 H 4845.26 Z M 2673.24,1921.4 V 1754.32 H 2339.09 V 1921.4 Z M 417.691,2088.48 c -46.113,0 -83.535,37.42 -83.535,83.53 v 83.55 H 4678.18 v -83.55 c 0,-46.11 -37.43,-83.53 -83.54,-83.53 z m -83.535,2339.09 c 0,46.11 37.422,83.54 83.535,83.54 H 835.387 V 2422.63 H 334.156 Z m 1694.974,-1479.51 108.62,-107.73 -60.15,-59.34 -339.98,226.41 339.98,226.43 60.15,-59.35 -108.62,-107.73 c -32.58,-32.86 -32.58,-85.83 0,-118.69 z m 285.76,-48.39 -108.61,107.73 108.61,107.74 c 32.58,32.86 32.58,85.82 0,118.69 l -25.07,24.19 H 3926.33 V 2756.79 H 2289.82 l 25.07,24.2 c 32.58,32.85 32.58,85.82 0,118.68 z M 1002.47,4845.26 H 3425.1 v -584.77 c 0,-46.11 37.42,-83.54 83.53,-83.54 h 501.24 V 3425.1 h -1921.4 c -16.43,0.06 -32.41,-4.9 -45.96,-14.2 l -501.23,-334.15 c -23.43,-15.28 -37.64,-41.33 -37.64,-69.35 0,-28.01 14.21,-54.06 37.64,-69.33 l 501.23,-334.16 c 13.55,-9.3 29.53,-14.25 45.96,-14.2 h 1921.4 v -167.08 h -3007.4 z m 2589.7,-142 167.08,-190.47 v -1.68 h 0.82 l 147.06,-167.08 h -314.96 z m 1002.47,-192.15 c 46.11,0 83.54,-37.43 83.54,-83.54 V 3416.72 c -27.52,5.39 -55.47,8.16 -83.54,8.38 h -417.69 v 832.88 c -0.06,20.29 -7.46,39.94 -20.88,55.15 L 3982.3,4511.11 Z M 4845.26,3007.4 c -0.43,-138.25 -112.37,-250.18 -250.62,-250.61 h -167.08 v 501.23 h 167.08 c 28.5,-0.22 56.72,-5.33 83.54,-15.01 v -5.05 h 14.2 c 92.62,-39.22 152.77,-129.99 152.88,-230.56 z m -751.85,-250.61 v 501.23 h 167.07 v -501.23 z m 584.77,-334.16 h -501.23 v 167.08 h 417.69 c 28.07,0.22 56.02,2.99 83.54,8.38 z M 4928.8,1754.32 H 2840.32 v 167.08 h 1754.32 c 138.25,0.43 250.19,112.36 250.62,250.61 v 503.74 c 105.07,77.84 167.08,200.85 167.08,331.65 0,130.81 -62.01,253.82 -167.08,331.65 v 1088.52 c -0.43,138.25 -112.37,250.18 -250.62,250.62 h -758.53 l -268.14,305.76 c -15.71,18.17 -38.62,28.56 -62.65,28.39 H 918.93 c -46.114,0 -83.543,-37.43 -83.543,-83.54 V 4678.19 H 417.691 C 279.438,4677.75 167.508,4565.82 167.078,4427.57 V 2172.01 c 0.43,-138.25 112.36,-250.18 250.613,-250.61 H 2172.01 V 1754.32 H 83.5391 c -46.1133,0 -83.53519375,-37.42 -83.53519375,-83.54 V 334.16 c 0,-46.109 37.42189375,-83.539 83.53519375,-83.539 H 456.148 L 584.773,58.4688 V 0 h 167.075 v 83.5508 c 0.058,16.418 -4.899,32.4102 -14.2,45.9492 L 584.773,359.238 v 601.473 c 0,55.689 83.54,55.689 83.54,0 V 751.859 h 167.074 v 375.921 c 0,55.69 83.543,55.69 83.543,0 V 835.391 h 167.08 v 459.469 c 0,55.69 83.53,55.69 83.53,0 V 835.391 h 167.08 v 375.929 c 0,55.69 83.54,55.69 83.54,0 V 584.781 h 167.08 v 208.848 c 0,55.691 83.54,55.691 83.54,0 V 295.711 L 1457.74,152.879 C 1434.41,137.492 1420.33,111.5 1420.16,83.5508 V 0 h 167.08 v 38.4609 l 213.04,142.8201 c 23.34,15.391 37.41,41.391 37.58,69.34 h 1420.16 c 0.17,-27.949 14.24,-53.949 37.58,-69.34 L 3508.63,38.4609 V 0 h 167.09 v 83.5508 c -0.17,27.9492 -14.25,53.9412 -37.58,69.3282 L 3425.1,295.711 v 497.918 c 0,55.691 83.53,55.691 83.53,0 V 584.781 h 167.09 v 626.539 c 0,55.69 83.53,55.69 83.53,0 V 835.391 h 167.08 v 459.469 c 0,55.69 83.54,55.69 83.54,0 V 835.391 h 167.08 v 292.389 c 0,55.69 83.53,55.69 83.53,0 V 751.859 h 167.08 v 208.852 c 0,55.689 83.55,55.689 83.55,0 V 359.238 L 4358.22,129.5 c -9.29,-13.539 -14.25,-29.5312 -14.19,-45.9492 V 0 h 167.08 v 58.4688 l 128.62,192.1522 h 289.07 c 46.11,0 83.54,37.43 83.54,83.539 v 1336.62 c 0,46.12 -37.43,83.54 -83.54,83.54 v 0"
         style="fill:#ffffff;fill-opacity:1;fill-rule:nonzero;stroke:none"
         id="path14" /><path
         d="m 1754.32,1420.17 h 167.07 v -167.08 h -167.07 v 167.08"
         style="fill:#ffffff;fill-opacity:1;fill-rule:nonzero;stroke:none"
         id="path16" /><path
         d="m 2088.47,1420.17 h 167.08 v -167.08 h -167.08 v 167.08"
         style="fill:#ffffff;fill-opacity:1;fill-rule:nonzero;stroke:none"
         id="path18" /><g
         id="g20"><g
           id="g22"
           clip-path="url(#clipPath26)"><path
             d="m 2088.47,1253.09 v 167.08 h 167.08 v -167.08 h -167.08"
             style="fill:#ffffff;fill-opacity:1;fill-rule:nonzero;stroke:none"
             id="path28" /></g></g><path
         d="m 2756.79,1420.17 h 167.07 v -167.08 h -167.07 v 167.08"
         style="fill:#ffffff;fill-opacity:1;fill-rule:nonzero;stroke:none"
         id="path30" /><g
         id="g32"><g
           id="g34"
           clip-path="url(#clipPath38)"><path
             d="m 2756.79,1253.09 v 167.08 h 167.07 v -167.08 h -167.07"
             style="fill:#ffffff;fill-opacity:1;fill-rule:nonzero;stroke:none"
             id="path40" /></g></g><path
         d="m 3090.94,1420.17 h 167.08 v -167.08 h -167.08 v 167.08"
         style="fill:#ffffff;fill-opacity:1;fill-rule:nonzero;stroke:none"
         id="path42" /><g
         id="g44"><g
           id="g46"
           clip-path="url(#clipPath50)"><path
             d="m 3090.94,1253.09 v 167.08 h 167.08 v -167.08 h -167.08"
             style="fill:#ffffff;fill-opacity:1;fill-rule:nonzero;stroke:none"
             id="path52" /></g></g><path
         d="m 2422.63,1420.17 h 167.08 v -167.08 h -167.08 v 167.08"
         style="fill:#ffffff;fill-opacity:1;fill-rule:nonzero;stroke:none"
         id="path54" /><path
         d="m 2088.47,1086.01 h 167.08 V 918.93 h -167.08 v 167.08"
         style="fill:#ffffff;fill-opacity:1;fill-rule:nonzero;stroke:none"
         id="path56" /><g
         id="g58"><g
           id="g60"
           clip-path="url(#clipPath64)"><path
             d="m 2088.47,918.93 v 167.08 h 167.08 V 918.93 h -167.08"
             style="fill:#ffffff;fill-opacity:1;fill-rule:nonzero;stroke:none"
             id="path66" /></g></g><path
         d="m 2756.79,1086.01 h 167.07 V 918.93 h -167.07 v 167.08"
         style="fill:#ffffff;fill-opacity:1;fill-rule:nonzero;stroke:none"
         id="path68" /><g
         id="g70"><g
           id="g72"
           clip-path="url(#clipPath76)"><path
             d="m 2756.79,918.93 v 167.08 h 167.07 V 918.93 h -167.07"
             style="fill:#ffffff;fill-opacity:1;fill-rule:nonzero;stroke:none"
             id="path78" /></g></g><path
         d="m 2422.63,1086.01 h 167.08 V 918.93 h -167.08 v 167.08"
         style="fill:#ffffff;fill-opacity:1;fill-rule:nonzero;stroke:none"
         id="path80" /><g
         id="g82"><g
           id="g84"
           clip-path="url(#clipPath88)"><path
             d="m 2422.63,918.93 v 167.08 h 167.08 V 918.93 h -167.08"
             style="fill:#ffffff;fill-opacity:1;fill-rule:nonzero;stroke:none"
             id="path90" /></g></g><path
         d="M 1921.39,751.859 H 3090.94 V 584.781 H 1921.39 v 167.078"
         style="fill:#ffffff;fill-opacity:1;fill-rule:nonzero;stroke:none"
         id="path92" /><g
         id="g94"><g
           id="g96"
           clip-path="url(#clipPath100)"><path
             d="M 1921.39,584.781 V 751.859 H 3090.94 V 584.781 H 1921.39"
             style="fill:#ffffff;fill-opacity:1;fill-rule:nonzero;stroke:none"
             id="path102" /></g></g><path
         d="m 1336.62,3842.79 h 2339.1 v -167.08 h -2339.1 v 167.08"
         style="fill:#ffffff;fill-opacity:1;fill-rule:nonzero;stroke:none"
         id="path104" /><g
         id="g106"><g
           id="g108"
           clip-path="url(#clipPath112)"><path
             d="m 1336.62,3675.71 v 167.08 h 2339.1 v -167.08 h -2339.1"
             style="fill:#ffffff;fill-opacity:1;fill-rule:nonzero;stroke:none"
             id="path114" /></g></g><path
         d="M 1336.62,4176.95 H 3090.94 V 4009.88 H 1336.62 v 167.07"
         style="fill:#ffffff;fill-opacity:1;fill-rule:nonzero;stroke:none"
         id="path116" /><path
         d="M 1670.78,4511.11 H 3090.94 V 4344.03 H 1670.78 v 167.08"
         style="fill:#ffffff;fill-opacity:1;fill-rule:nonzero;stroke:none"
         id="path118" /><g
         id="g120"><g
           id="g122"
           clip-path="url(#clipPath126)"><path
             d="m 1670.78,4344.03 v 167.08 H 3090.94 V 4344.03 H 1670.78"
             style="fill:#ffffff;fill-opacity:1;fill-rule:nonzero;stroke:none"
             id="path128" /></g></g><path
         d="m 1336.62,4511.11 h 167.08 v -167.08 h -167.08 v 167.08"
         style="fill:#ffffff;fill-opacity:1;fill-rule:nonzero;stroke:none"
         id="path130" /><g
         id="g132"><g
           id="g134"
           clip-path="url(#clipPath138)"><path
             d="m 1336.62,4344.03 v 167.08 h 167.08 v -167.08 h -167.08"
             style="fill:#ffffff;fill-opacity:1;fill-rule:nonzero;stroke:none"
             id="path140" /></g></g></g></g></svg>
