<?xml version="1.0" encoding="utf-8"?>
<!-- Generator: Adobe Illustrator 24.3.0, SVG Export Plug-In . SVG Version: 6.00 Build 0)  -->
<svg version="1.1" id="Layer_1" xmlns="http://www.w3.org/2000/svg" xmlns:xlink="http://www.w3.org/1999/xlink" x="0px" y="0px"
	 viewBox="0 0 500 500" style="enable-background:new 0 0 500 500;" xml:space="preserve">
<style type="text/css">
	.st0{clip-path:url(#SVGID_2_);}
	.st1{clip-path:url(#SVGID_6_);}
	.st2{clip-path:url(#SVGID_10_);}
	.st3{clip-path:url(#SVGID_18_);}
	.st4{clip-path:url(#SVGID_22_);}
	.st5{clip-path:url(#SVGID_26_);}
</style>
<g>
	<g>
		<defs>
			<path id="SVGID_1_" d="M474.17,108.86h-16.61v-8.3h8.3c13.76,0,24.91-11.15,24.91-24.91s-11.15-24.91-24.91-24.91h-8.3V9.23
				c0.03-2.64-1.25-5.12-3.41-6.64c-2.09-1.58-4.79-2.07-7.3-1.33L340.09,34.14h-56.88c-4.58,0-8.3,3.72-8.3,8.3v8.3H258.3
				c-4.58,0-8.3,3.72-8.3,8.3v33.21c0,4.58,3.72,8.3,8.3,8.3h16.61v8.3h-49.82V34.14c0-4.58-3.72-8.3-8.3-8.3H50.74
				c-4.58,0-8.3,3.72-8.3,8.3v74.72H25.83c-13.74,0.04-24.86,11.17-24.91,24.91v265.68c0.04,13.74,11.17,24.86,24.91,24.91h190.96
				v24.91h-49.82c-4.58,0-8.3,3.72-8.3,8.3v33.21c0,4.58,3.72,8.3,8.3,8.3h166.05c4.58,0,8.3-3.72,8.3-8.3v-33.21
				c0-4.58-3.72-8.3-8.3-8.3h-49.82v-24.91h190.96c13.74-0.04,24.86-11.17,24.91-24.91V133.77
				C499.03,120.03,487.91,108.9,474.17,108.86L474.17,108.86z M457.56,67.35h8.3c4.58,0,8.3,3.72,8.3,8.3s-3.72,8.3-8.3,8.3h-8.3
				V67.35z M349.63,48.58l91.33-28.14v110.42l-91.33-28.14V48.58z M291.51,50.74h41.51v49.82h-41.51V50.74z M315.18,117.16
				l-5.98,41.51h-9.38v-41.51H315.18z M266.61,83.95V67.35h8.3v16.61H266.61z M59.04,42.44h149.45v116.24H59.04V42.44z
				 M324.72,465.87v16.61H175.28v-16.61H324.72z M233.39,449.27v-24.91h33.21v24.91H233.39z M482.47,399.45c0,4.58-3.72,8.3-8.3,8.3
				H25.83c-4.58,0-8.3-3.72-8.3-8.3v-8.3h464.94V399.45z M482.47,374.54H17.53V133.77c0-4.58,3.72-8.3,8.3-8.3h16.61v41.51
				c0,4.58,3.72,8.3,8.3,8.3h166.05c4.58,0,8.3-3.72,8.3-8.3v-41.51h58.12v41.51c0,4.58,3.72,8.3,8.3,8.3h24.91
				c4.13,0,7.64-3.04,8.22-7.14l7.3-50.98h8.14l106.77,32.88c0.78,0.24,1.59,0.35,2.4,0.33c4.56-0.06,8.24-3.75,8.3-8.3v-16.61
				h16.61c4.58,0,8.3,3.72,8.3,8.3V374.54z M482.47,374.54"/>
		</defs>
		<use xlink:href="#SVGID_1_"  style="overflow:visible;fill:#FFFFFF;"/>
		<clipPath id="SVGID_2_">
			<use xlink:href="#SVGID_1_"  style="overflow:visible;"/>
		</clipPath>
		<g class="st0">
			<defs>
				<rect id="SVGID_3_" x="0.92" y="0.93" width="498.15" height="498.15"/>
			</defs>
			<use xlink:href="#SVGID_3_"  style="overflow:visible;fill:#FFFFFF;"/>
			<clipPath id="SVGID_4_">
				<use xlink:href="#SVGID_3_"  style="overflow:visible;"/>
			</clipPath>
		</g>
	</g>
	<g>
		<defs>
			<path id="SVGID_5_" d="M42.44,357.94H258.3c4.58,0,8.3-3.72,8.3-8.3V216.79c0-4.58-3.72-8.3-8.3-8.3H42.44
				c-4.58,0-8.3,3.72-8.3,8.3v132.84C34.13,354.22,37.85,357.94,42.44,357.94L42.44,357.94z M50.74,341.33V231.65l95.28,58.64
				c2.67,1.64,6.03,1.64,8.7,0L250,231.65v109.69H50.74z M71.77,225.1h157.2l-78.6,48.37L71.77,225.1z M71.77,225.1"/>
		</defs>
		<use xlink:href="#SVGID_5_"  style="overflow:visible;fill:#FFFFFF;"/>
		<clipPath id="SVGID_6_">
			<use xlink:href="#SVGID_5_"  style="overflow:visible;"/>
		</clipPath>
		<g class="st1">
			<defs>
				<rect id="SVGID_7_" x="34.13" y="208.49" width="232.47" height="149.45"/>
			</defs>
			<clipPath id="SVGID_8_">
				<use xlink:href="#SVGID_7_"  style="overflow:visible;"/>
			</clipPath>
		</g>
	</g>
	<g>
		<defs>
			<path id="SVGID_9_" d="M291.51,308.12h16.61v24.91c0,4.58,3.72,8.3,8.3,8.3h141.14c4.58,0,8.3-3.72,8.3-8.3V233.4
				c0-4.58-3.72-8.3-8.3-8.3h-8.3v-24.91c0-4.58-3.72-8.3-8.3-8.3H291.51c-4.58,0-8.3,3.72-8.3,8.3v99.63
				C283.21,304.4,286.93,308.12,291.51,308.12L291.51,308.12z M449.26,324.73H324.72V241.7h124.54V324.73z M299.82,208.49h132.84
				v16.61H316.42c-4.58,0-8.3,3.72-8.3,8.3v58.12h-8.3V208.49z M299.82,208.49"/>
		</defs>
		<use xlink:href="#SVGID_9_"  style="overflow:visible;fill:#FFFFFF;"/>
		<clipPath id="SVGID_10_">
			<use xlink:href="#SVGID_9_"  style="overflow:visible;"/>
		</clipPath>
		<g class="st2">
			<defs>
				<rect id="SVGID_11_" x="282.88" y="191.89" width="182.99" height="149.45"/>
			</defs>
			<clipPath id="SVGID_12_">
				<use xlink:href="#SVGID_11_"  style="overflow:visible;"/>
			</clipPath>
		</g>
	</g>
	<g>
		<defs>
			<rect id="SVGID_13_" x="341.33" y="258.31" width="16.61" height="16.61"/>
		</defs>
		<use xlink:href="#SVGID_13_"  style="overflow:visible;fill:#FFFFFF;"/>
		<clipPath id="SVGID_14_">
			<use xlink:href="#SVGID_13_"  style="overflow:visible;"/>
		</clipPath>
	</g>
	<g>
		<g>
			<defs>
				<rect id="SVGID_15_" x="374.54" y="258.31" width="58.12" height="16.61"/>
			</defs>
			<use xlink:href="#SVGID_15_"  style="overflow:visible;fill:#FFFFFF;"/>
			<clipPath id="SVGID_16_">
				<use xlink:href="#SVGID_15_"  style="overflow:visible;"/>
			</clipPath>
		</g>
	</g>
	<g>
		<defs>
			<rect id="SVGID_17_" x="341.33" y="291.52" width="33.21" height="16.61"/>
		</defs>
		<use xlink:href="#SVGID_17_"  style="overflow:visible;fill:#FFFFFF;"/>
		<clipPath id="SVGID_18_">
			<use xlink:href="#SVGID_17_"  style="overflow:visible;"/>
		</clipPath>
		<g class="st3">
			<defs>
				<rect id="SVGID_19_" x="341.33" y="291.52" width="33.21" height="16.61"/>
			</defs>
			<use xlink:href="#SVGID_19_"  style="overflow:visible;fill:#FFFFFF;"/>
			<clipPath id="SVGID_20_">
				<use xlink:href="#SVGID_19_"  style="overflow:visible;"/>
			</clipPath>
		</g>
	</g>
	<g>
		<defs>
			<rect id="SVGID_21_" x="391.14" y="291.52" width="41.51" height="16.61"/>
		</defs>
		<use xlink:href="#SVGID_21_"  style="overflow:visible;fill:#FFFFFF;"/>
		<clipPath id="SVGID_22_">
			<use xlink:href="#SVGID_21_"  style="overflow:visible;"/>
		</clipPath>
		<g class="st4">
			<defs>
				<rect id="SVGID_23_" x="389.76" y="291.52" width="41.51" height="16.61"/>
			</defs>
			<use xlink:href="#SVGID_23_"  style="overflow:visible;fill:#FFFFFF;"/>
			<clipPath id="SVGID_24_">
				<use xlink:href="#SVGID_23_"  style="overflow:visible;"/>
			</clipPath>
		</g>
	</g>
	<g>
		<defs>
			<path id="SVGID_25_" d="M112.79,132.53c2.45,1.51,5.5,1.65,8.08,0.37l49.82-24.91c2.82-1.41,4.59-4.28,4.59-7.43
				s-1.78-6.03-4.59-7.43l-49.82-24.91c-2.58-1.29-5.63-1.15-8.08,0.37c-2.45,1.51-3.94,4.19-3.94,7.06v49.82
				C108.86,128.34,110.34,131.02,112.79,132.53L112.79,132.53z M125.46,89.08l22.95,11.48l-22.95,11.48V89.08z M125.46,89.08"/>
		</defs>
		<use xlink:href="#SVGID_25_"  style="overflow:visible;fill:#FFFFFF;"/>
		<clipPath id="SVGID_26_">
			<use xlink:href="#SVGID_25_"  style="overflow:visible;"/>
		</clipPath>
		<g class="st5">
			<defs>
				<rect id="SVGID_27_" x="108.86" y="67.35" width="66.75" height="66.42"/>
			</defs>
			<use xlink:href="#SVGID_27_"  style="overflow:visible;fill:#FFFFFF;"/>
			<clipPath id="SVGID_28_">
				<use xlink:href="#SVGID_27_"  style="overflow:visible;"/>
			</clipPath>
		</g>
	</g>
</g>
</svg>
