<?xml version="1.0" encoding="UTF-8" standalone="no"?>
<svg
   xmlns:dc="http://purl.org/dc/elements/1.1/"
   xmlns:cc="http://creativecommons.org/ns#"
   xmlns:rdf="http://www.w3.org/1999/02/22-rdf-syntax-ns#"
   xmlns:svg="http://www.w3.org/2000/svg"
   xmlns="http://www.w3.org/2000/svg"
   xmlns:sodipodi="http://sodipodi.sourceforge.net/DTD/sodipodi-0.dtd"
   xmlns:inkscape="http://www.inkscape.org/namespaces/inkscape"
   version="1.1"
   id="svg2"
   xml:space="preserve"
   width="663.17334"
   height="663.17334"
   viewBox="0 0 663.17334 663.17334"
   sodipodi:docname="Graphic-Design.eps"><metadata
     id="metadata8"><rdf:RDF><cc:Work
         rdf:about=""><dc:format>image/svg+xml</dc:format><dc:type
           rdf:resource="http://purl.org/dc/dcmitype/StillImage" /></cc:Work></rdf:RDF></metadata><defs
     id="defs6"><clipPath
       clipPathUnits="userSpaceOnUse"
       id="clipPath22"><path
         d="M 4802.33,300.148 C 4802.27,229.129 4744.72,171.582 4673.7,171.52 H 300.145 c -71.02,0.062 -128.579,57.609 -128.633,128.628 V 428.781 H 1958.42 l 244.11,-81.34 c 8.76,-2.921 17.9,-4.41 27.13,-4.41 h 514.53 c 9.22,0 18.37,1.489 27.13,4.41 l 244.1,81.34 h 1786.91 z m 85.77,300.153 H 4545.07 V 3087.22 H 4373.55 V 600.301 h -1372.1 c -9.21,0 -18.35,-1.512 -27.11,-4.422 l -244.12,-81.34 h -486.6 l -244.1,81.34 c -8.77,2.91 -17.91,4.422 -27.13,4.422 H 600.293 V 3087.22 H 428.777 V 600.301 H 85.7578 C 38.418,600.301 0,561.879 0,514.539 V 300.148 C 0.171875,134.441 134.438,0.179688 300.145,0 H 4673.7 c 165.71,0.179688 299.97,134.441 300.15,300.148 v 214.391 c 0,47.34 -38.42,85.762 -85.75,85.762 z"
         id="path20" /></clipPath><clipPath
       clipPathUnits="userSpaceOnUse"
       id="clipPath34"><path
         d="M 771.805,2658.44 V 857.559 c 0,-47.329 38.418,-85.75 85.754,-85.75 H 4116.29 c 47.33,0 85.75,38.421 85.75,85.75 V 2658.44 H 4030.53 V 943.32 H 943.316 v 1715.12 z"
         id="path32" /></clipPath><clipPath
       clipPathUnits="userSpaceOnUse"
       id="clipPath46"><path
         d="M 1629.36,1286.34 H 3687.51 V 1114.83 H 1629.36 Z"
         id="path44" /></clipPath><clipPath
       clipPathUnits="userSpaceOnUse"
       id="clipPath60"><path
         d="M 428.777,4802.34 H 600.293 V 4630.83 H 428.777 Z m 1972.393,0 h 171.51 v -171.51 h -171.51 z m 1972.38,0 h 171.52 V 4630.83 H 4373.55 Z M 4030.53,3001.46 h -171.51 v 171.52 h 171.51 z m -2915.7,0 H 943.316 v 171.52 H 1114.83 Z M 343.023,4459.32 h 343.028 c 47.332,0 85.754,38.41 85.754,85.75 v 85.76 H 1778.38 C 1292.7,4379.71 975.977,3890.45 945.777,3344.49 h -88.218 c -47.336,0 -85.754,-38.42 -85.754,-85.76 v -343.02 c 0,-47.34 38.418,-85.76 85.754,-85.76 h 343.031 c 47.33,0 85.75,38.42 85.75,85.76 v 343.02 c 0,47.34 -38.42,85.76 -85.75,85.76 h -83.03 c 38.8,625.42 496.57,1145.03 1112.1,1262.33 v -61.75 c 0,-47.34 38.42,-85.75 85.75,-85.75 h 343.03 c 47.33,0 85.75,38.41 85.75,85.75 v 61.75 c 615.53,-117.3 1073.29,-636.91 1112.1,-1262.33 h -83.03 c -47.33,0 -85.75,-38.42 -85.75,-85.76 v -343.02 c 0,-47.34 38.42,-85.76 85.75,-85.76 h 343.03 c 47.33,0 85.75,38.42 85.75,85.76 v 343.02 c 0,47.34 -38.42,85.76 -85.75,85.76 h -88.21 c -30.21,545.96 -346.94,1035.22 -832.61,1286.34 h 1006.57 v -85.76 c 0,-47.34 38.42,-85.75 85.76,-85.75 h 343.02 c 47.34,0 85.76,38.41 85.76,85.75 v 343.02 c 0,47.34 -38.42,85.76 -85.76,85.76 H 4287.8 c -47.34,0 -85.76,-38.42 -85.76,-85.76 v -85.75 H 2744.19 v 85.75 c 0,47.34 -38.42,85.76 -85.75,85.76 h -343.03 c -47.33,0 -85.75,-38.42 -85.75,-85.76 v -85.75 H 771.805 v 85.75 c 0,47.34 -38.422,85.76 -85.754,85.76 H 343.023 c -47.335,0 -85.753,-38.42 -85.753,-85.76 v -343.02 c 0,-47.34 38.418,-85.75 85.753,-85.75 z"
         id="path58" /></clipPath><clipPath
       clipPathUnits="userSpaceOnUse"
       id="clipPath72"><path
         d="m 3191.45,2769.71 c -97.14,-140.14 -233.87,-248.11 -392.72,-310.08 -32.87,-12.85 -54.54,-44.55 -54.54,-79.9 v -64.32 h -171.51 v 351.79 c 120.14,24.74 224.05,99.49 285.62,205.57 l -148.5,85.87 c -45.95,-79.61 -130.91,-128.69 -222.88,-128.69 -91.95,0 -176.93,49.08 -222.88,128.69 l -148.5,-85.87 c 61.57,-106.08 165.48,-180.83 285.63,-205.57 v -351.79 h -171.51 v 64.32 c 0,35.35 -21.67,67.05 -54.54,79.9 -377.7,148.23 -599.91,540.77 -532.69,940.91 67.27,400.14 405.61,698.44 810.99,715.08 11.28,0.44 22.56,0.67 33.79,0.67 319.07,-0.17 611.72,-177.43 759.57,-460.21 147.9,-282.72 126.58,-624.25 -55.33,-886.37 z M 2658.44,1629.37 h -343.03 c -47.33,0.06 -85.7,38.42 -85.75,85.75 v 85.76 h 514.53 v -85.76 c -0.06,-47.33 -38.42,-85.69 -85.75,-85.75 z m -428.78,514.53 h 514.53 v -171.5 h -514.53 z m 970.9,1856.26 c -218.42,210.09 -518.29,313.27 -819.72,281.95 -301.43,-31.27 -573.7,-193.79 -744.33,-444.24 -170.57,-250.46 -222.15,-563.39 -140.86,-855.33 81.23,-291.94 287.03,-533.25 562.49,-659.54 v -607.88 c 0.17,-142.04 115.23,-257.09 257.27,-257.27 h 343.03 c 142.04,0.18 257.1,115.23 257.26,257.27 V 2323 c 309.47,141.93 528.77,427.67 585.77,763.28 57.02,335.64 -55.65,677.77 -300.91,913.88 z"
         id="path70" /></clipPath><clipPath
       clipPathUnits="userSpaceOnUse"
       id="clipPath84"><path
         d="m 3001.45,3258.73 h 171.52 c 0.06,66.33 -9.54,132.38 -28.41,195.97 l -164.37,-48.91 c 14.13,-47.74 21.32,-97.26 21.26,-147.06 z"
         id="path82" /></clipPath></defs><sodipodi:namedview
     pagecolor="#ffffff"
     bordercolor="#666666"
     borderopacity="1"
     objecttolerance="10"
     gridtolerance="10"
     guidetolerance="10"
     inkscape:pageopacity="0"
     inkscape:pageshadow="2"
     inkscape:window-width="640"
     inkscape:window-height="480"
     id="namedview4" /><g
     id="g10"
     inkscape:groupmode="layer"
     inkscape:label="ink_ext_XXXXXX"
     transform="matrix(1.3333333,0,0,-1.3333333,0,663.17333)"><g
       id="g12"
       transform="scale(0.1)"><path
         d="M 4802.33,300.148 C 4802.27,229.129 4744.72,171.582 4673.7,171.52 H 300.145 c -71.02,0.062 -128.579,57.609 -128.633,128.628 V 428.781 H 1958.42 l 244.11,-81.34 c 8.76,-2.921 17.9,-4.41 27.13,-4.41 h 514.53 c 9.22,0 18.37,1.489 27.13,4.41 l 244.1,81.34 h 1786.91 z m 85.77,300.153 H 4545.07 V 3087.22 H 4373.55 V 600.301 h -1372.1 c -9.21,0 -18.35,-1.512 -27.11,-4.422 l -244.12,-81.34 h -486.6 l -244.1,81.34 c -8.77,2.91 -17.91,4.422 -27.13,4.422 H 600.293 V 3087.22 H 428.777 V 600.301 H 85.7578 C 38.418,600.301 0,561.879 0,514.539 V 300.148 C 0.171875,134.441 134.438,0.179688 300.145,0 H 4673.7 c 165.71,0.179688 299.97,134.441 300.15,300.148 v 214.391 c 0,47.34 -38.42,85.762 -85.75,85.762 v 0"
         style="fill:#ffffff;fill-opacity:1;fill-rule:nonzero;stroke:none"
         id="path14" /><g
         id="g16"><g
           id="g18"
           clip-path="url(#clipPath22)"><path
             d="M 0,0 V 3087.22 H 4973.85 V 0 H 0"
             style="fill:#ffffff;fill-opacity:1;fill-rule:nonzero;stroke:none"
             id="path24" /></g></g><path
         d="M 771.805,2658.44 V 857.559 c 0,-47.329 38.418,-85.75 85.754,-85.75 H 4116.29 c 47.33,0 85.75,38.421 85.75,85.75 V 2658.44 H 4030.53 V 943.32 H 943.316 V 2658.44 H 771.805"
         style="fill:#ffffff;fill-opacity:1;fill-rule:nonzero;stroke:none"
         id="path26" /><g
         id="g28"><g
           id="g30"
           clip-path="url(#clipPath34)"><path
             d="M 771.805,771.809 V 2658.44 H 4202.04 V 771.809 H 771.805"
             style="fill:#ffffff;fill-opacity:1;fill-rule:nonzero;stroke:none"
             id="path36" /></g></g><path
         d="M 1629.36,1286.34 H 3687.51 V 1114.83 H 1629.36 v 171.51"
         style="fill:#ffffff;fill-opacity:1;fill-rule:nonzero;stroke:none"
         id="path38" /><g
         id="g40"><g
           id="g42"
           clip-path="url(#clipPath46)"><path
             d="m 1629.36,1114.83 v 171.51 H 3687.51 V 1114.83 H 1629.36"
             style="fill:#ffffff;fill-opacity:1;fill-rule:nonzero;stroke:none"
             id="path48" /></g></g><path
         d="m 1286.34,1286.34 h 171.51 v -171.51 h -171.51 v 171.51"
         style="fill:#ffffff;fill-opacity:1;fill-rule:nonzero;stroke:none"
         id="path50" /><path
         d="M 428.777,4802.34 H 600.293 V 4630.83 H 428.777 Z m 1972.393,0 h 171.51 v -171.51 h -171.51 z m 1972.38,0 h 171.52 V 4630.83 H 4373.55 Z M 4030.53,3001.46 h -171.51 v 171.52 h 171.51 z m -2915.7,0 H 943.316 v 171.52 H 1114.83 Z M 343.023,4459.32 h 343.028 c 47.332,0 85.754,38.41 85.754,85.75 v 85.76 H 1778.38 C 1292.7,4379.71 975.977,3890.45 945.777,3344.49 h -88.218 c -47.336,0 -85.754,-38.42 -85.754,-85.76 v -343.02 c 0,-47.34 38.418,-85.76 85.754,-85.76 h 343.031 c 47.33,0 85.75,38.42 85.75,85.76 v 343.02 c 0,47.34 -38.42,85.76 -85.75,85.76 h -83.03 c 38.8,625.42 496.57,1145.03 1112.1,1262.33 v -61.75 c 0,-47.34 38.42,-85.75 85.75,-85.75 h 343.03 c 47.33,0 85.75,38.41 85.75,85.75 v 61.75 c 615.53,-117.3 1073.29,-636.91 1112.1,-1262.33 h -83.03 c -47.33,0 -85.75,-38.42 -85.75,-85.76 v -343.02 c 0,-47.34 38.42,-85.76 85.75,-85.76 h 343.03 c 47.33,0 85.75,38.42 85.75,85.76 v 343.02 c 0,47.34 -38.42,85.76 -85.75,85.76 h -88.21 c -30.21,545.96 -346.94,1035.22 -832.61,1286.34 h 1006.57 v -85.76 c 0,-47.34 38.42,-85.75 85.76,-85.75 h 343.02 c 47.34,0 85.76,38.41 85.76,85.75 v 343.02 c 0,47.34 -38.42,85.76 -85.76,85.76 H 4287.8 c -47.34,0 -85.76,-38.42 -85.76,-85.76 v -85.75 H 2744.19 v 85.75 c 0,47.34 -38.42,85.76 -85.75,85.76 h -343.03 c -47.33,0 -85.75,-38.42 -85.75,-85.76 v -85.75 H 771.805 v 85.75 c 0,47.34 -38.422,85.76 -85.754,85.76 H 343.023 c -47.335,0 -85.753,-38.42 -85.753,-85.76 v -343.02 c 0,-47.34 38.418,-85.75 85.753,-85.75 v 0"
         style="fill:#ffffff;fill-opacity:1;fill-rule:nonzero;stroke:none"
         id="path52" /><g
         id="g54"><g
           id="g56"
           clip-path="url(#clipPath60)"><path
             d="m 257.27,2829.95 v 2143.9 H 4716.58 V 2829.95 H 257.27"
             style="fill:#ffffff;fill-opacity:1;fill-rule:nonzero;stroke:none"
             id="path62" /></g></g><path
         d="m 3191.45,2769.71 c -97.14,-140.14 -233.87,-248.11 -392.72,-310.08 -32.87,-12.85 -54.54,-44.55 -54.54,-79.9 v -64.32 h -171.51 v 351.79 c 120.14,24.74 224.05,99.49 285.62,205.57 l -148.5,85.87 c -45.95,-79.61 -130.91,-128.69 -222.88,-128.69 -91.95,0 -176.93,49.08 -222.88,128.69 l -148.5,-85.87 c 61.57,-106.08 165.48,-180.83 285.63,-205.57 v -351.79 h -171.51 v 64.32 c 0,35.35 -21.67,67.05 -54.54,79.9 -377.7,148.23 -599.91,540.77 -532.69,940.91 67.27,400.14 405.61,698.44 810.99,715.08 11.28,0.44 22.56,0.67 33.79,0.67 319.07,-0.17 611.72,-177.43 759.57,-460.21 147.9,-282.72 126.58,-624.25 -55.33,-886.37 z M 2658.44,1629.37 h -343.03 c -47.33,0.06 -85.7,38.42 -85.75,85.75 v 85.76 h 514.53 v -85.76 c -0.06,-47.33 -38.42,-85.69 -85.75,-85.75 z m -428.78,514.53 h 514.53 v -171.5 h -514.53 z m 970.9,1856.26 c -218.42,210.09 -518.29,313.27 -819.72,281.95 -301.43,-31.27 -573.7,-193.79 -744.33,-444.24 -170.57,-250.46 -222.15,-563.39 -140.86,-855.33 81.23,-291.94 287.03,-533.25 562.49,-659.54 v -607.88 c 0.17,-142.04 115.23,-257.09 257.27,-257.27 h 343.03 c 142.04,0.18 257.1,115.23 257.26,257.27 V 2323 c 309.47,141.93 528.77,427.67 585.77,763.28 57.02,335.64 -55.65,677.77 -300.91,913.88 v 0"
         style="fill:#ffffff;fill-opacity:1;fill-rule:nonzero;stroke:none"
         id="path64" /><g
         id="g66"><g
           id="g68"
           clip-path="url(#clipPath72)"><path
             d="M 1457.85,1457.85 V 4287.8 H 3516 V 1457.85 H 1457.85"
             style="fill:#ffffff;fill-opacity:1;fill-rule:nonzero;stroke:none"
             id="path74" /></g></g><path
         d="m 3001.45,3258.73 h 171.52 c 0.06,66.33 -9.54,132.38 -28.41,195.97 l -164.37,-48.91 c 14.13,-47.74 21.32,-97.26 21.26,-147.06 v 0"
         style="fill:#ffffff;fill-opacity:1;fill-rule:nonzero;stroke:none"
         id="path76" /><g
         id="g78"><g
           id="g80"
           clip-path="url(#clipPath84)"><path
             d="m 2977.45,3258.73 v 198.95 h 195.52 v -198.95 h -195.52"
             style="fill:#ffffff;fill-opacity:1;fill-rule:nonzero;stroke:none"
             id="path86" /></g></g><path
         d="m 2413.5,3944.78 c -140.24,0.28 -277.15,-42.65 -392.1,-122.99 l 98.16,-140.7 c 116.9,81.34 262.34,110.6 401.58,80.78 139.3,-29.81 260.01,-115.95 333.42,-238.05 l 146.89,88.54 c -123.38,206.97 -346.99,333.36 -587.95,332.42 v 0"
         style="fill:#ffffff;fill-opacity:1;fill-rule:nonzero;stroke:none"
         id="path88" /></g></g></svg>
