<?xml version="1.0" encoding="utf-8"?>
<!-- Generator: Adobe Illustrator 24.3.0, SVG Export Plug-In . SVG Version: 6.00 Build 0)  -->
<svg version="1.1" id="Layer_1" xmlns="http://www.w3.org/2000/svg" xmlns:xlink="http://www.w3.org/1999/xlink" x="0px" y="0px"
	 viewBox="0 0 1080 1080" style="enable-background:new 0 0 1080 1080;" xml:space="preserve">
<style type="text/css">
	.st0{fill:#07374F;}
	.st1{font-family:'ScriptMTBold';}
	.st2{font-size:587.1364px;}
	.st3{font-size:502.2981px;}
	.st4{fill:#136191;}
	.st5{fill:#333333;}
	.st6{font-family:'Roboto-Thin';}
	.st7{font-size:75.2992px;}
	.st8{letter-spacing:15;}
</style>
<g>
	<g>
		<g>
			<path class="st0" d="M555.74,724.73c12.24-0.62,24.49-0.95,36.73-1.17c6.12-0.14,12.24-0.17,18.37-0.25l18.37-0.08l18.37,0.08
				c6.12,0.08,12.24,0.11,18.37,0.25c12.24,0.22,24.49,0.55,36.73,1.17c-12.24,0.62-24.49,0.95-36.73,1.17
				c-6.12,0.14-12.24,0.17-18.37,0.25l-18.37,0.08l-18.37-0.08c-6.12-0.08-12.24-0.11-18.37-0.25
				C580.23,725.67,567.98,725.35,555.74,724.73z"/>
		</g>
		<g>
			<text transform="matrix(1.0848 0 0 1 325.311 694.887)" class="st0 st1 st2">S</text>
		</g>
		<text transform="matrix(1 0 0 1 572.6885 685.4133)" class="st0 st1 st3">t</text>
		<text transform="matrix(1 0 0 1 564.4121 697.8284)" class="st4 st1 st3">t</text>
	</g>
	<text transform="matrix(1 0 0 1 264.0327 862.594)" class="st5 st6 st7 st8">smart twins</text>
</g>
</svg>
