<?xml version="1.0" encoding="utf-8"?>
<!-- Generator: Adobe Illustrator 25.0.1, SVG Export Plug-In . SVG Version: 6.00 Build 0)  -->
<svg version="1.1" id="Layer_1" xmlns="http://www.w3.org/2000/svg" xmlns:xlink="http://www.w3.org/1999/xlink" x="0px" y="0px"
	 viewBox="0 0 563.85 642.29" style="enable-background:new 0 0 563.85 642.29;" xml:space="preserve">
<style type="text/css">
	.st0{fill:#30375C;}
	.st1{fill:#54C8E3;}
</style>
<g>
	<path class="st0" d="M29.71,444.8c-10.1-12.43-15.15-23.59-15.15-33.5c0-9.9,8.35-23.01,25.05-39.33c9.7-9.32,20-13.98,30.88-13.98
		c10.87,0,26.02,9.71,45.44,29.13c5.43,6.61,13.2,12.92,23.3,18.93c10.09,6.03,19.42,9.03,27.96,9.03
		c36.12,0,54.18-14.76,54.18-44.28c0-8.93-4.95-16.4-14.86-22.43c-9.9-6.02-22.24-10.39-36.99-13.11
		c-14.76-2.71-30.69-7.08-47.77-13.11c-17.1-6.02-33.02-13.11-47.77-21.26c-14.76-8.16-27.09-21.06-36.99-38.74
		c-9.9-17.67-14.86-38.93-14.86-63.79c0-34.17,12.72-63.98,38.16-89.43c25.43-25.43,60.1-38.16,103.99-38.16
		c23.3,0,44.57,3.01,63.79,9.03c19.22,6.03,32.52,12.14,39.91,18.35l14.56,11.07c12.03,11.27,18.06,20.78,18.06,28.55
		c0,7.77-4.66,18.45-13.98,32.04c-13.21,19.43-26.8,29.13-40.78,29.13c-8.16,0-18.26-3.88-30.29-11.65c-1.17-0.77-3.4-2.71-6.7-5.83
		c-3.3-3.1-6.32-5.63-9.03-7.57c-8.16-5.04-18.55-7.57-31.17-7.57c-12.63,0-23.11,3.01-31.46,9.03
		c-8.36,6.03-12.53,14.37-12.53,25.05c0,10.69,4.95,19.33,14.86,25.92c9.9,6.61,22.23,11.07,36.99,13.4
		c14.76,2.33,30.88,5.93,48.35,10.78c17.48,4.86,33.59,10.78,48.35,17.77c14.75,6.99,27.09,19.13,36.99,36.41
		c9.9,17.29,14.86,38.55,14.86,63.79c0,25.25-5.05,47.48-15.15,66.71c-10.1,19.22-23.3,34.08-39.62,44.57
		c-31.46,20.59-65.06,30.88-100.79,30.88c-18.26,0-35.54-2.24-51.85-6.7c-16.31-4.46-29.52-9.99-39.62-16.6
		c-20.59-12.42-34.95-24.47-43.11-36.12L29.71,444.8z"/>
	<path class="st1" d="M512.42,330.03l-32.46-2v68.91c0,8.99,1.41,15.48,4.24,19.47c2.82,4,8.15,5.99,15.98,5.99
		c7.82,0,13.81,0.25,17.98,0.75c4.16,0.5,8.57,2.08,13.23,4.74c7.65,4.33,11.49,15.48,11.49,33.46c0,20.97-4.67,33.79-13.98,38.45
		c-4.99,2.33-9.41,3.75-13.23,4.24c-3.83,0.5-9.41,0.75-16.73,0.75c-34.63,0-60.92-7.82-78.9-23.47
		c-17.98-15.64-26.97-42.11-26.97-79.4v-73.91c-6.33,1-13.15,1.5-20.47,1.5c-7.33,0-13.4-2.82-18.23-8.49
		c-4.83-5.66-7.24-15.31-7.24-28.96c0-13.65,0.83-23.55,2.5-29.71c1.66-6.16,3.99-10.56,6.99-13.23c5.32-4.32,11.99-6.49,19.97-6.49
		l16.48,2v-51.43c0-7.65,0.25-13.31,0.75-16.98c0.5-3.66,2.08-7.65,4.74-11.98c4.32-8.32,17.14-12.48,38.45-12.48
		c22.63,0,36.12,6.16,40.45,18.48c1.66,5.33,2.5,13.82,2.5,25.47v48.94c14.64-1.33,25.72-2,33.21-2s13.15,0.25,16.98,0.75
		c3.82,0.5,8.24,2.08,13.23,4.74c8.65,4.33,12.98,17.15,12.98,38.45c0,20.97-4.49,33.79-13.48,38.45
		c-4.99,2.33-9.41,3.75-13.23,4.25C525.82,329.78,520.07,330.03,512.42,330.03z"/>
</g>
</svg>
