<svg xmlns="http://www.w3.org/2000/svg" xmlns:xlink="http://www.w3.org/1999/xlink" width="689.204" height="531.742" viewBox="0 0 689.204 531.742">
  <defs>
    <linearGradient id="linear-gradient" y1="0.5" x2="1" y2="0.5" gradientUnits="objectBoundingBox">
      <stop offset="0" stop-color="#4e62aa"/>
      <stop offset="0.006" stop-color="#4e63aa"/>
      <stop offset="0.331" stop-color="#5098ca"/>
      <stop offset="0.574" stop-color="#51b9de"/>
      <stop offset="0.707" stop-color="#52c6e6"/>
    </linearGradient>
    <linearGradient id="linear-gradient-2" x1="0.531" y1="0.127" x2="0.328" y2="1.542" gradientUnits="objectBoundingBox">
      <stop offset="0" stop-color="#09005d"/>
      <stop offset="1" stop-color="#1a0f91"/>
    </linearGradient>
    <linearGradient id="linear-gradient-3" x1="0.457" y1="1.875" x2="-0.174" y2="23.659" gradientUnits="objectBoundingBox">
      <stop offset="0" stop-color="#4042e2"/>
      <stop offset="1" stop-color="#4f52ff"/>
    </linearGradient>
    <linearGradient id="linear-gradient-4" x1="0.416" y1="2.737" x2="-0.105" y2="17.472" xlink:href="#linear-gradient-3"/>
    <linearGradient id="linear-gradient-5" x1="0.379" y1="3.815" x2="-0.133" y2="18.536" xlink:href="#linear-gradient-3"/>
    <linearGradient id="linear-gradient-6" x1="0.332" y1="5.009" x2="-0.21" y2="19.87" xlink:href="#linear-gradient-3"/>
    <linearGradient id="linear-gradient-7" x1="0.436" y1="0.981" x2="0.538" y2="-0.019" gradientUnits="objectBoundingBox">
      <stop offset="0" stop-color="#fe7062"/>
      <stop offset="1" stop-color="#ff928e"/>
    </linearGradient>
    <linearGradient id="linear-gradient-8" x1="0.464" y1="0.304" x2="0.798" y2="2.219" gradientUnits="objectBoundingBox">
      <stop offset="0" stop-color="#e1473d"/>
      <stop offset="1" stop-color="#e9605a"/>
    </linearGradient>
    <linearGradient id="linear-gradient-9" x1="0.464" y1="0.307" x2="0.799" y2="2.221" xlink:href="#linear-gradient-8"/>
    <linearGradient id="linear-gradient-10" x1="0" y1="0.5" x2="1" y2="0.5" xlink:href="#linear-gradient-8"/>
    <linearGradient id="linear-gradient-11" x1="-6.541" y1="7.063" x2="-5.555" y2="7.063" xlink:href="#linear-gradient-3"/>
    <linearGradient id="linear-gradient-12" x1="-5.072" y1="12.222" x2="-4.356" y2="10.335" xlink:href="#linear-gradient-3"/>
    <linearGradient id="linear-gradient-13" x1="-13.471" y1="7.716" x2="-12.753" y2="5.822" xlink:href="#linear-gradient-3"/>
    <linearGradient id="linear-gradient-14" x1="0.017" y1="-0.128" x2="0.537" y2="0.634" xlink:href="#linear-gradient-3"/>
    <linearGradient id="linear-gradient-15" x1="-69.539" y1="0.302" x2="-68.868" y2="1.263" gradientUnits="objectBoundingBox">
      <stop offset="0" stop-color="#ff928e"/>
      <stop offset="1" stop-color="#feb3b1"/>
    </linearGradient>
    <linearGradient id="linear-gradient-16" x1="-226.833" y1="0.5" x2="-225.833" y2="0.5" xlink:href="#linear-gradient-3"/>
    <linearGradient id="linear-gradient-17" x1="-162.942" y1="1.602" x2="-161.907" y2="-1.187" xlink:href="#linear-gradient-15"/>
    <linearGradient id="linear-gradient-18" x1="-140.184" y1="0.5" x2="-139.184" y2="0.5" xlink:href="#linear-gradient-3"/>
    <linearGradient id="linear-gradient-19" x1="-72.74" y1="1.698" x2="-72.276" y2="-1.193" xlink:href="#linear-gradient-15"/>
    <linearGradient id="linear-gradient-20" x1="-72.827" y1="0.16" x2="-71.223" y2="4.272" xlink:href="#linear-gradient-8"/>
    <linearGradient id="linear-gradient-21" x1="-62.205" y1="-0.681" x2="-60.845" y2="2.359" xlink:href="#linear-gradient-2"/>
    <linearGradient id="linear-gradient-22" x1="0.558" y1="0.117" x2="0.329" y2="1.912" xlink:href="#linear-gradient-15"/>
    <linearGradient id="linear-gradient-23" x1="-49.698" y1="-61.463" x2="-51.021" y2="-60.555" xlink:href="#linear-gradient-15"/>
    <linearGradient id="linear-gradient-24" x1="0.193" y1="-0.112" x2="1.955" y2="2.656" xlink:href="#linear-gradient-3"/>
    <linearGradient id="linear-gradient-25" x1="-182.767" y1="-199" x2="-187.578" y2="-196.074" xlink:href="#linear-gradient-15"/>
    <linearGradient id="linear-gradient-26" x1="-241.797" y1="1.592" x2="-240.185" y2="4.225" xlink:href="#linear-gradient-15"/>
    <linearGradient id="linear-gradient-27" x1="39.902" y1="65.92" x2="40.485" y2="65.92" xlink:href="#linear-gradient-15"/>
    <linearGradient id="linear-gradient-28" x1="-3.345" y1="0.5" x2="-2.345" y2="0.5" xlink:href="#linear-gradient-3"/>
    <linearGradient id="linear-gradient-29" x1="3.902" y1="0.5" x2="4.902" y2="0.5" xlink:href="#linear-gradient-2"/>
    <linearGradient id="linear-gradient-30" x1="4.533" y1="0.5" x2="5.533" y2="0.5" xlink:href="#linear-gradient-2"/>
    <linearGradient id="linear-gradient-31" x1="10.885" y1="0.5" x2="11.885" y2="0.5" xlink:href="#linear-gradient-2"/>
    <linearGradient id="linear-gradient-32" x1="10.885" y1="0.5" x2="11.885" y2="0.5" xlink:href="#linear-gradient-2"/>
    <linearGradient id="linear-gradient-33" x1="10.279" y1="0.5" x2="11.279" y2="0.5" xlink:href="#linear-gradient-2"/>
    <linearGradient id="linear-gradient-34" x1="11.369" y1="0.5" x2="12.369" y2="0.5" xlink:href="#linear-gradient-2"/>
    <linearGradient id="linear-gradient-35" x1="9.513" y1="0.5" x2="10.513" y2="0.5" xlink:href="#linear-gradient-2"/>
    <linearGradient id="linear-gradient-36" x1="8.908" y1="0.5" x2="9.908" y2="0.5" xlink:href="#linear-gradient-2"/>
    <linearGradient id="linear-gradient-37" x1="19.055" y1="-0.551" x2="18.954" y2="1.401" xlink:href="#linear-gradient-2"/>
    <linearGradient id="linear-gradient-38" x1="17.83" y1="0.236" x2="17.613" y2="9.823" gradientUnits="objectBoundingBox">
      <stop offset="0" stop-color="#020039"/>
      <stop offset="1" stop-color="#090056"/>
    </linearGradient>
    <linearGradient id="linear-gradient-39" x1="62.032" y1="0.5" x2="63.032" y2="0.5" xlink:href="#linear-gradient-15"/>
    <linearGradient id="linear-gradient-40" x1="31.354" y1="0.589" x2="30.2" y2="1.431" xlink:href="#linear-gradient-38"/>
    <linearGradient id="linear-gradient-41" x1="23.812" y1="0.5" x2="24.812" y2="0.5" xlink:href="#linear-gradient-2"/>
    <linearGradient id="linear-gradient-42" x1="44.157" y1="0.5" x2="45.157" y2="0.5" xlink:href="#linear-gradient-15"/>
    <linearGradient id="linear-gradient-43" x1="6.844" y1="0.083" x2="5.834" y2="0.8" xlink:href="#linear-gradient-3"/>
    <linearGradient id="linear-gradient-44" x1="39.448" y1="3.433" x2="40.665" y2="0.468" xlink:href="#linear-gradient-3"/>
    <linearGradient id="linear-gradient-45" x1="0.038" y1="-0.154" x2="0.812" y2="1.232" xlink:href="#linear-gradient-2"/>
    <linearGradient id="linear-gradient-46" x1="1.201" y1="-0.685" x2="-0.304" y2="2.321" xlink:href="#linear-gradient-15"/>
    <linearGradient id="linear-gradient-47" x1="0.809" y1="-0.036" x2="0.106" y2="0.772" xlink:href="#linear-gradient-2"/>
    <linearGradient id="linear-gradient-48" x1="0" y1="0.5" x2="1" y2="0.5" xlink:href="#linear-gradient-3"/>
    <linearGradient id="linear-gradient-49" x1="-118.01" y1="-0.489" x2="-119.352" y2="0.834" xlink:href="#linear-gradient-15"/>
    <linearGradient id="linear-gradient-50" x1="-83.245" y1="0.099" x2="-82.12" y2="0.099" xlink:href="#linear-gradient-2"/>
    <linearGradient id="linear-gradient-51" x1="-321.573" y1="0.07" x2="-318.681" y2="-2.415" xlink:href="#linear-gradient-15"/>
    <linearGradient id="linear-gradient-52" x1="1.078" y1="-2.646" x2="0.727" y2="-0.79" xlink:href="#linear-gradient-15"/>
    <linearGradient id="linear-gradient-53" x1="1.994" y1="-7.038" x2="0.968" y2="-1.905" xlink:href="#linear-gradient-15"/>
    <linearGradient id="linear-gradient-54" x1="30.851" y1="-0.484" x2="28.016" y2="6.012" xlink:href="#linear-gradient-2"/>
    <linearGradient id="linear-gradient-55" x1="118.775" y1="0.5" x2="119.775" y2="0.5" xlink:href="#linear-gradient-15"/>
    <linearGradient id="linear-gradient-56" x1="35.3" y1="0.802" x2="40.185" y2="-0.514" xlink:href="#linear-gradient-3"/>
    <linearGradient id="linear-gradient-57" x1="77.114" y1="-2.223" x2="70.097" y2="5.384" xlink:href="#linear-gradient-2"/>
    <linearGradient id="linear-gradient-58" x1="137.561" y1="0.5" x2="138.561" y2="0.5" xlink:href="#linear-gradient-15"/>
    <linearGradient id="linear-gradient-59" x1="24.988" y1="0.721" x2="28.429" y2="-0.571" xlink:href="#linear-gradient-3"/>
    <linearGradient id="linear-gradient-60" x1="7.314" y1="4.674" x2="6.505" y2="5.33" xlink:href="#linear-gradient-7"/>
    <linearGradient id="linear-gradient-61" x1="23.249" y1="0.5" x2="24.249" y2="0.5" xlink:href="#linear-gradient-15"/>
    <linearGradient id="linear-gradient-62" x1="342.221" y1="1.605" x2="344.221" y2="4.278" xlink:href="#linear-gradient-15"/>
    <linearGradient id="linear-gradient-63" x1="-3.386" y1="4.017" x2="0.99" y2="0.127" xlink:href="#linear-gradient-15"/>
    <linearGradient id="linear-gradient-64" x1="18.37" y1="11.091" x2="16.339" y2="12.769" xlink:href="#linear-gradient-7"/>
    <linearGradient id="linear-gradient-65" x1="18.371" y1="0.5" x2="19.371" y2="0.5" xlink:href="#linear-gradient-15"/>
    <linearGradient id="linear-gradient-66" x1="17.532" y1="-0.062" x2="18.045" y2="2.428" xlink:href="#linear-gradient-2"/>
    <linearGradient id="linear-gradient-67" x1="90.859" y1="-3.497" x2="90.285" y2="1.805" xlink:href="#linear-gradient-3"/>
    <linearGradient id="linear-gradient-68" x1="47.705" y1="-1.235" x2="47.561" y2="1.146" xlink:href="#linear-gradient-3"/>
    <linearGradient id="linear-gradient-69" x1="58.969" y1="0.5" x2="59.969" y2="0.5" xlink:href="#linear-gradient-15"/>
    <linearGradient id="linear-gradient-70" x1="0.638" y1="-0.029" x2="0.239" y2="1.761" xlink:href="#linear-gradient-15"/>
    <linearGradient id="linear-gradient-71" x1="-10.142" y1="77.864" x2="-11.145" y2="76.636" xlink:href="#linear-gradient-15"/>
    <linearGradient id="linear-gradient-72" x1="-71.367" y1="-19.694" x2="-71.162" y2="-18.515" xlink:href="#linear-gradient-2"/>
    <linearGradient id="linear-gradient-73" x1="-33.666" y1="375.589" x2="-36.934" y2="369.637" xlink:href="#linear-gradient-15"/>
    <linearGradient id="linear-gradient-74" x1="10.458" y1="21.339" x2="9.406" y2="23.725" xlink:href="#linear-gradient-8"/>
    <linearGradient id="linear-gradient-75" x1="7.668" y1="21.995" x2="6.833" y2="24.38" xlink:href="#linear-gradient-7"/>
    <linearGradient id="linear-gradient-76" x1="10.373" y1="14.474" x2="9.249" y2="16.079" xlink:href="#linear-gradient-7"/>
    <linearGradient id="linear-gradient-77" x1="5.415" y1="-18.843" x2="5.651" y2="-16.162" xlink:href="#linear-gradient-2"/>
    <linearGradient id="linear-gradient-78" x1="35.334" y1="-28.182" x2="34.293" y2="-26.601" xlink:href="#linear-gradient-7"/>
    <linearGradient id="linear-gradient-79" x1="55.578" y1="-40.583" x2="56.623" y2="-40.583" xlink:href="#linear-gradient-2"/>
    <linearGradient id="linear-gradient-80" y1="0.5" x2="1" y2="0.5" gradientUnits="objectBoundingBox">
      <stop offset="0" stop-color="#dae3fe"/>
      <stop offset="1" stop-color="#e9effd"/>
    </linearGradient>
    <linearGradient id="linear-gradient-81" x1="85.628" y1="-60.952" x2="86.673" y2="-60.952" xlink:href="#linear-gradient-2"/>
    <linearGradient id="linear-gradient-83" x1="0" y1="0.5" x2="1" y2="0.5" xlink:href="#linear-gradient-15"/>
  </defs>
  <g id="Group_1565" data-name="Group 1565" transform="translate(-538 -361)">
    <path id="Path_1854" data-name="Path 1854" d="M1258.157,542.054c-11.925-33.246-30.7-43.363-48.564-64.688-21.814-26.045-36.528-44.978-30.864-78.478,9.255-54.741,13.217-191.264-131.7-173.418-51.943,6.4-92.989,46.2-122.851,85.935-25.409,33.81-71.115,36.791-107.9,44.673-45.2,9.685-91.247,24.315-133.068,45.749C597.072,445.973,571.347,509.437,574.86,590.635c1.061,24.531,4.533,63.173,45.973,108.388,55.933,61.029,137.21,69.2,235.035,41.174,22.393-6.416,43.559-16.478,65.586-24.053a309.5,309.5,0,0,1,70.782-15.369c56.185-5.432,114.426,4.393,168.323-12.382a177.6,177.6,0,0,0,75.284-46.69C1261.587,614.739,1270.744,577.145,1258.157,542.054Z" transform="translate(-36.55 137.126)" fill="url(#linear-gradient)"/>
    <g id="Group_1623" data-name="Group 1623" transform="translate(405.252 210.647)">
      <g id="Group_1569" data-name="Group 1569" transform="translate(406.683 478.411)">
        <g id="Group_1567" data-name="Group 1567" transform="translate(0 51.341)">
          <path id="Path_1866" data-name="Path 1866" d="M1031.149,1278.262a32.169,32.169,0,0,0-17.481-12.491,22.818,22.818,0,0,1-13.761-10.164q-.484-.8-1.045-1.572c-5.664-7.816-15.033-10.691-20.927-6.421s-6.08,14.069-.415,21.886a22.657,22.657,0,0,0,3.878,4.155,22.933,22.933,0,0,1,8.226,14.743,33.642,33.642,0,0,0,6.255,15.421c5.266,7.267,12.609,11.812,19.749,12.972a22.418,22.418,0,0,1,7.676,2.739c3.93,2.286,8.463,2.481,11.771.083,3.569-2.586,4.715-7.465,3.321-12.263a23.939,23.939,0,0,1-.836-8.369A32.1,32.1,0,0,0,1031.149,1278.262Z" transform="translate(-973.391 -1245.637)" fill="#91b3fa"/>
          <path id="Path_1867" data-name="Path 1867" d="M1014.924,1274.883c4.513,4.608,8.875,9.357,13.188,14.152,1.078,1.2,2.138,2.413,3.2,3.625l1.595,1.818,1.579,1.831c1.048,1.225,2.113,2.436,3.148,3.673l3.1,3.71c2.037,2.5,4.1,4.982,6.087,7.52,1,1.267,2.019,2.515,2.99,3.8l2.932,3.848c3.857,5.171,7.587,10.44,11.042,15.888l-.233.151-2.74-3.977-.683-1-.708-.979-1.419-1.954-1.415-1.956c-.47-.653-.965-1.289-1.446-1.934-.971-1.284-1.932-2.575-2.912-3.853q-5.927-7.628-12.091-15.068c-2.08-2.459-4.138-4.935-6.235-7.38l-1.568-1.838-1.583-1.825c-1.054-1.217-2.109-2.434-3.176-3.641q-3.17-3.647-6.393-7.246-3.207-3.615-6.466-7.183Z" transform="translate(-1002.29 -1266.086)" fill="#fff" opacity="0.57"/>
        </g>
        <g id="Group_1568" data-name="Group 1568" transform="translate(22.244 0)">
          <path id="Path_1868" data-name="Path 1868" d="M1111.5,1147.414c-2.038-11.26-7.564-20.745-14.771-26.842a32.474,32.474,0,0,1-11.423-21.555q-.13-1.323-.372-2.665c-2.451-13.542-12.734-23.018-22.97-21.166s-16.546,14.332-14.095,27.873a32.239,32.239,0,0,0,2.419,7.734,32.623,32.623,0,0,1,1.458,24.026,47.866,47.866,0,0,0-1.5,23.681c2.279,12.59,8.918,22.963,17.394,28.859a31.969,31.969,0,0,1,8.188,8.257c3.644,5.364,9.36,8.411,15.106,7.371,6.2-1.122,10.7-6.686,11.875-13.713a34.12,34.12,0,0,1,4.109-11.272C1111.644,1169.733,1113.56,1158.8,1111.5,1147.414Z" transform="translate(-1047.34 -1074.955)" fill="#bdd0fb"/>
          <path id="Path_1869" data-name="Path 1869" d="M1115.659,1121.459c2.957,8.708,5.631,17.5,8.214,26.327.647,2.205,1.258,4.422,1.876,6.635l.927,3.321.9,3.329c.591,2.221,1.212,4.434,1.778,6.662l1.7,6.684c1.075,4.47,2.187,8.931,3.179,13.422.5,2.244,1.041,4.478,1.495,6.733l1.391,6.756c1.763,9.026,3.3,18.1,4.376,27.235l-.393.05-1.064-6.8-.262-1.7-.3-1.694-.616-3.387-.609-3.388c-.2-1.13-.444-2.251-.665-3.378-.455-2.25-.892-4.5-1.362-6.749-1.937-8.974-3.994-17.922-6.234-26.827-1.154-4.444-2.271-8.9-3.456-13.333l-.88-3.329-.907-3.322c-.6-2.215-1.208-4.43-1.834-6.639q-1.822-6.643-3.744-13.258c-1.259-4.416-2.561-8.822-3.875-13.222Z" transform="translate(-1094.845 -1107.471)" fill="#fff" opacity="0.57"/>
        </g>
      </g>
      <g id="Group_1572" data-name="Group 1572" transform="translate(474.764 484.742)">
        <g id="Group_1570" data-name="Group 1570" transform="translate(21.455 46.897)">
          <path id="Path_1870" data-name="Path 1870" d="M1278.962,1283.459a31.476,31.476,0,0,1,17.2-12.084,22.326,22.326,0,0,0,13.545-9.837q.48-.776,1.035-1.53c5.6-7.6,14.793-10.342,20.526-6.117s5.838,13.813.234,21.417a22.171,22.171,0,0,1-3.827,4.035,22.439,22.439,0,0,0-8.165,14.361,32.916,32.916,0,0,1-6.241,15.04c-5.21,7.069-12.43,11.458-19.425,12.537a21.935,21.935,0,0,0-7.533,2.619c-3.863,2.206-8.3,2.361-11.518-.011-3.472-2.559-4.555-7.342-3.153-12.025a23.43,23.43,0,0,0,.884-8.182A31.406,31.406,0,0,1,1278.962,1283.459Z" transform="translate(-1271.047 -1251.906)" fill="#91b3fa"/>
          <path id="Path_1871" data-name="Path 1871" d="M1332.534,1280.478c-4.452,4.473-8.758,9.085-13.015,13.743-1.065,1.164-2.111,2.344-3.161,3.522l-1.574,1.767-1.56,1.779c-1.035,1.191-2.087,2.366-3.109,3.569l-3.065,3.606c-2.013,2.43-4.047,4.843-6.015,7.31-.986,1.232-2,2.445-2.956,3.7l-2.9,3.742c-3.815,5.029-7.505,10.156-10.93,15.459l.227.149,2.713-3.87.676-.969.7-.952,1.4-1.9,1.4-1.9c.465-.635.955-1.253,1.43-1.881.96-1.248,1.911-2.5,2.879-3.747q5.859-7.416,11.949-14.647c2.054-2.39,4.088-4.8,6.158-7.172l1.548-1.786,1.563-1.773c1.042-1.183,2.083-2.365,3.136-3.537q3.13-3.543,6.313-7.039,3.166-3.511,6.383-6.977Z" transform="translate(-1280.279 -1271.884)" fill="#fff" opacity="0.57"/>
        </g>
        <g id="Group_1571" data-name="Group 1571" transform="translate(0 0)">
          <path id="Path_1872" data-name="Path 1872" d="M1200.5,1164.479c1.926-10.641,7.148-19.606,13.96-25.368a30.69,30.69,0,0,0,10.8-20.371q.123-1.25.352-2.519c2.316-12.8,12.035-21.753,21.708-20s15.637,13.544,13.321,26.342a30.462,30.462,0,0,1-2.286,7.309,30.832,30.832,0,0,0-1.378,22.706,45.232,45.232,0,0,1,1.418,22.38c-2.153,11.9-8.428,21.7-16.439,27.274a30.213,30.213,0,0,0-7.738,7.8c-3.443,5.069-8.846,7.949-14.276,6.966-5.858-1.06-10.11-6.319-11.222-12.959a32.244,32.244,0,0,0-3.883-10.654C1200.363,1185.572,1198.552,1175.238,1200.5,1164.479Z" transform="translate(-1199.722 -1096)" fill="#bdd0fb"/>
          <path id="Path_1873" data-name="Path 1873" d="M1281.745,1139.949c-2.794,8.229-5.322,16.542-7.762,24.881-.611,2.084-1.189,4.178-1.773,6.271l-.876,3.138-.85,3.145c-.558,2.1-1.146,4.191-1.68,6.3l-1.6,6.317c-1.016,4.225-2.067,8.441-3,12.684-.471,2.121-.984,4.232-1.412,6.363l-1.314,6.385c-1.667,8.53-3.119,17.106-4.135,25.739l.372.047,1.006-6.43.248-1.608.288-1.6.582-3.2.576-3.2c.19-1.067.42-2.128.628-3.192.43-2.126.844-4.255,1.287-6.378,1.831-8.481,3.774-16.938,5.892-25.353,1.091-4.2,2.146-8.408,3.266-12.6l.831-3.146.858-3.139c.571-2.093,1.141-4.187,1.733-6.275q1.722-6.278,3.538-12.53c1.19-4.174,2.42-8.337,3.662-12.5Z" transform="translate(-1240.004 -1126.729)" fill="#fff" opacity="0.57"/>
        </g>
      </g>
      <g id="Group_1575" data-name="Group 1575" transform="translate(162.879 321.426)">
        <g id="Group_1573" data-name="Group 1573" transform="translate(0 0)">
          <path id="Path_1874" data-name="Path 1874" d="M192.6,553.381c-4.863.8-9.873,2.677-12.057,5.465-9.85,12.573.171,33.51,2.844,46.813,4.592,22.853,4.016,46.936-4.274,68.89-8.983,23.787-15.745,47.515-16.217,73.188-.244,13.226,1.559,27.562,8.508,39.163,13.133,21.917,54.9,16.95,65.7-3.952,8.614-16.67,8.872-36.13,6.822-54.336-3.449-30.627-11.816-60.437-15.461-91.029-2.787-23.393,5.959-67.915-19.173-81.638C204.7,553.433,197.763,552.527,192.6,553.381Z" transform="translate(-162.879 -553.068)" fill="#bdd0fb"/>
          <path id="Path_1875" data-name="Path 1875" d="M258.554,857.138a.918.918,0,0,1-.858-1.244,383.909,383.909,0,0,0,23.319-102.823,421.448,421.448,0,0,0-1.551-86.913c-4.794-39.733-14.461-71.4-18.9-82.593a.918.918,0,1,1,1.706-.678c.129.325,12.988,33.112,19.013,82.99a423.244,423.244,0,0,1,1.568,87.314,385.738,385.738,0,0,1-23.435,103.355A.918.918,0,0,1,258.554,857.138Z" transform="translate(-229.133 -573.513)" fill="#91b3fa"/>
        </g>
        <g id="Group_1574" data-name="Group 1574" transform="translate(50.217 133.332)">
          <path id="Path_1876" data-name="Path 1876" d="M329.823,1086.283c-.134-12.952,6.53-26.859,10.725-39.944,2.217-6.918,3.774-13.875,3.644-21.178-.129-7.262-2.381-15.414,1.694-22.055,8.213-13.379,22.035-4.811,28.961,7.113,8.038,13.836,7.842,34.563,9.35,50.758.909,9.763,2.92,19.929,2.744,29.722-.292,16.223-5.461,26.785-14.145,33.184a23.314,23.314,0,0,1-27.928-.2C337.419,1118.04,330.039,1107.177,329.823,1086.283Z" transform="translate(-329.821 -996.322)" fill="#91b3fa"/>
          <path id="Path_1877" data-name="Path 1877" d="M412.385,1177.059a.919.919,0,0,1-.876-1.2c.237-.746,23.482-75.411,7.365-140.143a.918.918,0,1,1,1.782-.444c4.687,18.825,8.92,50.646,2.467,95.329a320.535,320.535,0,0,1-9.862,45.812A.919.919,0,0,1,412.385,1177.059Z" transform="translate(-386.908 -1023.071)" fill="#7d97f4"/>
        </g>
      </g>
      <g id="Group_1579" data-name="Group 1579" transform="translate(667.078 364.087)">
        <g id="Group_1577" data-name="Group 1577" transform="translate(23.782)">
          <g id="Group_1576" data-name="Group 1576">
            <path id="Path_1878" data-name="Path 1878" d="M1992.409,789.155a49.707,49.707,0,0,1-5.145-18.148c-1.149-16.355,8.358-31.416,15.343-45.5,6.419-12.942,11.19-32.226-10.47-30.51-17.257,1.367-37.544,18.565-39.859,36.5-2.739,21.224,7.593,47.989-4.657,67.269-17.138,26.971-29.5,20.79-29.5,66.3,0,19.448,10.772,30.175,23.111,36.084a51.636,51.636,0,0,0,58.213-9.458c13.708-13.266,21.858-32.337,19.1-51.483C2015.763,820.875,2000.6,806.21,1992.409,789.155Z" transform="translate(-1918.121 -694.892)" fill="#bdd0fb"/>
            <path id="Path_1879" data-name="Path 1879" d="M2074.172,953.733a.962.962,0,0,1-.932-.728c-10.742-42.877-16.589-81.748-17.379-115.533-.633-27.069,1.96-50.96,7.707-71.012,5.129-17.894,11.878-29.366,16.636-35.839,5.2-7.073,9.157-9.859,9.323-9.975a.961.961,0,0,1,1.1,1.579h0c-.039.027-3.943,2.792-8.985,9.69-4.659,6.373-11.268,17.676-16.3,35.33-5.659,19.869-8.2,43.557-7.555,70.409.807,33.589,6.633,72.241,17.317,114.884a.961.961,0,0,1-.7,1.166A.98.98,0,0,1,2074.172,953.733Z" transform="translate(-2014.364 -712.78)" fill="#91b3fa"/>
          </g>
          <path id="Path_1880" data-name="Path 1880" d="M2189.011,848.2a7.232,7.232,0,0,0-2.727-.185c-5.4.621-7.615,6.314-9.2,10.765-1.358,3.812-2.959,8.438-2.157,12.568.867,4.465,5.609,8.107,9.049,3.574,3.911-5.153,9.779-13.064,9.814-19.892A6.689,6.689,0,0,0,2189.011,848.2Z" transform="translate(-2097.528 -801.919)" fill="#bdd0fb"/>
        </g>
        <g id="Group_1578" data-name="Group 1578" transform="translate(0 92.315)">
          <path id="Path_1881" data-name="Path 1881" d="M1895.612,1092.829c1.905-12.551-2.656-26.959-4.933-40.231-1.2-7.017-1.76-13.981-.634-21.051,1.121-7.029,4.423-14.631,1.378-21.634-6.136-14.109-20.723-7.688-29.079,2.933-9.7,12.325-12.347,32.465-16.029,47.974-2.22,9.349-5.565,18.939-6.736,28.466-1.94,15.783,1.628,26.74,9.178,34.14a22.848,22.848,0,0,0,27.129,3.636C1883.889,1122.6,1892.538,1113.075,1895.612,1092.829Z" transform="translate(-1839.058 -1001.786)" fill="#91b3fa"/>
          <path id="Path_1882" data-name="Path 1882" d="M1906.573,1175.75a.829.829,0,0,1-.816-.692,314.133,314.133,0,0,1-3.291-45.8c-.076-24.415,2.542-60.22,15.453-92.143a.829.829,0,0,1,1.538.622c-7.07,17.482-15.47,47.551-15.332,91.516a312.256,312.256,0,0,0,3.268,45.526.829.829,0,0,1-.68.956A.881.881,0,0,1,1906.573,1175.75Z" transform="translate(-1883.391 -1026.129)" fill="#7d97f4"/>
        </g>
      </g>
      <g id="Group_1583" data-name="Group 1583" transform="translate(384.247 293.302)">
        <path id="Path_1883" data-name="Path 1883" d="M1185.345,1282.057c-.135-1.683-1.855-3.14-4.766-4.308,3.164-1.745,4.914-3.614,4.766-5.448-.448-5.549-18.021-8.66-39.251-6.948s-38.079,7.6-37.631,13.147c.136,1.683,1.855,3.14,4.766,4.308-3.164,1.745-4.914,3.615-4.766,5.448.136,1.683,1.855,3.14,4.766,4.308-3.164,1.745-4.914,3.615-4.766,5.448.136,1.683,1.855,3.14,4.766,4.308-3.164,1.745-4.914,3.615-4.766,5.448.2,2.454,3.75,4.43,9.482,5.725a49.276,49.276,0,0,0,.146,6c.83,10.226,12.332,18.243,27.545,18.243s28.379-10.932,28.528-21.189a51.822,51.822,0,0,0-.3-6.693c7.279-2.431,11.712-5.4,11.479-8.28-.135-1.683-1.855-3.14-4.766-4.308,3.164-1.745,4.914-3.615,4.766-5.449-.135-1.683-1.855-3.14-4.766-4.308C1183.743,1285.761,1185.493,1283.891,1185.345,1282.057Z" transform="translate(-1045.391 -1022.642)" fill="url(#linear-gradient-2)"/>
        <g id="Group_1580" data-name="Group 1580" transform="translate(68.735 255.618)">
          <path id="Path_1884" data-name="Path 1884" d="M1160.818,1420.876a91.741,91.741,0,0,1-16.841-1.377.51.51,0,0,1,.192-1c7.459,1.428,17.422,1.743,28.052.886a120.588,120.588,0,0,0,23.527-4.058.51.51,0,0,1,.286.979,121.638,121.638,0,0,1-23.73,4.1C1168.354,1420.718,1164.495,1420.876,1160.818,1420.876Z" transform="translate(-1138.673 -1383.435)" fill="url(#linear-gradient-3)"/>
          <path id="Path_1885" data-name="Path 1885" d="M1152.355,1382.218c-8.192,0-15.513-.77-20.677-2.241a.51.51,0,1,1,.279-.981c7.358,2.1,19.207,2.745,31.695,1.738,12.353-1,23.873-3.5,30.818-6.706a.51.51,0,1,1,.427.926c-7.047,3.25-18.7,5.791-31.163,6.8C1159.845,1382.064,1156.013,1382.218,1152.355,1382.218Z" transform="translate(-1130.104 -1354.542)" fill="url(#linear-gradient-4)"/>
          <path id="Path_1886" data-name="Path 1886" d="M1149.453,1349.791c-8.845,0-16.586-.905-21.8-2.623a.51.51,0,1,1,.319-.969c7.25,2.391,19.541,3.176,32.878,2.1,12.352-1,23.873-3.5,30.818-6.706a.51.51,0,0,1,.427.927c-7.048,3.25-18.7,5.791-31.163,6.8C1156.987,1349.635,1153.125,1349.791,1149.453,1349.791Z" transform="translate(-1127.307 -1331.864)" fill="url(#linear-gradient-5)"/>
          <path id="Path_1887" data-name="Path 1887" d="M1157.554,1317.521a87.92,87.92,0,0,1-18.359-1.669.51.51,0,0,1,.221-1c7.46,1.658,18.2,2.087,29.472,1.179,12.242-.987,23.7-3.467,30.661-6.633a.51.51,0,1,1,.422.928c-7.058,3.213-18.647,5.725-31,6.721C1165.066,1317.366,1161.223,1317.521,1157.554,1317.521Z" transform="translate(-1135.339 -1309.355)" fill="url(#linear-gradient-6)"/>
        </g>
        <path id="Path_1888" data-name="Path 1888" d="M947.626,669.737a71.791,71.791,0,0,0-12.857-25.1c-12.639-15.929-33.258-48.323-35.8-92.536-3.691-64.31,53.344-96.506,105.389-92.136s103.4,43.123,97.779,102.95c-3.46,36.812-24.064,64.734-39.4,80.77a85.192,85.192,0,0,0-20.452,36.235c-4.6,16.622-15.56,37.337-41.6,38.6C966.987,720.152,952.992,688.743,947.626,669.737Z" transform="translate(-898.803 -459.57)" fill="url(#linear-gradient-7)"/>
        <path id="Path_1889" data-name="Path 1889" d="M1266.022,993.793l18.211-118.444c.376-2.447,1.58-4.09,2.69-3.67s1.7,2.744,1.327,5.191c-.01.065-.023.146-.035.21l-20.743,117.344c-.156.882-.6,1.44-1,1.244S1265.891,994.647,1266.022,993.793Z" transform="translate(-1155.533 -747.67)" fill="url(#linear-gradient-8)"/>
        <path id="Path_1890" data-name="Path 1890" d="M1151.344,996.919l-18.211-118.444c-.376-2.447-1.58-4.09-2.69-3.67s-1.7,2.744-1.327,5.191c.01.065.024.146.035.21l20.743,117.343c.156.882.6,1.44,1,1.245S1151.474,997.774,1151.344,996.919Z" transform="translate(-1059.759 -749.855)" fill="url(#linear-gradient-9)"/>
        <path id="Path_1891" data-name="Path 1891" d="M1202.017,816.923a1.91,1.91,0,0,0-2.391-.621l-10.14,4.738-3.52-10.029a2.153,2.153,0,0,0-1.233-1.24,2.506,2.506,0,0,0-3.116.96l-.018.033-8.339,15.205-7.738-21.645-.013-.036a2.471,2.471,0,0,0-1.171-1.321,3.038,3.038,0,0,0-3.829.754l-11.658,16.049a1.406,1.406,0,0,0,.411,2.025,1.954,1.954,0,0,0,2.479-.27l10.265-11.45,9.242,20.591.007.016a1.635,1.635,0,0,0,.814.8,1.932,1.932,0,0,0,2.419-.626l8.919-14.312,3.357,7.239.03.064a1.325,1.325,0,0,0,.083.154,1.908,1.908,0,0,0,2.388.62L1201.3,819A1.433,1.433,0,0,0,1202.017,816.923Z" transform="translate(-1073.448 -699.413)" fill="url(#linear-gradient-10)"/>
        <g id="Group_1582" data-name="Group 1582" transform="translate(162.203 151.348)" opacity="0.72">
          <g id="Group_1581" data-name="Group 1581">
            <path id="Path_1892" data-name="Path 1892" d="M1440.165,980.031a2.129,2.129,0,0,1-1.708-3.4,134.478,134.478,0,0,0,8.459-12.849,2.129,2.129,0,1,1,3.687,2.129,138.654,138.654,0,0,1-8.728,13.259A2.123,2.123,0,0,1,1440.165,980.031Z" transform="translate(-1438.037 -962.719)" fill="#fff"/>
          </g>
        </g>
      </g>
      <g id="Group_1599" data-name="Group 1599" transform="translate(314.087 315.838)">
        <g id="Group_1593" data-name="Group 1593" transform="translate(0 0)">
          <g id="Group_1586" data-name="Group 1586" transform="translate(72.474)">
            <g id="Group_1585" data-name="Group 1585">
              <path id="Path_1893" data-name="Path 1893" d="M933.3,627.9a.768.768,0,0,0,.89-.03L941.6,622.2a40.691,40.691,0,0,0,12.934,2.537l4.73,8.046a.768.768,0,0,0,.813.363l10.98-2.219a.767.767,0,0,0,.609-.65l1.235-9.251a40.678,40.678,0,0,0,10.934-7.359l9.039,2.347a.768.768,0,0,0,.832-.319l6.2-9.333a.767.767,0,0,0-.03-.89l-5.672-7.419a40.668,40.668,0,0,0,2.537-12.934l8.046-4.73a.767.767,0,0,0,.363-.813l-2.219-10.98a.768.768,0,0,0-.65-.609l-9.251-1.235a40.681,40.681,0,0,0-7.359-10.934l2.347-9.039a.767.767,0,0,0-.318-.832l-9.333-6.2a.768.768,0,0,0-.89.03l-7.419,5.672a40.686,40.686,0,0,0-12.934-2.537l-4.73-8.046a.768.768,0,0,0-.813-.363l-10.98,2.219a.767.767,0,0,0-.609.651l-1.235,9.251a40.679,40.679,0,0,0-10.934,7.359l-9.039-2.347a.768.768,0,0,0-.832.319l-6.2,9.333a.768.768,0,0,0,.03.89l5.672,7.419a40.68,40.68,0,0,0-2.537,12.934l-8.046,4.729a.768.768,0,0,0-.363.814l2.218,10.98a.767.767,0,0,0,.651.609l9.251,1.235a40.674,40.674,0,0,0,7.359,10.934l-2.347,9.039a.767.767,0,0,0,.318.832Z" transform="translate(-906.497 -534.493)" fill="url(#linear-gradient-11)"/>
              <g id="Group_1584" data-name="Group 1584" transform="translate(38.469 38.47)">
                <path id="Path_1894" data-name="Path 1894" d="M1040.022,663.726a10.862,10.862,0,1,1-5.624,9A10.8,10.8,0,0,1,1040.022,663.726Zm9.573,17.433a9.028,9.028,0,1,0-13.363-8.345h0a9.025,9.025,0,0,0,13.363,8.345Z" transform="translate(-1034.385 -662.382)" fill="#bdd0fb"/>
              </g>
              <path id="Path_1895" data-name="Path 1895" d="M992.548,608.423a27.809,27.809,0,0,1,7.944-2.908,27.948,27.948,0,1,1-3.782,53.748l.614-1.731a26.115,26.115,0,1,0-16.891-19.452q.157.782.362,1.553a26.333,26.333,0,0,0,.874,2.7l.022.059c.046.119.093.237.141.355q.131.323.27.641l-1.683.735a28.15,28.15,0,0,1-1.787-5.674h0A28,28,0,0,1,992.548,608.423Z" transform="translate(-956.545 -583.762)" fill="#bdd0fb"/>
            </g>
          </g>
          <g id="Group_1589" data-name="Group 1589" transform="translate(0 27.351)">
            <g id="Group_1588" data-name="Group 1588">
              <path id="Path_1896" data-name="Path 1896" d="M674.845,681.716a.515.515,0,0,0,.572.176l5.953-1.976a27.328,27.328,0,0,0,7.657,4.443l1.241,6.145a.516.516,0,0,0,.437.409l7.458,1a.515.515,0,0,0,.529-.279l2.81-5.6a27.322,27.322,0,0,0,8.555-2.278l5.226,3.47a.516.516,0,0,0,.6-.02l5.978-4.569a.515.515,0,0,0,.176-.572l-1.976-5.953a27.333,27.333,0,0,0,4.444-7.657l6.145-1.241a.515.515,0,0,0,.409-.437l1-7.458a.516.516,0,0,0-.28-.529l-5.6-2.81a27.336,27.336,0,0,0-2.278-8.555l3.47-5.226a.516.516,0,0,0-.02-.6l-4.569-5.978a.515.515,0,0,0-.572-.176l-5.953,1.977a27.312,27.312,0,0,0-7.657-4.443l-1.241-6.145a.515.515,0,0,0-.437-.409l-7.458-1a.516.516,0,0,0-.529.28l-2.81,5.6a27.317,27.317,0,0,0-8.555,2.278l-5.226-3.47a.515.515,0,0,0-.6.02l-5.978,4.569a.515.515,0,0,0-.176.572l1.976,5.953a27.333,27.333,0,0,0-4.444,7.657l-6.145,1.241a.516.516,0,0,0-.409.437l-1,7.458a.515.515,0,0,0,.28.529l5.6,2.81a27.331,27.331,0,0,0,2.278,8.555l-3.47,5.226a.515.515,0,0,0,.02.6Z" transform="translate(-665.56 -625.418)" fill="url(#linear-gradient-12)"/>
              <g id="Group_1587" data-name="Group 1587" transform="translate(25.375 25.375)">
                <path id="Path_1897" data-name="Path 1897" d="M756.461,709.889a7.873,7.873,0,1,1-5.977,4.84h0a7.9,7.9,0,0,1,5.977-4.84Zm2.259,13.172a5.488,5.488,0,1,0-2.968-.311A5.494,5.494,0,0,0,758.72,723.061Z" transform="translate(-749.918 -709.775)" fill="#bdd0fb"/>
              </g>
              <path id="Path_1898" data-name="Path 1898" d="M728.28,671.632a19.2,19.2,0,0,1,1.951-.236.021.021,0,0,0,.012,0,19.344,19.344,0,1,1-10.714,34.44l1.481-1.858a16.97,16.97,0,1,0-6.255-15.529h0a17.155,17.155,0,0,0-.112,3.423c0,.063.009.127.014.19l-2.369.188a19.491,19.491,0,0,1,.112-4.115c.014-.109.03-.217.046-.326A19.383,19.383,0,0,1,728.28,671.632Z" transform="translate(-698.19 -657.534)" fill="#bdd0fb"/>
            </g>
          </g>
          <g id="Group_1592" data-name="Group 1592" transform="translate(265.753 52.635)">
            <g id="Group_1591" data-name="Group 1591">
              <path id="Path_1899" data-name="Path 1899" d="M1567.815,774.919a.537.537,0,0,0,.624-.021l5.2-3.974a28.512,28.512,0,0,0,9.061,1.777l3.314,5.637a.538.538,0,0,0,.57.254l7.693-1.555a.537.537,0,0,0,.427-.455l.865-6.482a28.5,28.5,0,0,0,7.661-5.156l6.333,1.644a.538.538,0,0,0,.583-.223l4.34-6.539a.537.537,0,0,0-.021-.624l-3.974-5.2a28.488,28.488,0,0,0,1.778-9.062l5.637-3.314a.538.538,0,0,0,.255-.57l-1.555-7.693a.537.537,0,0,0-.456-.426l-6.481-.865a28.5,28.5,0,0,0-5.156-7.661l1.644-6.333a.538.538,0,0,0-.223-.583l-6.538-4.341a.539.539,0,0,0-.624.021l-5.2,3.974a28.494,28.494,0,0,0-9.062-1.777l-3.314-5.637a.538.538,0,0,0-.57-.254l-7.693,1.554a.537.537,0,0,0-.426.456l-.865,6.481a28.5,28.5,0,0,0-7.661,5.156l-6.333-1.644a.537.537,0,0,0-.583.223l-4.341,6.539a.538.538,0,0,0,.021.624l3.974,5.2a28.506,28.506,0,0,0-1.777,9.061l-5.637,3.314a.537.537,0,0,0-.255.57l1.554,7.693a.538.538,0,0,0,.456.426l6.481.865a28.5,28.5,0,0,0,5.156,7.661L1561.053,770a.538.538,0,0,0,.223.583Z" transform="translate(-1549.039 -709.475)" fill="url(#linear-gradient-13)"/>
              <g id="Group_1590" data-name="Group 1590" transform="translate(26.356 26.356)">
                <path id="Path_1900" data-name="Path 1900" d="M1640.917,798.1a8.212,8.212,0,1,1-4.248,6.805h0a8.157,8.157,0,0,1,2.68-5.682A8.248,8.248,0,0,1,1640.917,798.1Zm6.708,12.219a5.725,5.725,0,1,0-3.031.7A5.731,5.731,0,0,0,1647.625,810.324Z" transform="translate(-1636.66 -797.095)" fill="#bdd0fb"/>
              </g>
              <path id="Path_1901" data-name="Path 1901" d="M1607.656,759.364a20.047,20.047,0,0,1,1.843-.9.025.025,0,0,0,.011,0,20.177,20.177,0,1,1,1.149,37.6l.828-2.336a17.7,17.7,0,1,0-11.449-13.185h0a17.888,17.888,0,0,0,1.053,3.413l.079.183-2.272.991a20.31,20.31,0,0,1-1.289-4.1c-.023-.113-.045-.224-.065-.337A20.219,20.219,0,0,1,1607.656,759.364Z" transform="translate(-1582.719 -742.609)" fill="#bdd0fb"/>
            </g>
          </g>
        </g>
        <g id="Group_1598" data-name="Group 1598" transform="translate(143.967 83.782)">
          <path id="Path_1902" data-name="Path 1902" d="M1662,992.843s6.047,2.941,7.159,6.32c.892,2.711,7.578,3.06,8.239,8.392a6.118,6.118,0,0,0,5.12,5.378c6.829,1.047,17.353,4.593,19.037,16.449,1.285,9.05-3.328,12.482-8.17,13.67a6.858,6.858,0,0,0-5.2,7.921c.69,3.444-.339,7.425-6.3,10.573-13.369,7.054-26.72-16.712-26.72-16.712l-2.736-41.5Z" transform="translate(-1499.541 -938.752)" fill="url(#linear-gradient-14)"/>
          <path id="Path_1903" data-name="Path 1903" d="M1553.661,951.393s9.8,26.718,26.5,35.068c0,0-5.558,9.069-8.459,9.619,0,0-17.839-22.833-19.658-41.539Z" transform="translate(-1429.354 -909.77)" fill="url(#linear-gradient-15)"/>
          <path id="Path_1904" data-name="Path 1904" d="M1780.668,1482.072l.493,4.052a1.674,1.674,0,0,0,1.468,1.464,25.883,25.883,0,0,0,5.423.085,1.433,1.433,0,0,0,1.2-1.859,14.764,14.764,0,0,0-2.718-5.294h-4.495A1.384,1.384,0,0,0,1780.668,1482.072Z" transform="translate(-1589.2 -1279.734)" fill="url(#linear-gradient-16)"/>
          <path id="Path_1905" data-name="Path 1905" d="M1655.8,1327.884l-.759,4.463s2.541,25.734,2.993,36.028a8.07,8.07,0,0,1-1.194,4.584l-4.418,7.174,11.228-6.625.223-1.37-1.838-2.527,2.407-28.828a8.842,8.842,0,0,0-1.006-4.892l-2.322-4.363Z" transform="translate(-1499.541 -1173.012)" fill="url(#linear-gradient-17)"/>
          <path id="Path_1906" data-name="Path 1906" d="M1647.767,1480.274h3.583a2.157,2.157,0,0,0,1.712-.839c1.117-1.451,3.431-4.283,4.537-4.357,1.49-.1,1.3,5.2,1.3,5.2h.835l1.058-6.581a3.9,3.9,0,0,0-2.044-4.072h0a5.507,5.507,0,0,1-2.187,3.632c-1.846,1.114-7.514,5.1-7.514,5.1a5.113,5.113,0,0,0-1.456.039A.948.948,0,0,0,1647.767,1480.274Z" transform="translate(-1495.621 -1272.114)" fill="url(#linear-gradient-18)"/>
          <path id="Path_1907" data-name="Path 1907" d="M1714.778,1330.62s14.883,28.233,17.249,34.678a61.88,61.88,0,0,1,3.226,12.332c.05.8,1.039,1.559,3.767,1.559a2.618,2.618,0,0,0,2.435-1.111,1.59,1.59,0,0,0,.06-1.54c-.861-1.742-3.593-7.31-4.6-9.836-1.208-3.015-3.807-16.68-5.232-21.431s-3.036-9.9-9.243-14.652C1722.437,1330.62,1718.176,1326.447,1714.778,1330.62Z" transform="translate(-1543.137 -1173.628)" fill="url(#linear-gradient-19)"/>
          <path id="Path_1908" data-name="Path 1908" d="M1634.848,1102.016c-3.839-16.268,5.887-25.47,5.887-25.47-6.137-5.891-17.318-8.571-17.318-8.571s-10.669,7.8-9.4,13.906c.742,3.579,7.5,21.434,7.5,21.434A14.847,14.847,0,0,0,1634.848,1102.016Z" transform="translate(-1472.609 -991.284)" fill="url(#linear-gradient-20)"/>
          <path id="Path_1909" data-name="Path 1909" d="M1659.235,1189.2c-1.562-4.707-8.512-8.054-8.512-8.054a14.847,14.847,0,0,1-13.335,1.3,26.748,26.748,0,0,0-.434,10.334c.967,4.978,7.036,36.97,7.036,36.97,9.562,1.938,24.268-1.949,24.268-1.949C1662.166,1216.982,1660.8,1193.9,1659.235,1189.2Z" transform="translate(-1488.484 -1070.409)" fill="url(#linear-gradient-21)"/>
          <path id="Path_1910" data-name="Path 1910" d="M1654.684,1029.127l3.121,14.021c.3,1.235-.827,1.033-2.076.8-2.045-.385-4.68-1.179-5.561-2.77a1.516,1.516,0,0,1-.16-.529l-1.341-9.722a1.746,1.746,0,0,1,1.022-1.836l2.588-1.147A1.747,1.747,0,0,1,1654.684,1029.127Z" transform="translate(-1496.901 -963.187)" fill="url(#linear-gradient-22)"/>
          <path id="Path_1911" data-name="Path 1911" d="M1639.318,987.341s-3.7,1.561-6.21,6.9-.636,7.808,1.721,8.147a11.036,11.036,0,0,0,9.614-3.164C1648.172,995.776,1644.124,985.49,1639.318,987.341Z" transform="translate(-1485.198 -934.75)" fill="url(#linear-gradient-23)"/>
          <path id="Path_1912" data-name="Path 1912" d="M1650.036,985.307s2.789-7.816-4.14-7.908l-1.631,1.14s-2.542-4.333,1.631-6.4,9.057-.36,10.832,5.262,2.079,9.385-.875,12.075-4.172-.36-4.172-.36,1.609-2.516.954-3.862-2.165.279-2.165.279Z" transform="translate(-1493.298 -923.682)" fill="url(#linear-gradient-24)"/>
          <path id="Path_1913" data-name="Path 1913" d="M1665.188,1015.98s1.41-4.026,3.291-2.422-1.529,3.719-2.864,4.4Z" transform="translate(-1508.464 -952.972)" fill="url(#linear-gradient-25)"/>
          <g id="Group_1594" data-name="Group 1594" transform="translate(118.168 35.753)">
            <path id="Path_1914" data-name="Path 1914" d="M1542.209,942.613c-.15.475,1.582,1.2,2.6-.745.036-.932.6-4.924.045-5.683-2.965-4.043-6.1-4.3-6.1-4.3a13.5,13.5,0,0,0-1.629,3.219,3.909,3.909,0,0,0,.39,2.877c.489.882,1.157,2.029,1.789,2.926A3.859,3.859,0,0,0,1542.209,942.613Z" transform="translate(-1537.011 -931.88)" fill="url(#linear-gradient-26)"/>
          </g>
          <path id="Path_1915" data-name="Path 1915" d="M1591.024,1080.876s-28.552,34.864-49.884-4.833a4.907,4.907,0,0,1-.153-2.48,23.684,23.684,0,0,0-.629-4.7.739.739,0,0,1,.657-.88h0a1.01,1.01,0,0,1,.892.382l3.9,4.962a2.08,2.08,0,0,1-1.1,2.469h0a1.026,1.026,0,0,0-.38,1.55c16.223,21.265,43.357-2.07,43.853-1.8C1589.935,1076.518,1591.97,1077.593,1591.024,1080.876Z" transform="translate(-1421.173 -991.284)" fill="url(#linear-gradient-27)"/>
          <g id="Group_1597" data-name="Group 1597">
            <g id="Group_1596" data-name="Group 1596">
              <path id="Path_1916" data-name="Path 1916" d="M1168.729,825.237a.981.981,0,0,0-.462,1.041l2.39,11.7a52.013,52.013,0,0,0-10.127,13.466l-11.893.957a.981.981,0,0,0-.871.733L1144.2,867a.981.981,0,0,0,.409,1.063l9.955,6.577a52,52,0,0,0,2.373,16.682l-7.738,9.092a.981.981,0,0,0-.1,1.135l7.284,12.33a.981.981,0,0,0,1.041.462l11.7-2.391a52,52,0,0,0,13.466,10.127l.957,11.893a.98.98,0,0,0,.733.871l13.87,3.567a.98.98,0,0,0,1.062-.409l6.577-9.955a52.007,52.007,0,0,0,16.682-2.373l9.092,7.738a.981.981,0,0,0,1.135.1l12.329-7.285a.981.981,0,0,0,.462-1.041l-2.391-11.7a52,52,0,0,0,10.127-13.466l11.893-.957a.981.981,0,0,0,.871-.733l3.567-13.87a.981.981,0,0,0-.409-1.063l-9.955-6.577a52.006,52.006,0,0,0-2.372-16.682l7.738-9.092a.98.98,0,0,0,.1-1.135l-7.284-12.33a.981.981,0,0,0-1.041-.462l-11.7,2.39a52.006,52.006,0,0,0-13.466-10.127l-.957-11.893a.981.981,0,0,0-.734-.871l-13.869-3.567a.981.981,0,0,0-1.063.409l-6.577,9.955a52,52,0,0,0-16.681,2.372l-9.092-7.738a.982.982,0,0,0-1.135-.1Z" transform="translate(-1144.168 -813.02)" fill="url(#linear-gradient-28)"/>
              <g id="Group_1595" data-name="Group 1595" transform="translate(49.078 49.07)">
                <path id="Path_1917" data-name="Path 1917" d="M1320.933,1003.422a13.632,13.632,0,1,1,11.994-7.107A13.55,13.55,0,0,1,1320.933,1003.422Zm.039-25.435a11.817,11.817,0,1,0,5.63,1.445h0A11.736,11.736,0,0,0,1320.972,977.987Z" transform="translate(-1307.324 -976.15)" fill="#bdd0fb"/>
              </g>
              <path id="Path_1918" data-name="Path 1918" d="M1270.589,975.472a35.482,35.482,0,0,1-24.943-60.7l1.29,1.307a33.644,33.644,0,1,0,32.037-8.658h0a33.892,33.892,0,0,0-6.584-1.019h-.015c-.162-.009-.325-.016-.487-.023l.072-1.835a35.756,35.756,0,0,1,7.471,1.1q1.242.32,2.44.721a35.476,35.476,0,0,1-11.282,69.112Z" transform="translate(-1207.752 -877.011)" fill="#bdd0fb"/>
            </g>
          </g>
        </g>
      </g>
      <g id="Group_1602" data-name="Group 1602" transform="translate(617.225 339.674)">
        <g id="Group_1600" data-name="Group 1600">
          <path id="Path_1919" data-name="Path 1919" d="M1758.168,614.18l-80.585-.449a4.23,4.23,0,0,0-3.65,6.407l.4.674a4.23,4.23,0,0,0,3.626,2.052h80.181a4.23,4.23,0,0,0,4.23-4.23v-.225A4.23,4.23,0,0,0,1758.168,614.18Z" transform="translate(-1673.323 -613.731)" fill="#91b3fa"/>
          <path id="Path_1920" data-name="Path 1920" d="M1992.808,619.766v.131a4.23,4.23,0,0,0,4.23,4.23h17.889a4.23,4.23,0,0,0,4.087-3.138h0a4.23,4.23,0,0,0-4.056-5.322l-17.889-.131A4.23,4.23,0,0,0,1992.808,619.766Z" transform="translate(-1896.706 -614.993)" fill="#91b3fa"/>
        </g>
        <g id="Group_1601" data-name="Group 1601" transform="translate(0 15.184)">
          <path id="Path_1921" data-name="Path 1921" d="M1738.783,664.658l-61.2-.449a4.23,4.23,0,0,0-3.65,6.407l.4.674a4.23,4.23,0,0,0,3.626,2.053h60.8a4.23,4.23,0,0,0,4.23-4.23v-.225A4.23,4.23,0,0,0,1738.783,664.658Z" transform="translate(-1673.323 -664.209)" fill="#91b3fa"/>
          <path id="Path_1922" data-name="Path 1922" d="M1928.365,670.244v.131a4.23,4.23,0,0,0,4.23,4.23h17.889a4.23,4.23,0,0,0,4.087-3.138h0a4.23,4.23,0,0,0-4.056-5.322l-17.889-.131A4.23,4.23,0,0,0,1928.365,670.244Z" transform="translate(-1851.648 -665.471)" fill="#91b3fa"/>
        </g>
      </g>
      <g id="Group_1605" data-name="Group 1605" transform="translate(230.811 419.192)">
        <g id="Group_1603" data-name="Group 1603">
          <path id="Path_1923" data-name="Path 1923" d="M473.56,878.533l-80.585-.449a4.23,4.23,0,0,0-3.65,6.407l.4.674a4.23,4.23,0,0,0,3.626,2.053h80.181a4.23,4.23,0,0,0,4.23-4.23v-.225A4.23,4.23,0,0,0,473.56,878.533Z" transform="translate(-388.715 -878.084)" fill="#91b3fa"/>
          <path id="Path_1924" data-name="Path 1924" d="M708.2,884.119v.131a4.23,4.23,0,0,0,4.23,4.23h17.889a4.23,4.23,0,0,0,4.087-3.138h0a4.23,4.23,0,0,0-4.056-5.322l-17.889-.131A4.23,4.23,0,0,0,708.2,884.119Z" transform="translate(-612.098 -879.346)" fill="#91b3fa"/>
        </g>
        <g id="Group_1604" data-name="Group 1604" transform="translate(0 15.184)">
          <path id="Path_1925" data-name="Path 1925" d="M454.175,929.012l-61.2-.449a4.23,4.23,0,0,0-3.65,6.407l.4.674a4.23,4.23,0,0,0,3.626,2.052h60.8a4.23,4.23,0,0,0,4.23-4.23v-.225A4.23,4.23,0,0,0,454.175,929.012Z" transform="translate(-388.715 -928.563)" fill="#91b3fa"/>
          <path id="Path_1926" data-name="Path 1926" d="M643.757,934.6v.131a4.23,4.23,0,0,0,4.23,4.23h17.889a4.23,4.23,0,0,0,4.087-3.138h0a4.23,4.23,0,0,0-4.056-5.322l-17.889-.131A4.23,4.23,0,0,0,643.757,934.6Z" transform="translate(-567.039 -929.824)" fill="#91b3fa"/>
        </g>
      </g>
      <g id="Group_1612" data-name="Group 1612" transform="translate(332.54 391.401)">
        <g id="Group_1611" data-name="Group 1611">
          <g id="Group_1606" data-name="Group 1606" transform="translate(0 61.939)">
            <path id="Path_1927" data-name="Path 1927" d="M728.64,1151.162a1.734,1.734,0,0,1-1.538-2.531l78.349-151.113a1.733,1.733,0,1,1,3.077,1.6L730.18,1150.226A1.729,1.729,0,0,1,728.64,1151.162Z" transform="translate(-726.908 -995.086)" fill="url(#linear-gradient-29)"/>
            <path id="Path_1928" data-name="Path 1928" d="M852.206,1148.944a1.734,1.734,0,0,1-1.589-2.425l66.968-153.871a1.733,1.733,0,0,1,3.179,1.384L853.8,1147.9A1.734,1.734,0,0,1,852.206,1148.944Z" transform="translate(-813.304 -991.607)" fill="url(#linear-gradient-30)"/>
            <path id="Path_1929" data-name="Path 1929" d="M971.144,1092.006H943.981a1.083,1.083,0,0,1,0-2.167h27.163a1.083,1.083,0,1,1,0,2.167Z" transform="translate(-877.928 -1060.291)" fill="url(#linear-gradient-31)"/>
            <path id="Path_1930" data-name="Path 1930" d="M947.014,1147.948H919.85a1.083,1.083,0,0,1,0-2.167h27.164a1.083,1.083,0,0,1,0,2.167Z" transform="translate(-861.055 -1099.405)" fill="url(#linear-gradient-32)"/>
            <path id="Path_1931" data-name="Path 1931" d="M911.169,1214.934H882.277a1.083,1.083,0,1,1,0-2.166h28.892a1.083,1.083,0,1,1,0,2.166Z" transform="translate(-834.784 -1146.242)" fill="url(#linear-gradient-33)"/>
            <path id="Path_1932" data-name="Path 1932" d="M998.041,1037.744H972.125a1.083,1.083,0,0,1,0-2.167h25.915a1.083,1.083,0,1,1,0,2.167Z" transform="translate(-897.606 -1022.351)" fill="url(#linear-gradient-34)"/>
            <path id="Path_1933" data-name="Path 1933" d="M873.663,1292H842.269a1.083,1.083,0,0,1,0-2.167h31.394a1.083,1.083,0,0,1,0,2.167Z" transform="translate(-806.811 -1200.129)" fill="url(#linear-gradient-35)"/>
            <path id="Path_1934" data-name="Path 1934" d="M843.843,1351.788H810.17a1.083,1.083,0,1,1,0-2.167h33.673a1.083,1.083,0,1,1,0,2.167Z" transform="translate(-784.367 -1241.929)" fill="url(#linear-gradient-36)"/>
          </g>
          <g id="Group_1607" data-name="Group 1607" transform="translate(35.523 144.498)">
            <path id="Path_1935" data-name="Path 1935" d="M862.469,1271.5c-3.467-3.019-10.918-5.436-10.918-5.436l-4.483.1c-1.138,1.28-1.652,3.76-1.872,5.315.844.506,2.426.949,5.326,1.087A43.619,43.619,0,0,0,862.469,1271.5Z" transform="translate(-845.139 -1266.068)" fill="url(#linear-gradient-37)"/>
            <path id="Path_1936" data-name="Path 1936" d="M862.334,1284.086a43.614,43.614,0,0,1-11.946,1.063c-2.9-.138-4.482-.581-5.326-1.087-.018.125-.034.246-.048.358a1.322,1.322,0,0,0,.929,1.425c4.095,1.255,13.1.851,16.613.634a.924.924,0,0,0,.662-1.506A7.911,7.911,0,0,0,862.334,1284.086Z" transform="translate(-845.003 -1278.65)" fill="url(#linear-gradient-38)"/>
          </g>
          <path id="Path_1937" data-name="Path 1937" d="M852.636,1253.528v3.565a1.455,1.455,0,0,0,1.149,1.423,5.676,5.676,0,0,0,2.511.024,1.391,1.391,0,0,0,1.036-1.192l.45-3.82Z" transform="translate(-814.817 -1112.802)" fill="url(#linear-gradient-39)"/>
          <g id="Group_1608" data-name="Group 1608" transform="translate(55.769 115.298)">
            <path id="Path_1938" data-name="Path 1938" d="M917.026,1183c-1.391-3.1-.993-4.488-3.746-4.18a3.736,3.736,0,0,0-.838.184,2.475,2.475,0,0,0,0,1.613,30.635,30.635,0,0,0,4.82,8.793,3.026,3.026,0,0,0,2.322,1.133l3.036.051A19.379,19.379,0,0,1,917.026,1183Z" transform="translate(-912.309 -1175.833)" fill="url(#linear-gradient-40)"/>
            <path id="Path_1939" data-name="Path 1939" d="M923.126,1179.164c-2.33-1.64-3.2-8.339-3.2-8.339L916.336,1169l-2.708,1.962a2.492,2.492,0,0,0-.874,1.2,3.723,3.723,0,0,1,.838-.184c2.753-.308,2.355,1.084,3.746,4.18a19.381,19.381,0,0,0,5.6,7.594l2.086.035a1.121,1.121,0,0,0,.911-1.8A13.539,13.539,0,0,0,923.126,1179.164Z" transform="translate(-912.621 -1168.997)" fill="url(#linear-gradient-41)"/>
          </g>
          <path id="Path_1940" data-name="Path 1940" d="M926.464,1157.786l-2.168,3.372a.981.981,0,0,0,.217,1.3,3.221,3.221,0,0,0,3.373.525l3.483-2.387Z" transform="translate(-864.811 -1045.86)" fill="url(#linear-gradient-42)"/>
          <path id="Path_1941" data-name="Path 1941" d="M858.037,1039.463s-1.14,3.213-2.794,14.5-2.742,19.5-3.644,23.978a196.536,196.536,0,0,0-2.048,25.289,1.545,1.545,0,0,0,1.592,1.529l4.266-.133a1.382,1.382,0,0,0,1.322-1.15c1.129-6.639,8.933-40.9,13.638-50.753,0,0,12.519,3.539,15.64,4.962,0,0-4.035,1.616-12.3,17.119,0,0,3.571,2.838,6.1,3.429,0,0,18.1-15.009,20.008-16.58s3.653-4.277-1.226-9.207-19.852-12.7-19.852-12.7Z" transform="translate(-812.657 -963.129)" fill="url(#linear-gradient-43)"/>
          <path id="Path_1942" data-name="Path 1942" d="M898.489,1068.53a.215.215,0,0,1-.093-.021l-4.465-1.721a5.607,5.607,0,0,1-3.177-5.006.217.217,0,0,1,.216-.218.206.206,0,0,1,.217.216,5.173,5.173,0,0,0,2.93,4.617l4.464,1.72a.217.217,0,0,1-.093.412Z" transform="translate(-841.469 -978.582)" fill="url(#linear-gradient-44)"/>
          <path id="Path_1943" data-name="Path 1943" d="M967.949,924.712s5.518,21.819,12.992,30.591a10.464,10.464,0,0,1-5.03,2.974s-11.473-10.056-14.967-17.044S967.949,924.712,967.949,924.712Z" transform="translate(-890.047 -882.895)" fill="url(#linear-gradient-45)"/>
          <path id="Path_1944" data-name="Path 1944" d="M949.839,841.752l-6.693,14.213h10.561s.849-6.5,3.627-10.408Z" transform="translate(-878.102 -824.89)" fill="url(#linear-gradient-46)"/>
          <path id="Path_1945" data-name="Path 1945" d="M894.652,855.229s2.445-4.018,18.43-3.033c8.31.512,27-6.729,31.161-10.373a7.788,7.788,0,0,1,5.214,2.6s-17.263,18.218-37.389,20.546c0,0-15.274,31.478-15.166,36.586a25.138,25.138,0,0,1-21.367,1.729s-.377-8.75,4.424-20.836A135.682,135.682,0,0,1,894.652,855.229Z" transform="translate(-830.823 -824.94)" fill="url(#linear-gradient-47)"/>
          <path id="Path_1946" data-name="Path 1946" d="M962.7,919.705a.217.217,0,0,1-.017-.433c.077-.006,7.751-.63,8.948-.765a.217.217,0,1,1,.049.431c-1.2.136-8.884.76-8.961.766Z" transform="translate(-891.618 -878.556)" fill="url(#linear-gradient-48)"/>
          <g id="Group_1610" data-name="Group 1610" transform="translate(67.127)">
            <g id="Group_1609" data-name="Group 1609">
              <path id="Path_1947" data-name="Path 1947" d="M975.637,805.34c.11.2,2.482,15.033,2.482,15.033l-8.5,1.175-4.338-13.725S973.8,802.008,975.637,805.34Z" transform="translate(-960.706 -798.71)" fill="url(#linear-gradient-49)"/>
              <path id="Path_1948" data-name="Path 1948" d="M957.533,797.142l1.718,7.4a1.064,1.064,0,0,0,.1.27c.287.523,1.407,2.25,3.1,1,1.54-1.137,2.962-2.152,4.179-2.228a1.061,1.061,0,0,1,1.116.891,45.88,45.88,0,0,1,.613,7.1,1.059,1.059,0,0,1-.983,1.039,34.219,34.219,0,0,1-7.966-.227,1.062,1.062,0,0,1-.821-.712c-.595-1.808-2.423-7.3-3.169-8.749-.7-1.362-2.769-1.557-3.643-1.577a1.043,1.043,0,0,1-.749-.341,2.752,2.752,0,0,1,.32-4.407,1.063,1.063,0,0,0,.146-1.524,2.757,2.757,0,0,1,.1-4.111,3.889,3.889,0,0,1,4.737-.587,1.063,1.063,0,0,0,1.323-.327.84.84,0,0,1,.906-.306,1.046,1.046,0,0,0,1.228-.942,3.17,3.17,0,0,1,2.8-3.015c3.736-.72,5.6,3.02,5.528,5.647s-4.162,3.177-6.485,2.74c-1.766-.333-3.286,1.284-3.913,2.078A1.052,1.052,0,0,0,957.533,797.142Z" transform="translate(-950.067 -785.695)" fill="url(#linear-gradient-50)"/>
              <path id="Path_1949" data-name="Path 1949" d="M958.944,840.071s-.078-4.583-1.932-5.014-3.857.908-2.272,3.653C956.711,842.124,958.944,840.071,958.944,840.071Z" transform="translate(-952.933 -820.153)" fill="url(#linear-gradient-51)"/>
            </g>
            <path id="Path_1950" data-name="Path 1950" d="M1000.342,795.558a.229.229,0,0,1-.166-.388,2.541,2.541,0,0,0,.58-1.761,4.82,4.82,0,0,0-1.976-3.224.229.229,0,1,1,.3-.348,5.231,5.231,0,0,1,2.136,3.56,2.953,2.953,0,0,1-.708,2.09A.229.229,0,0,1,1000.342,795.558Z" transform="translate(-984.071 -788.553)" fill="#bdd0fb"/>
          </g>
          <path id="Path_1951" data-name="Path 1951" d="M1103.969,818.717s2.625-7.23,3.135-6.955.816,1.857.816,1.857,6.224-1.885,6.683-2.7,3.083-2.642,3.1-2.01-1.568,5.988-3.608,7.62-5.132,4.57-5.132,4.57Z" transform="translate(-990.548 -801.833)" fill="url(#linear-gradient-52)"/>
        </g>
        <path id="Path_1952" data-name="Path 1952" d="M1012.357,1029.385s4.7-3.56,6.842-2.891a8.866,8.866,0,0,1,3.718,2.673h-4.729s-1.127,2.167,0,2.167h1.669S1015.445,1035.96,1012.357,1029.385Z" transform="translate(-926.493 -954.003)" fill="url(#linear-gradient-53)"/>
      </g>
      <g id="Group_1617" data-name="Group 1617" transform="translate(265.075 441.159)">
        <path id="Path_1953" data-name="Path 1953" d="M617.637,1468.134s-.573,3.245-.854,6.457a2.213,2.213,0,0,0,2.117,2.4c4.278.178,13.428.525,16.711.378a.72.72,0,0,0,.634-.986h0a1.613,1.613,0,0,0-.824-.869l-15.114-6.947Z" transform="translate(-582.437 -1312.613)" fill="url(#linear-gradient-54)"/>
        <path id="Path_1954" data-name="Path 1954" d="M618.081,1460.4l.46,3.881s2.648,1.232,4.456-.155l-1.1-4.325Z" transform="translate(-583.351 -1306.788)" fill="url(#linear-gradient-55)"/>
        <path id="Path_1955" data-name="Path 1955" d="M591.329,1219.2c-.2,1.014-1.068,50.582,4.231,72.8a.753.753,0,0,1-.442.877,13.117,13.117,0,0,1-4.315.877,1.3,1.3,0,0,1-1.288-.932c-1.515-5.154-8.772-30.976-9.719-55.643-1.058-27.563,0-.938,0-.938l.621-17.038Z" transform="translate(-556.253 -1138.555)" fill="url(#linear-gradient-56)"/>
        <path id="Path_1956" data-name="Path 1956" d="M557.6,1473.762a23.341,23.341,0,0,0-1.8,5.991,1.35,1.35,0,0,0,1.188,1.617c1.413.139,3.587.318,5.329.306a1.346,1.346,0,0,0,1.333-1.5,11.354,11.354,0,0,0-2.651-6.228Z" transform="translate(-539.789 -1316.548)" fill="url(#linear-gradient-57)"/>
        <path id="Path_1957" data-name="Path 1957" d="M559.176,1456.635l1.076,5.87a3.8,3.8,0,0,0,3.169.217l-.513-6.315Z" transform="translate(-542.165 -1304.413)" fill="url(#linear-gradient-58)"/>
        <path id="Path_1958" data-name="Path 1958" d="M545.634,1217.881c-4.333,26.153.94,64.639,2.719,72.172a1.175,1.175,0,0,0,.948.892,7.882,7.882,0,0,0,3.389-.135,1.076,1.076,0,0,0,.774-.991c.239-6.09-.191-43.476,3.847-58.251a3.358,3.358,0,0,1,1.295-1.851l7.837-5.572.6-9.006Z" transform="translate(-531.53 -1135.719)" fill="url(#linear-gradient-59)"/>
        <g id="Group_1613" data-name="Group 1613" transform="translate(12.486 12.495)">
          <path id="Path_1959" data-name="Path 1959" d="M573.364,1054.583c-12.987-.214-27.316,3.41-27.316,3.41-3.871,22.587-.677,48.64-.677,48.64,10.054,2.637,21.4-1.612,21.4-1.612,1.671-9.441,9.468-36.011,9.468-36.011a42.787,42.787,0,0,0,15.877-5.039,27.841,27.841,0,0,1-5.5-11.511A43.581,43.581,0,0,1,573.364,1054.583Z" transform="translate(-544.133 -1034.47)" fill="url(#linear-gradient-60)"/>
          <path id="Path_1960" data-name="Path 1960" d="M710.454,993.638a2.485,2.485,0,0,0-2.89-.812c-1.911,8.073-11.932,14.618-22.226,17.818a27.841,27.841,0,0,0,5.5,11.511C707.926,1012.549,710.454,993.638,710.454,993.638Z" transform="translate(-642.862 -992.653)" fill="url(#linear-gradient-61)"/>
        </g>
        <g id="Group_1614" data-name="Group 1614" transform="translate(77.187)">
          <path id="Path_1961" data-name="Path 1961" d="M761.808,964.985c.134.424-1.412,1.071-2.323-.665-.032-.832-.538-4.4-.041-5.073a66.384,66.384,0,0,1,7.78-8.133,1.221,1.221,0,0,1,.153,1.7l-2.49,2.594a12.039,12.039,0,0,1,1.454,2.874,3.489,3.489,0,0,1-.348,2.568c-.437.787-1.034,1.811-1.6,2.612A3.445,3.445,0,0,1,761.808,964.985Z" transform="translate(-759.227 -951.113)" fill="url(#linear-gradient-62)"/>
          <path id="Path_1962" data-name="Path 1962" d="M767.494,970.972l-2.269,1.923-.712,1.915,2.023,2.244a26.092,26.092,0,0,1,1.186-4.622C768.227,971.61,767.965,971.212,767.494,970.972Z" transform="translate(-762.923 -964.998)" fill="url(#linear-gradient-63)"/>
        </g>
        <path id="Path_1963" data-name="Path 1963" d="M522.648,1083.428l-4.981-12.575s-12.13,8.242-14.125,18.692a28.7,28.7,0,0,1,10.545,2.826C514.984,1087.437,522.648,1083.428,522.648,1083.428Z" transform="translate(-503.266 -1034.835)" fill="url(#linear-gradient-64)"/>
        <path id="Path_1964" data-name="Path 1964" d="M532.606,1138.709s-13.619,7.7-18.214,1.125a5.165,5.165,0,0,1-.948-4.014,28.7,28.7,0,0,0-10.545-2.826,14.424,14.424,0,0,0,1.568,9.887c8.049,14.725,29.941-.814,29.941-.814Z" transform="translate(-502.623 -1078.283)" fill="url(#linear-gradient-65)"/>
        <g id="Group_1615" data-name="Group 1615" transform="translate(28.317 39.528)">
          <path id="Path_1965" data-name="Path 1965" d="M596.791,1119.016l7.433-25.957a.757.757,0,0,1,.64-.545c1.346-.157,5.249-.6,9.754-.979a110.691,110.691,0,0,1,15.5-.515.76.76,0,0,1,.621,1.093c-2.142,4.333-10.951,21.957-15.362,27.731a.762.762,0,0,1-.613.3l-17.246-.161A.76.76,0,0,1,596.791,1119.016Z" transform="translate(-596.761 -1088.381)" fill="url(#linear-gradient-66)"/>
          <path id="Path_1966" data-name="Path 1966" d="M657.17,1083.423l5.389-.9a.387.387,0,0,1,.431.5l-.533,1.616a.387.387,0,0,1-.316.262l-5.186.693a.387.387,0,0,1-.428-.472l.33-1.411A.387.387,0,0,1,657.17,1083.423Z" transform="translate(-638.542 -1082.52)" fill="url(#linear-gradient-67)"/>
          <path id="Path_1967" data-name="Path 1967" d="M645.252,1091.739l.444-2.312a.535.535,0,0,1,.471-.431l10.885-1.1a.535.535,0,0,1,.574.657l-.692,2.881a.535.535,0,0,1-.493.409l-10.636.535A.535.535,0,0,1,645.252,1091.739Z" transform="translate(-630.659 -1086.274)" fill="url(#linear-gradient-68)"/>
          <path id="Path_1968" data-name="Path 1968" d="M601.164,1142.945s-1.035-4.258-.618-5.768,1.227-3.452,3.924-3.021a39.468,39.468,0,0,1,5.879,1.568,1.544,1.544,0,0,1-2.211,1.333l1.271.984s-.182,1.575-1.913.734l1.182,1.3a1.378,1.378,0,0,1-2.018.464C605.387,1139.713,604.777,1143.458,601.164,1142.945Z" transform="translate(-599.338 -1118.581)" fill="url(#linear-gradient-69)"/>
        </g>
        <path id="Path_1969" data-name="Path 1969" d="M587.918,1024.468l-4.132,11.95a.431.431,0,0,0,.2.519,9.714,9.714,0,0,0,10.075-.678,2.029,2.029,0,0,0,.934-1.448l1.338-10.343Z" transform="translate(-559.355 -1002.403)" fill="url(#linear-gradient-70)"/>
        <g id="Group_1616" data-name="Group 1616" transform="translate(20.721 4.789)">
          <path id="Path_1970" data-name="Path 1970" d="M602.85,987.679s4.538,8.542,3.956,11.992-6.205,3.2-11.116.4l-3.431-9.223Z" transform="translate(-586.017 -981.469)" fill="url(#linear-gradient-71)"/>
          <path id="Path_1971" data-name="Path 1971" d="M581.4,981.107a.352.352,0,0,0,.154-.515,9.188,9.188,0,0,1-1.263-2.68s-.816-.522,2.076-1.214,7.2-1.767,8.111-4.228c.884-2.4-1.438-8.435-5.143-3.626a.352.352,0,0,1-.558,0,3.629,3.629,0,0,0-4.421-1.437,3.33,3.33,0,0,0-2.28,3.217.35.35,0,0,1-.414.359,4.059,4.059,0,0,0-4.74,2.21c-.968,2.126-.339,3.33.234,3.919a.351.351,0,0,1-.15.583,2.113,2.113,0,0,0-1.49,2.41c.123,2.233,2.619,2.036,3.33,1.934a.354.354,0,0,1,.313.11c.609.675,3.355,3.538,6.326,3.883a.355.355,0,0,0,.372-.469l-1.286-3.738a.354.354,0,0,1,.191-.438Z" transform="translate(-571.508 -967.033)" fill="url(#linear-gradient-72)"/>
          <path id="Path_1972" data-name="Path 1972" d="M598.019,1013.031s-3.231-2.217-3.467-.35,2.909,2.7,4.467,2.008Z" transform="translate(-587.611 -998.427)" fill="url(#linear-gradient-73)"/>
        </g>
      </g>
      <g id="Group_1622" data-name="Group 1622" transform="translate(316.122 221.771)">
        <g id="Group_1620" data-name="Group 1620" transform="translate(264.291 0)">
          <path id="Path_1973" data-name="Path 1973" d="M1575.552,395.467a.428.428,0,0,1-.005-.855c.712-.009,1.424-.036,2.116-.078a.428.428,0,1,1,.053.854c-.706.044-1.432.071-2.158.08Zm-2.136-.021h-.014c-.705-.023-1.43-.061-2.154-.115a.427.427,0,0,1-.395-.458.422.422,0,0,1,.458-.395c.712.052,1.425.09,2.119.113a.428.428,0,0,1-.014.855Zm6.4-.248a.428.428,0,0,1-.049-.852c.708-.083,1.411-.186,2.091-.307a.428.428,0,1,1,.149.843c-.7.124-1.416.229-2.14.314A.418.418,0,0,1,1579.819,395.2Zm-10.67-.064a.372.372,0,0,1-.048,0c-.7-.079-1.423-.173-2.137-.279a.428.428,0,1,1,.126-.846c.7.1,1.412.2,2.106.276a.428.428,0,0,1-.047.853Zm-4.233-.627a.456.456,0,0,1-.078-.007c-.7-.128-1.408-.27-2.111-.421a.428.428,0,0,1,.18-.837c.695.15,1.4.29,2.086.416a.428.428,0,0,1-.077.849Zm19.111-.059a.428.428,0,0,1-.1-.843c.689-.169,1.372-.362,2.028-.573a.428.428,0,1,1,.262.814c-.676.217-1.378.416-2.087.59A.424.424,0,0,1,1584.027,394.447Zm-23.294-.841a.417.417,0,0,1-.1-.013c-.689-.17-1.39-.354-2.082-.547a.428.428,0,0,1,.229-.824c.684.191,1.377.373,2.058.541a.428.428,0,0,1-.1.843Zm27.361-.471a.428.428,0,0,1-.162-.824c.653-.267,1.3-.561,1.912-.873a.428.428,0,1,1,.387.763c-.636.323-1.3.627-1.975.9A.435.435,0,0,1,1588.094,393.134Zm-31.484-.678a.433.433,0,0,1-.127-.019c-.7-.217-1.386-.442-2.048-.671a.428.428,0,0,1,.279-.809c.653.226,1.333.448,2.022.662a.428.428,0,0,1-.127.837Zm35.29-1.258a.428.428,0,0,1-.226-.791c.592-.368,1.175-.767,1.732-1.185a.428.428,0,1,1,.515.684c-.577.434-1.181.847-1.795,1.228A.426.426,0,0,1,1591.9,391.2Zm-39.337-.146a.432.432,0,0,1-.156-.03c-.322-.126-.492-.2-.492-.2l-.972-.411.983-.382c.026-.01.078-.029.155-.055.232-.081.716-.25,1.363-.513a.428.428,0,1,1,.323.792c-.3.121-.56.222-.781.3a.422.422,0,0,1-.025.22A.429.429,0,0,1,1552.563,391.052Zm3-1.646a.428.428,0,0,1-.191-.811c.637-.316,1.259-.656,1.848-1.011a.428.428,0,1,1,.441.733c-.609.366-1.251.717-1.908,1.044A.424.424,0,0,1,1555.558,389.406Zm39.752-.774a.428.428,0,0,1-.287-.745c.516-.467,1.018-.963,1.492-1.475a.428.428,0,1,1,.628.581c-.491.531-1.011,1.045-1.546,1.528A.427.427,0,0,1,1595.31,388.632Zm-36.09-1.436a.428.428,0,0,1-.253-.773,19.515,19.515,0,0,0,1.622-1.322.428.428,0,1,1,.577.632,20.472,20.472,0,0,1-1.694,1.381A.426.426,0,0,1,1559.22,387.2Zm38.99-1.7a.428.428,0,0,1-.338-.69c.424-.545.834-1.121,1.219-1.711a.428.428,0,0,1,.717.468c-.4.609-.822,1.2-1.26,1.768A.427.427,0,0,1,1598.21,385.5Zm-35.845-1.192a.428.428,0,0,1-.326-.7,13.671,13.671,0,0,0,1.219-1.675.428.428,0,0,1,.729.448,14.6,14.6,0,0,1-1.295,1.78A.427.427,0,0,1,1562.365,384.309Zm38.183-2.378a.428.428,0,0,1-.375-.634c.332-.6.651-1.236.948-1.88a.428.428,0,0,1,.777.359c-.306.662-.634,1.313-.975,1.934A.427.427,0,0,1,1600.548,381.93Zm-35.969-1.257a.429.429,0,0,1-.4-.585q.044-.111.086-.223c.235-.632.489-1.23.756-1.777a.428.428,0,1,1,.769.375c-.255.522-.5,1.094-.723,1.7-.03.081-.061.16-.092.24A.428.428,0,0,1,1564.579,380.673Zm37.762-2.618a.428.428,0,0,1-.4-.582c.248-.644.484-1.314.7-1.992a.428.428,0,1,1,.815.26c-.222.694-.463,1.379-.717,2.039A.428.428,0,0,1,1602.341,378.055Zm-35.86-1.195a.428.428,0,0,1-.35-.673,9.725,9.725,0,0,1,1.469-1.678.428.428,0,0,1,.57.638,8.874,8.874,0,0,0-1.338,1.53A.427.427,0,0,1,1566.482,376.86Zm3.188-2.763a.428.428,0,0,1-.171-.82,6.546,6.546,0,0,1,1.276-.405c-.41-.088-.891-.183-1.438-.285a.428.428,0,0,1,.157-.841c.877.164,1.591.311,2.121.438a.428.428,0,0,1,.316.516.451.451,0,0,1-.024.072.428.428,0,0,1-.132.818,6.03,6.03,0,0,0-1.936.471A.424.424,0,0,1,1569.67,374.1Zm33.976-.109a.428.428,0,0,1-.414-.536q.11-.42.214-.849l-.547-.556a.428.428,0,1,1,.61-.6l.879.893-.054.23q-.132.558-.274,1.1A.428.428,0,0,1,1603.646,373.988Zm-36.342-1.767a.414.414,0,0,1-.072-.006c-.853-.144-1.616-.266-2.113-.344a.428.428,0,1,1,.133-.845l.41.065a.428.428,0,0,1,.115-.581,8.2,8.2,0,0,0,1.428-1.429.428.428,0,1,1,.652.553,9.044,9.044,0,0,1-1.565,1.558c.332.054.7.114,1.082.179a.428.428,0,0,1-.071.849Zm34.4-1.57a.426.426,0,0,1-.3-.128L1599.9,369a.428.428,0,0,1,.61-.6l1.5,1.524a.428.428,0,0,1-.305.728Zm-32.786-2.494a.428.428,0,0,1-.32-.711c.508-.574,1-1.087,1.5-1.568a.428.428,0,0,1,.592.618c-.486.465-.961.962-1.454,1.518A.428.428,0,0,1,1568.917,368.156Zm29.786-.554a.428.428,0,0,1-.3-.128l-1.5-1.524a.428.428,0,0,1,.61-.6l1.5,1.524a.428.428,0,0,1-.305.728Zm-26.7-2.395a.428.428,0,0,1-.267-.762c.553-.442,1.143-.872,1.755-1.281a.428.428,0,1,1,.475.711c-.592.4-1.162.812-1.7,1.238A.425.425,0,0,1,1572,365.207Zm23.7-.653a.426.426,0,0,1-.3-.128l-1.5-1.524a.424.424,0,0,1-.114-.214.431.431,0,0,1-.232-.139,9.81,9.81,0,0,0-1.726-.886.428.428,0,0,1,.332-.789c.2.084,1.947.828,2.114,1.233a.41.41,0,0,1,.024.077.427.427,0,0,1,.212.117l1.5,1.525a.428.428,0,0,1-.3.728Zm-20.152-1.725a.428.428,0,0,1-.211-.8c.418-.236.853-.469,1.295-.693q.318-.161.634-.307a.428.428,0,0,1,.359.777q-.3.139-.605.293c-.43.218-.854.445-1.261.675A.426.426,0,0,1,1575.551,362.829Zm3.887-1.761a.428.428,0,0,1-.131-.835,17.7,17.7,0,0,1,2.122-.542.428.428,0,1,1,.159.84,16.869,16.869,0,0,0-2.019.516A.433.433,0,0,1,1579.438,361.068Zm10.537-.082a.43.43,0,0,1-.119-.017,18.933,18.933,0,0,0-2.037-.469.428.428,0,0,1,.146-.843,19.668,19.668,0,0,1,2.13.491.428.428,0,0,1-.119.839Zm-6.346-.714a.428.428,0,0,1-.027-.855,18.25,18.25,0,0,1,2.188-.008.428.428,0,1,1-.047.854,17.567,17.567,0,0,0-2.086.008Z" transform="translate(-1550.943 -317.986)" fill="#fff"/>
          <path id="Path_1974" data-name="Path 1974" d="M1644.29,380.091s-10.428-5.137-15.025,2.112-7.435,15.7-11.373,16.605c0,0,21.928,5.99,28.935-15.5Z" transform="translate(-1597.754 -331.233)" fill="url(#linear-gradient-74)"/>
          <path id="Path_1975" data-name="Path 1975" d="M1652.886,292.157s-7.824-8.309-11.562-7.31c-3.555.95-22.929,18.049-24.811,19.715a.213.213,0,0,0-.026.29h0a2.923,2.923,0,0,0,2.381,1.164c4.516-.069,18-.392,22.042-1.8C1645.794,302.522,1652.886,292.157,1652.886,292.157Z" transform="translate(-1596.74 -265.815)" fill="url(#linear-gradient-75)"/>
          <path id="Path_1976" data-name="Path 1976" d="M1643.261,302.511a.214.214,0,0,1-.139-.377c.108-.092,10.88-9.273,15.67-13.043a2.693,2.693,0,0,1,2.926-.265,40.734,40.734,0,0,1,6.9,4.571.214.214,0,0,1-.277.326,40.286,40.286,0,0,0-6.827-4.52,2.264,2.264,0,0,0-2.461.224c-4.783,3.766-15.549,12.941-15.657,13.033A.211.211,0,0,1,1643.261,302.511Z" transform="translate(-1615.342 -268.436)" fill="#fff" opacity="0.6"/>
          <path id="Path_1977" data-name="Path 1977" d="M1737.706,379.712s5.841,9.8,3.855,13.124c-1.89,3.158-23.65,17.092-25.77,18.444a.213.213,0,0,1-.286-.054h0a2.924,2.924,0,0,1-.466-2.609c1.307-4.323,5.318-17.2,7.78-20.7C1725.792,383.685,1737.706,379.712,1737.706,379.712Z" transform="translate(-1665.591 -332.203)" fill="url(#linear-gradient-76)"/>
          <path id="Path_1978" data-name="Path 1978" d="M1740.39,412a.214.214,0,0,1-.119-.392c.119-.079,11.9-7.911,16.831-11.477a2.265,2.265,0,0,0,.891-2.305,40.289,40.289,0,0,0-2.471-7.806.214.214,0,0,1,.39-.176,39.976,39.976,0,0,1,2.5,7.893,2.694,2.694,0,0,1-1.059,2.741c-4.941,3.571-16.726,11.408-16.845,11.487A.213.213,0,0,1,1740.39,412Z" transform="translate(-1683.254 -339.199)" fill="#fff" opacity="0.6"/>
          <path id="Path_1979" data-name="Path 1979" d="M1731.136,232.985a58.955,58.955,0,0,0-16.27,8.605,167.849,167.849,0,0,0-29.926,28.45,2.238,2.238,0,0,0-.295,2.267,39.45,39.45,0,0,0,11.222,15.118,3.253,3.253,0,0,0,3.345.488,169.467,169.467,0,0,0,34.974-20.715,58.948,58.948,0,0,0,12.67-13.178C1742.888,243.907,1735.534,236.781,1731.136,232.985Z" transform="translate(-1644.3 -229.612)" fill="url(#linear-gradient-77)"/>
          <path id="Path_1980" data-name="Path 1980" d="M1855.344,246.179a61.172,61.172,0,0,0,9.892-22.915,1.1,1.1,0,0,0-.98-1.3,61.166,61.166,0,0,0-24.631,3.179C1844.022,228.941,1851.377,236.066,1855.344,246.179Z" transform="translate(-1752.788 -221.771)" fill="url(#linear-gradient-78)"/>
          <g id="Group_1618" data-name="Group 1618" transform="translate(67.019 9.485)">
            <ellipse id="Ellipse_19" data-name="Ellipse 19" cx="9.901" cy="10.626" rx="9.901" ry="10.626" transform="matrix(0.798, -0.602, 0.602, 0.798, 0, 11.925)" fill="#91b3fa"/>
            <path id="Path_1981" data-name="Path 1981" d="M1808.887,289.114c-3.479,2.624-8.581,1.725-11.4-2.008s-2.28-8.887,1.2-11.511,8.581-1.725,11.4,2.008S1812.366,286.49,1808.887,289.114Z" transform="translate(-1789.084 -267.838)" fill="url(#linear-gradient-79)"/>
            <path id="Path_1982" data-name="Path 1982" d="M1823.164,285.909a.214.214,0,0,1-.2-.145,6.405,6.405,0,0,0-.951-1.788,6.144,6.144,0,0,0-6.917-2.171.214.214,0,0,1-.146-.4,6.573,6.573,0,0,1,7.4,2.316,6.83,6.83,0,0,1,1.015,1.907.214.214,0,0,1-.2.283Z" transform="translate(-1802.454 -272.695)" fill="url(#linear-gradient-80)"/>
          </g>
          <g id="Group_1619" data-name="Group 1619" transform="translate(58.719 29.063)">
            <path id="Path_1983" data-name="Path 1983" d="M1757.1,330.846a7.038,7.038,0,1,1,.994-9.543A6.793,6.793,0,0,1,1757.1,330.846Z" transform="translate(-1746.152 -318.391)" fill="#91b3fa"/>
            <path id="Path_1984" data-name="Path 1984" d="M1760.292,333.1a5.608,5.608,0,1,1,.792-7.6A5.413,5.413,0,0,1,1760.292,333.1Z" transform="translate(-1749.94 -321.735)" fill="url(#linear-gradient-81)"/>
            <path id="Path_1985" data-name="Path 1985" d="M1769.554,330.885a.214.214,0,0,1-.2-.145,4.141,4.141,0,0,0-.618-1.161,3.986,3.986,0,0,0-4.487-1.41.214.214,0,1,1-.146-.4,4.416,4.416,0,0,1,4.974,1.555,4.575,4.575,0,0,1,.681,1.28.213.213,0,0,1-.133.271A.2.2,0,0,1,1769.554,330.885Z" transform="translate(-1758.604 -324.775)" fill="url(#linear-gradient-80)"/>
          </g>
        </g>
        <g id="Group_1621" data-name="Group 1621" transform="translate(0 51.438)">
          <path id="Path_1986" data-name="Path 1986" d="M1526.238,873.682l-.228-1.252,0-.012a.43.43,0,0,1,.846-.154v0l.227,1.275a.427.427,0,0,1-.841.15Z" transform="translate(-1269.213 -727.785)" fill="#fff"/>
          <path id="Path_1987" data-name="Path 1987" d="M1523,859.855l-.339-1.225,0-.011a.438.438,0,0,1,.845-.234v0l.34,1.249a.436.436,0,0,1-.841.229Z" transform="translate(-1266.863 -718.103)" fill="#fff"/>
          <path id="Path_1988" data-name="Path 1988" d="M1518.546,846.373l-.445-1.191,0-.011a.447.447,0,1,1,.837-.313v0l.448,1.214a.444.444,0,0,1-.833.308Z" transform="translate(-1263.667 -708.666)" fill="#fff"/>
          <path id="Path_1989" data-name="Path 1989" d="M1512.951,833.324l-.545-1.148,0-.01a.455.455,0,1,1,.823-.39h0l.55,1.172a.453.453,0,0,1-.82.384Z" transform="translate(-1259.674 -699.54)" fill="#fff"/>
          <path id="Path_1990" data-name="Path 1990" d="M1506.3,820.782l-.637-1.1-.005-.01a.464.464,0,0,1,.8-.464v0l.643,1.123a.461.461,0,0,1-.8.458Z" transform="translate(-1254.942 -690.773)" fill="#fff"/>
          <path id="Path_1991" data-name="Path 1991" d="M1498.667,808.8l-.72-1.049-.006-.009a.472.472,0,0,1,.779-.534v0l.728,1.069a.469.469,0,1,1-.776.529Z" transform="translate(-1249.536 -682.404)" fill="#fff"/>
          <path id="Path_1992" data-name="Path 1992" d="M1490.16,797.428l-.8-.993-.007-.008a.48.48,0,0,1,.75-.6h0l.8,1.013a.478.478,0,0,1-.748.595Z" transform="translate(-1243.519 -674.461)" fill="#fff"/>
          <path id="Path_1993" data-name="Path 1993" d="M1480.861,786.686l-.863-.936-.007-.007a.489.489,0,0,1,.719-.663v0l.873.953a.486.486,0,0,1-.717.657Z" transform="translate(-1236.953 -666.963)" fill="#fff"/>
          <path id="Path_1994" data-name="Path 1994" d="M1470.854,776.6l-.924-.877-.007-.007a.5.5,0,0,1,.685-.722v0l.935.893a.5.5,0,0,1-.685.715Z" transform="translate(-1229.895 -659.924)" fill="#fff"/>
          <path id="Path_1995" data-name="Path 1995" d="M1460.214,767.173l-.978-.816-.007-.006a.506.506,0,0,1,.649-.777h0l.989.833a.5.5,0,1,1-.648.77Z" transform="translate(-1222.399 -653.352)" fill="#fff"/>
          <path id="Path_1996" data-name="Path 1996" d="M1449.01,758.425l-1.026-.755-.007-.006a.514.514,0,1,1,.61-.828h0l1.038.77a.512.512,0,0,1-.61.822Z" transform="translate(-1214.513 -647.255)" fill="#fff"/>
          <path id="Path_1997" data-name="Path 1997" d="M1437.3,750.36l-1.07-.695-.008-.005a.523.523,0,1,1,.569-.877h0l1.083.709a.52.52,0,0,1-.57.871Z" transform="translate(-1206.276 -641.635)" fill="#fff"/>
          <path id="Path_1998" data-name="Path 1998" d="M1425.149,742.987l-1.107-.631-.008,0a.531.531,0,1,1,.526-.923h0l1.12.645a.529.529,0,1,1-.527.917Z" transform="translate(-1197.731 -636.503)" fill="#fff"/>
          <path id="Path_1999" data-name="Path 1999" d="M1412.6,736.317l-1.141-.568-.008,0a.54.54,0,0,1,.481-.966h0l1.155.58a.537.537,0,0,1-.482.96Z" transform="translate(-1188.908 -631.863)" fill="#fff"/>
          <path id="Path_2000" data-name="Path 2000" d="M1399.689,730.362l-1.17-.5-.009,0a.548.548,0,0,1,.433-1.007h0l1.185.515a.545.545,0,1,1-.434,1Z" transform="translate(-1179.839 -627.725)" fill="#fff"/>
          <path id="Path_2001" data-name="Path 2001" d="M1386.469,725.14l-1.2-.436-.009,0a.557.557,0,0,1,.381-1.046h0l1.213.447a.554.554,0,1,1-.383,1.04Z" transform="translate(-1170.554 -624.101)" fill="#fff"/>
          <path id="Path_2002" data-name="Path 2002" d="M1372.978,720.673l-1.22-.367-.009,0a.565.565,0,0,1,.326-1.082h0l1.237.378a.562.562,0,1,1-.329,1.076Z" transform="translate(-1161.079 -621.007)" fill="#fff"/>
          <path id="Path_2003" data-name="Path 2003" d="M1359.263,716.979l-1.238-.3-.008,0a.574.574,0,0,1,.27-1.115h0l1.252.309a.571.571,0,1,1-.273,1.109Z" transform="translate(-1151.453 -618.456)" fill="#fff"/>
          <path id="Path_2004" data-name="Path 2004" d="M1345.373,713.965l-1.252-.242h-.008a.582.582,0,1,1,.221-1.143h0l1.267.25a.58.58,0,0,1-.225,1.137Z" transform="translate(-1141.708 -616.373)" fill="#fff"/>
          <path id="Path_2005" data-name="Path 2005" d="M1331.36,711.586l-1.262-.186h-.008a.59.59,0,1,1,.172-1.168h0l1.276.193a.588.588,0,1,1-.176,1.162Z" transform="translate(-1131.88 -614.734)" fill="#fff"/>
          <path id="Path_2006" data-name="Path 2006" d="M1317.256,709.816l-1.269-.132h-.007a.6.6,0,1,1,.124-1.191h0l1.283.139a.6.6,0,1,1-.128,1.185Z" transform="translate(-1121.991 -613.52)" fill="#fff"/>
          <path id="Path_2007" data-name="Path 2007" d="M1303.092,708.624l-1.273-.082h-.007a.607.607,0,1,1,.078-1.212h0l1.287.088a.6.6,0,0,1-.082,1.207Z" transform="translate(-1112.063 -612.709)" fill="#fff"/>
          <path id="Path_2008" data-name="Path 2008" d="M1288.891,707.978l-1.276-.034h-.007a.616.616,0,0,1,.033-1.231h0l1.289.039a.613.613,0,1,1-.037,1.226Z" transform="translate(-1102.111 -612.278)" fill="#fff"/>
          <path id="Path_2009" data-name="Path 2009" d="M1274.675,707.83l-1.277.011h-.006a.624.624,0,1,1-.01-1.248h0l1.29-.006a.622.622,0,1,1,.005,1.243Z" transform="translate(-1092.15 -612.19)" fill="#fff"/>
          <path id="Path_2010" data-name="Path 2010" d="M1260.463,708.071l-1.276.052h-.006a.633.633,0,1,1-.052-1.264h0l1.288-.047a.63.63,0,0,1,.046,1.259Z" transform="translate(-1082.193 -612.347)" fill="#fff"/>
          <path id="Path_2011" data-name="Path 2011" d="M1246.266,708.758l-1.274.09h-.006a.641.641,0,0,1-.09-1.279h0l1.286-.085a.639.639,0,0,1,.085,1.275Z" transform="translate(-1072.248 -612.817)" fill="#fff"/>
          <path id="Path_2012" data-name="Path 2012" d="M1232.109,709.86l-1.272.123h-.005a.644.644,0,1,1-.124-1.282h0l1.282-.122a.643.643,0,1,1,.122,1.281Z" transform="translate(-1062.338 -613.581)" fill="#fff"/>
          <path id="Path_2013" data-name="Path 2013" d="M1217.988,711.338l-1.268.155h0a.647.647,0,0,1-.157-1.285h0l1.277-.154a.646.646,0,0,1,.155,1.284Z" transform="translate(-1052.454 -614.612)" fill="#fff"/>
          <path id="Path_2014" data-name="Path 2014" d="M1203.9,713.156l-1.267.184h0a.65.65,0,0,1-.186-1.287h0l1.275-.183a.649.649,0,1,1,.184,1.285Z" transform="translate(-1042.594 -615.88)" fill="#fff"/>
          <path id="Path_2015" data-name="Path 2015" d="M1189.859,715.283l-1.262.209h0a.653.653,0,1,1-.214-1.288h0l1.27-.209a.652.652,0,0,1,.212,1.287Z" transform="translate(-1032.767 -617.365)" fill="#fff"/>
          <path id="Path_2016" data-name="Path 2016" d="M1175.86,717.685l-1.259.233h0a.656.656,0,1,1-.238-1.29h0l1.265-.232a.655.655,0,0,1,.236,1.289Z" transform="translate(-1022.972 -619.041)" fill="#fff"/>
          <path id="Path_2017" data-name="Path 2017" d="M1161.9,720.332l-1.255.253h0a.659.659,0,0,1-.26-1.292h0l1.261-.252a.658.658,0,0,1,.258,1.29Z" transform="translate(-1013.207 -620.89)" fill="#fff"/>
          <path id="Path_2018" data-name="Path 2018" d="M1147.989,723.195l-1.252.27h0a.662.662,0,1,1-.28-1.293h0l1.257-.27a.661.661,0,1,1,.277,1.292Z" transform="translate(-1003.47 -622.889)" fill="#fff"/>
          <path id="Path_2019" data-name="Path 2019" d="M1134.109,726.244l-1.25.286h0a.665.665,0,0,1-.3-1.3h0l1.254-.285a.664.664,0,1,1,.294,1.294Z" transform="translate(-993.76 -625.018)" fill="#fff"/>
          <path id="Path_2020" data-name="Path 2020" d="M1120.262,729.454l-1.247.3a.668.668,0,0,1-.313-1.3h0l1.251-.3a.667.667,0,1,1,.307,1.3Z" transform="translate(-984.073 -627.259)" fill="#fff"/>
          <path id="Path_2021" data-name="Path 2021" d="M1106.437,732.781l-1.247.307a.671.671,0,0,1-.323-1.3h0l1.25-.306a.669.669,0,1,1,.318,1.3Z" transform="translate(-974.401 -629.582)" fill="#fff"/>
          <path id="Path_2022" data-name="Path 2022" d="M1092.631,736.19l-1.244.312a.673.673,0,1,1-.328-1.306h0l1.246-.31a.672.672,0,1,1,.325,1.3Z" transform="translate(-964.746 -631.963)" fill="#fff"/>
          <path id="Path_2023" data-name="Path 2023" d="M1078.836,739.647l-1.244.315a.676.676,0,1,1-.332-1.311h0l1.245-.313a.675.675,0,0,1,.33,1.31Z" transform="translate(-955.098 -634.376)" fill="#fff"/>
          <path id="Path_2024" data-name="Path 2024" d="M1065.042,743.121l-1.245.314a.679.679,0,0,1-.333-1.317h0l1.244-.312a.678.678,0,0,1,.332,1.315Z" transform="translate(-945.45 -636.801)" fill="#fff"/>
          <path id="Path_2025" data-name="Path 2025" d="M1051.24,746.582l-1.246.311a.682.682,0,1,1-.331-1.324h0l1.245-.31a.681.681,0,0,1,.33,1.322Z" transform="translate(-935.798 -639.216)" fill="#fff"/>
          <path id="Path_2026" data-name="Path 2026" d="M1037.424,750l-1.247.305a.685.685,0,0,1-.326-1.331h0l1.246-.3a.684.684,0,1,1,.325,1.329Z" transform="translate(-926.137 -641.599)" fill="#fff"/>
          <path id="Path_2027" data-name="Path 2027" d="M1023.586,753.332l-1.25.3a.688.688,0,0,1-.318-1.339h0l1.247-.294a.687.687,0,1,1,.318,1.337Z" transform="translate(-916.459 -643.927)" fill="#fff"/>
          <path id="Path_2028" data-name="Path 2028" d="M1009.718,756.558l-1.253.285a.691.691,0,1,1-.306-1.347h0l1.25-.282h0a.69.69,0,0,1,.3,1.345Z" transform="translate(-906.763 -646.177)" fill="#fff"/>
          <path id="Path_2029" data-name="Path 2029" d="M995.815,759.641l-1.257.27a.694.694,0,0,1-.291-1.357h0l1.253-.267h0a.693.693,0,0,1,.29,1.355Z" transform="translate(-897.042 -648.327)" fill="url(#linear-gradient-83)"/>
          <path id="Path_2030" data-name="Path 2030" d="M981.867,762.547l-1.263.252a.7.7,0,1,1-.273-1.366h0l1.257-.25h0a.7.7,0,0,1,.272,1.365Z" transform="translate(-887.29 -650.354)" fill="#fff"/>
          <path id="Path_2031" data-name="Path 2031" d="M967.876,765.244l-1.267.231a.7.7,0,0,1-.251-1.376h0l1.26-.228h0a.7.7,0,0,1,.25,1.375Z" transform="translate(-877.511 -652.235)" fill="#fff"/>
          <path id="Path_2032" data-name="Path 2032" d="M953.839,767.7l-1.27.207a.7.7,0,1,1-.226-1.387h.005l1.262-.2h0a.7.7,0,0,1,.225,1.385Z" transform="translate(-867.701 -653.944)" fill="#fff"/>
          <path id="Path_2033" data-name="Path 2033" d="M939.763,769.871l-1.275.18a.705.705,0,0,1-.2-1.4h.006l1.265-.177h0a.7.7,0,0,1,.2,1.4Z" transform="translate(-857.864 -655.459)" fill="#fff"/>
          <path id="Path_2034" data-name="Path 2034" d="M925.638,771.732l-1.278.15a.708.708,0,0,1-.164-1.407h.006l1.268-.146h.005a.707.707,0,0,1,.163,1.405Z" transform="translate(-847.994 -656.754)" fill="#fff"/>
          <path id="Path_2035" data-name="Path 2035" d="M911.47,773.245l-1.283.116a.711.711,0,0,1-.128-1.417h.007l1.271-.113h.006a.71.71,0,0,1,.127,1.415Z" transform="translate(-838.096 -657.807)" fill="#fff"/>
          <path id="Path_2036" data-name="Path 2036" d="M897.269,774.378l-1.286.08a.714.714,0,1,1-.089-1.426h.007l1.274-.077h.006a.713.713,0,0,1,.087,1.424Z" transform="translate(-828.176 -658.593)" fill="#fff"/>
          <path id="Path_2037" data-name="Path 2037" d="M883.032,775.09l-1.291.036a.717.717,0,1,1-.04-1.433h.009l1.275-.034h.008a.716.716,0,0,1,.04,1.432Z" transform="translate(-818.233 -659.087)" fill="#fff"/>
          <path id="Path_2038" data-name="Path 2038" d="M868.779,775.254l-1.292-.014a.72.72,0,0,1,.015-1.44h.01l1.274.015h.009a.719.719,0,0,1-.016,1.438Z" transform="translate(-808.284 -659.187)" fill="#fff"/>
          <path id="Path_2039" data-name="Path 2039" d="M854.531,774.764l-1.291-.067a.723.723,0,1,1,.075-1.444h.01l1.272.068h.009a.722.722,0,0,1-.076,1.442Z" transform="translate(-798.341 -658.803)" fill="#fff"/>
          <path id="Path_2040" data-name="Path 2040" d="M840.315,773.657l-1.287-.125a.726.726,0,1,1,.14-1.444h.011l1.267.125h.01a.725.725,0,0,1-.141,1.443Z" transform="translate(-788.425 -657.986)" fill="#fff"/>
          <path id="Path_2041" data-name="Path 2041" d="M826.163,771.883l-1.281-.188a.729.729,0,1,1,.211-1.442h0l.011,0,1.259.186.011,0a.728.728,0,0,1-.212,1.44Z" transform="translate(-778.557 -656.701)" fill="#fff"/>
          <path id="Path_2042" data-name="Path 2042" d="M812.117,769.389l-1.27-.256a.731.731,0,1,1,.289-1.434h0l.012,0,1.246.252.012,0a.731.731,0,0,1-.289,1.432Z" transform="translate(-768.768 -654.91)" fill="#fff"/>
          <path id="Path_2043" data-name="Path 2043" d="M798.228,766.113l-1.254-.329a.734.734,0,0,1,.373-1.421h0l.013,0,1.228.324.013,0a.733.733,0,0,1-.374,1.419Z" transform="translate(-759.096 -652.57)" fill="#fff"/>
          <path id="Path_2044" data-name="Path 2044" d="M784.562,761.99l-1.232-.409a.737.737,0,1,1,.465-1.4h0l.014,0,1.2.4.014,0a.737.737,0,0,1-.465,1.4Z" transform="translate(-749.586 -649.637)" fill="#fff"/>
          <path id="Path_2045" data-name="Path 2045" d="M771.2,756.954l-1.2-.5a.74.74,0,0,1,.564-1.369h0l.015.006,1.172.485.015.006a.739.739,0,0,1-.564,1.367Z" transform="translate(-740.294 -646.065)" fill="#fff"/>
          <path id="Path_2046" data-name="Path 2046" d="M758.234,750.95l-1.162-.586a.743.743,0,0,1,.67-1.327h0l.016.008,1.129.571.016.008a.742.742,0,0,1-.669,1.325Z" transform="translate(-731.295 -641.816)" fill="#fff"/>
          <path id="Path_2047" data-name="Path 2047" d="M745.79,743.93l-1.111-.68a.746.746,0,1,1,.78-1.272h0l.016.01,1.077.662.016.01a.745.745,0,0,1-.779,1.27Z" transform="translate(-722.666 -636.858)" fill="#fff"/>
          <path id="Path_2048" data-name="Path 2048" d="M733.99,735.868l-1.047-.776a.749.749,0,1,1,.892-1.2h0l.017.012,1.013.754.016.012a.748.748,0,0,1-.892,1.2Z" transform="translate(-714.497 -631.177)" fill="#fff"/>
          <path id="Path_2049" data-name="Path 2049" d="M722.967,726.772,722,725.9a.752.752,0,0,1,1-1.121h0l.016.014.938.842.016.014a.751.751,0,0,1-1,1.118Z" transform="translate(-706.88 -624.779)" fill="#fff"/>
          <path id="Path_2050" data-name="Path 2050" d="M712.856,716.657l-.882-.963a.755.755,0,1,1,1.113-1.019h0l.015.017.85.931.016.017a.754.754,0,0,1-1.113,1.018Z" transform="translate(-699.909 -617.674)" fill="#fff"/>
          <path id="Path_2051" data-name="Path 2051" d="M703.809,705.585l-.781-1.045a.758.758,0,1,1,1.214-.907h0l.013.018.753,1.011.013.018a.757.757,0,0,1-1.213.906Z" transform="translate(-693.687 -609.912)" fill="#fff"/>
          <path id="Path_2052" data-name="Path 2052" d="M695.886,693.687l-.677-1.115a.761.761,0,1,1,1.3-.79h0l.011.018.653,1.079.011.019a.76.76,0,0,1-1.3.788Z" transform="translate(-688.248 -601.583)" fill="#fff"/>
          <path id="Path_2053" data-name="Path 2053" d="M689.117,681.1l-.571-1.172a.763.763,0,1,1,1.373-.669h0l.009.019.551,1.135.009.019a.763.763,0,0,1-1.372.667Z" transform="translate(-683.613 -592.783)" fill="#fff"/>
          <path id="Path_2054" data-name="Path 2054" d="M683.51,667.957l-.465-1.217a.766.766,0,0,1,1.432-.547h0l.007.019.449,1.181.007.019a.766.766,0,0,1-1.431.545Z" transform="translate(-679.785 -583.602)" fill="#fff"/>
          <path id="Path_2055" data-name="Path 2055" d="M679.057,654.381l-.36-1.251a.769.769,0,1,1,1.479-.425h0l.005.018.348,1.215.005.018a.769.769,0,0,1-1.478.424Z" transform="translate(-676.759 -574.127)" fill="#fff"/>
          <path id="Path_2056" data-name="Path 2056" d="M675.743,640.486l-.257-1.276a.772.772,0,0,1,1.514-.3h0l0,.018.248,1.24,0,.018a.771.771,0,0,1-1.512.3Z" transform="translate(-674.524 -564.434)" fill="#fff"/>
          <path id="Path_2057" data-name="Path 2057" d="M673.545,626.371l-.156-1.292a.775.775,0,1,1,1.539-.186h0l0,.018.15,1.257,0,.018a.774.774,0,0,1-1.538.184Z" transform="translate(-673.065 -554.594)" fill="#fff"/>
          <path id="Path_2058" data-name="Path 2058" d="M672.443,612.131l-.057-1.3a.778.778,0,0,1,1.555-.068h0v.017l.054,1.264v.018a.777.777,0,0,1-1.553.067Z" transform="translate(-672.368 -544.671)" fill="#fff"/>
          <path id="Path_2059" data-name="Path 2059" d="M672.326,597.848l.041-1.3a.781.781,0,0,1,1.561.049h0v.018l-.042,1.265v.018a.78.78,0,0,1-1.559-.05Z" transform="translate(-672.326 -534.723)" fill="#fff"/>
          <path id="Path_2060" data-name="Path 2060" d="M673.144,583.6l.137-1.3a.784.784,0,0,1,1.559.165h0l0,.017-.136,1.26,0,.017a.783.783,0,0,1-1.557-.166Z" transform="translate(-672.895 -524.802)" fill="#fff"/>
          <path id="Path_2061" data-name="Path 2061" d="M675.02,569.471l.233-1.28a.787.787,0,0,1,1.548.282h0l0,.017-.229,1.245,0,.018a.786.786,0,0,1-1.546-.283Z" transform="translate(-674.2 -514.973)" fill="#fff"/>
          <path id="Path_2062" data-name="Path 2062" d="M677.946,555.541l.329-1.259a.79.79,0,1,1,1.528.4h0l0,.017-.322,1.224,0,.017a.789.789,0,0,1-1.526-.4Z" transform="translate(-676.237 -505.287)" fill="#fff"/>
          <path id="Path_2063" data-name="Path 2063" d="M681.923,541.89l.425-1.23a.793.793,0,1,1,1.5.517h0l-.006.017-.414,1.2-.006.017a.792.792,0,0,1-1.5-.518Z" transform="translate(-679.005 -495.801)" fill="#fff"/>
          <path id="Path_2064" data-name="Path 2064" d="M686.949,528.6l.521-1.194a.8.8,0,1,1,1.459.636h0l-.008.017-.507,1.159-.008.017a.795.795,0,0,1-1.456-.637Z" transform="translate(-682.503 -486.576)" fill="#fff"/>
          <path id="Path_2065" data-name="Path 2065" d="M693.027,515.779l.616-1.148a.8.8,0,0,1,1.407.755h0l-.009.017-.6,1.113-.009.017a.8.8,0,0,1-1.405-.756Z" transform="translate(-686.733 -477.682)" fill="#fff"/>
          <path id="Path_2066" data-name="Path 2066" d="M700.1,503.487l.7-1.1a.8.8,0,1,1,1.353.859h0l-.009.014-.68,1.068-.009.014a.8.8,0,0,1-1.351-.859Z" transform="translate(-691.66 -469.156)" fill="#fff"/>
          <path id="Path_2067" data-name="Path 2067" d="M708.045,491.745l.772-1.046a.8.8,0,0,1,1.294.955h0l-.01.014-.754,1.018-.01.014a.8.8,0,0,1-1.292-.955Z" transform="translate(-697.19 -461.014)" fill="#fff"/>
          <path id="Path_2068" data-name="Path 2068" d="M716.791,480.594l.841-.991a.807.807,0,1,1,1.231,1.045h0l-.01.013-.821.964-.011.012a.806.806,0,0,1-1.228-1.044Z" transform="translate(-703.281 -453.285)" fill="#fff"/>
          <path id="Path_2069" data-name="Path 2069" d="M726.275,470.064l.9-.933a.81.81,0,0,1,1.163,1.128h0l-.011.011-.883.909-.011.011a.809.809,0,0,1-1.161-1.127Z" transform="translate(-709.887 -445.99)" fill="#fff"/>
          <path id="Path_2070" data-name="Path 2070" d="M736.431,460.179l.961-.873a.813.813,0,0,1,1.094,1.2h0l-.011.01-.94.851-.011.01a.812.812,0,0,1-1.092-1.2Z" transform="translate(-716.961 -439.145)" fill="#fff"/>
          <path id="Path_2071" data-name="Path 2071" d="M747.193,450.953l1.012-.812a.816.816,0,0,1,1.022,1.273h0l-.011.009-.99.793-.011.009a.815.815,0,0,1-1.02-1.272Z" transform="translate(-724.459 -432.758)" fill="#fff"/>
          <path id="Path_2072" data-name="Path 2072" d="M758.5,442.4l1.058-.751a.819.819,0,0,1,.948,1.335h0l-.012.008-1.036.733-.012.008a.818.818,0,0,1-.946-1.335Z" transform="translate(-732.337 -426.838)" fill="#fff"/>
          <path id="Path_2073" data-name="Path 2073" d="M770.291,434.514l1.1-.689a.822.822,0,0,1,.874,1.392h0l-.011.007-1.076.673-.012.008a.821.821,0,0,1-.872-1.391Z" transform="translate(-740.554 -421.388)" fill="#fff"/>
          <path id="Path_2074" data-name="Path 2074" d="M782.515,427.31l1.135-.628a.825.825,0,0,1,.8,1.443h0l-.012.006-1.112.613-.012.006a.824.824,0,0,1-.8-1.442Z" transform="translate(-749.072 -416.41)" fill="#fff"/>
          <path id="Path_2075" data-name="Path 2075" d="M795.12,420.784l1.166-.566a.828.828,0,0,1,.723,1.489h0l-.012.006-1.143.553-.012.006a.827.827,0,0,1-.721-1.488Z" transform="translate(-757.857 -411.905)" fill="#fff"/>
          <path id="Path_2076" data-name="Path 2076" d="M808.062,414.937l1.2-.5a.831.831,0,0,1,.646,1.53h0l-.012,0-1.173.493-.012.005a.83.83,0,0,1-.644-1.529Z" transform="translate(-766.878 -407.871)" fill="#fff"/>
          <path id="Path_2077" data-name="Path 2077" d="M821.3,409.774l1.218-.442a.833.833,0,0,1,.568,1.567h0l-.012,0-1.2.431-.012,0a.832.832,0,0,1-.566-1.566Z" transform="translate(-776.105 -404.316)" fill="#fff"/>
          <path id="Path_2078" data-name="Path 2078" d="M834.789,405.3l1.239-.379a.836.836,0,0,1,.489,1.6h0l-.012,0-1.216.37-.012,0a.835.835,0,0,1-.488-1.6Z" transform="translate(-785.506 -401.239)" fill="#fff"/>
          <path id="Path_2079" data-name="Path 2079" d="M848.492,401.512l1.257-.316a.839.839,0,0,1,.409,1.628h0l-.012,0-1.233.308-.012,0a.838.838,0,0,1-.408-1.626Z" transform="translate(-795.057 -398.644)" fill="#fff"/>
          <path id="Path_2080" data-name="Path 2080" d="M862.377,398.426l1.273-.252a.842.842,0,1,1,.328,1.652h0l-.013,0-1.248.246-.013,0a.841.841,0,0,1-.326-1.651Z" transform="translate(-804.735 -396.537)" fill="#fff"/>
          <path id="Path_2081" data-name="Path 2081" d="M876.414,396.049l1.281-.188a.845.845,0,1,1,.245,1.672h0l-.011,0-1.258.183-.011,0a.844.844,0,0,1-.244-1.671Z" transform="translate(-814.519 -394.926)" fill="#fff"/>
          <path id="Path_2082" data-name="Path 2082" d="M890.545,394.339l1.288-.13A.848.848,0,0,1,892,395.9h-.012l-1.266.126h-.011a.847.847,0,0,1-.168-1.686Z" transform="translate(-824.371 -393.774)" fill="#fff"/>
          <path id="Path_2083" data-name="Path 2083" d="M904.744,393.26l1.292-.073a.851.851,0,0,1,.1,1.7h-.012l-1.27.07h-.011a.85.85,0,0,1-.1-1.7Z" transform="translate(-834.271 -393.061)" fill="#fff"/>
          <path id="Path_2084" data-name="Path 2084" d="M918.98,392.791l1.294-.019a.854.854,0,0,1,.025,1.708h-.012l-1.272.017H919a.853.853,0,0,1-.024-1.706Z" transform="translate(-844.198 -392.773)" fill="#fff"/>
          <path id="Path_2085" data-name="Path 2085" d="M933.227,392.835l1.293.036a.854.854,0,1,1-.047,1.707h-.009l-1.272-.033h-.01a.855.855,0,0,1,.044-1.71Z" transform="translate(-854.133 -392.816)" fill="#fff"/>
          <path id="Path_2086" data-name="Path 2086" d="M947.476,393.422l1.29.085a.851.851,0,0,1-.113,1.7h-.008l-1.271-.082h-.01a.852.852,0,1,1,.11-1.7Z" transform="translate(-864.075 -393.225)" fill="#fff"/>
          <path id="Path_2087" data-name="Path 2087" d="M961.691,394.551l1.286.133a.847.847,0,0,1-.175,1.685h-.008l-1.267-.129h-.009a.848.848,0,0,1,.172-1.688Z" transform="translate(-873.995 -394.013)" fill="#fff"/>
          <path id="Path_2088" data-name="Path 2088" d="M975.854,396.2l1.28.179a.844.844,0,1,1-.233,1.671h-.008l-1.262-.174h-.008a.845.845,0,0,1,.23-1.674Z" transform="translate(-883.879 -395.161)" fill="#fff"/>
          <path id="Path_2089" data-name="Path 2089" d="M989.95,398.332l1.272.221a.84.84,0,0,1-.288,1.656h-.007l-1.256-.216h-.008a.841.841,0,0,1,.286-1.658Z" transform="translate(-893.719 -396.651)" fill="#fff"/>
          <path id="Path_2090" data-name="Path 2090" d="M1003.967,400.931l1.263.261a.837.837,0,1,1-.34,1.639h-.006l-1.248-.256-.008,0a.838.838,0,0,1,.337-1.642Z" transform="translate(-903.504 -398.465)" fill="#fff"/>
          <path id="Path_2091" data-name="Path 2091" d="M1017.884,403.965l1.255.3a.834.834,0,0,1-.387,1.622h-.006l-1.241-.294-.007,0a.835.835,0,0,1,.385-1.624Z" transform="translate(-913.22 -400.583)" fill="#fff"/>
          <path id="Path_2092" data-name="Path 2092" d="M1031.717,407.418l1.247.336a.83.83,0,0,1-.433,1.6l-.005,0-1.234-.331-.007,0a.831.831,0,1,1,.43-1.606Z" transform="translate(-922.878 -402.993)" fill="#fff"/>
          <path id="Path_2093" data-name="Path 2093" d="M1045.445,411.262l1.238.371a.827.827,0,1,1-.475,1.584l0,0-1.225-.365-.006,0a.828.828,0,0,1,.473-1.587Z" transform="translate(-932.465 -405.676)" fill="#fff"/>
          <path id="Path_2094" data-name="Path 2094" d="M1059.066,415.476l1.227.4a.823.823,0,1,1-.513,1.565l-.005,0-1.215-.4-.006,0a.825.825,0,0,1,.512-1.568Z" transform="translate(-941.977 -408.618)" fill="#fff"/>
          <path id="Path_2095" data-name="Path 2095" d="M1072.573,420.041l1.216.433a.82.82,0,0,1-.551,1.545h0l-1.205-.427-.006,0a.821.821,0,1,1,.549-1.548Z" transform="translate(-951.411 -411.805)" fill="#fff"/>
          <path id="Path_2096" data-name="Path 2096" d="M1085.962,424.935l1.2.462a.817.817,0,0,1-.585,1.525h0l-1.194-.456-.005,0a.818.818,0,0,1,.583-1.528Z" transform="translate(-960.763 -415.223)" fill="#fff"/>
          <path id="Path_2097" data-name="Path 2097" d="M1099.229,430.14l1.192.488a.813.813,0,1,1-.616,1.505h0l-1.184-.482,0,0a.814.814,0,1,1,.614-1.509Z" transform="translate(-970.03 -418.857)" fill="#fff"/>
          <path id="Path_2098" data-name="Path 2098" d="M1112.377,435.617l1.182.509a.81.81,0,0,1-.641,1.488h0l-1.175-.5,0,0a.811.811,0,1,1,.64-1.491Z" transform="translate(-979.217 -422.683)" fill="#fff"/>
          <path id="Path_2099" data-name="Path 2099" d="M1125.424,441.317l1.173.526a.807.807,0,1,1-.66,1.472h0l-1.168-.522,0,0a.808.808,0,0,1,.659-1.475Z" transform="translate(-988.335 -426.665)" fill="#fff"/>
          <path id="Path_2100" data-name="Path 2100" d="M1138.39,447.195l1.167.539a.8.8,0,0,1-.674,1.458h0l-1.163-.535h0a.8.8,0,0,1,.673-1.461Z" transform="translate(-997.398 -430.772)" fill="#fff"/>
          <path id="Path_2101" data-name="Path 2101" d="M1151.3,453.2l1.162.548a.8.8,0,1,1-.683,1.447l-1.16-.545a.8.8,0,1,1,.678-1.451Z" transform="translate(-1006.421 -434.973)" fill="#fff"/>
          <path id="Path_2102" data-name="Path 2102" d="M1164.16,459.3l1.159.553a.8.8,0,0,1-.686,1.438l-1.159-.551a.8.8,0,0,1,.684-1.441Z" transform="translate(-1015.417 -439.234)" fill="#fff"/>
          <path id="Path_2103" data-name="Path 2103" d="M1177,465.437l1.158.554a.793.793,0,0,1-.683,1.431l-1.159-.552a.794.794,0,1,1,.683-1.434Z" transform="translate(-1024.4 -443.525)" fill="#fff"/>
          <path id="Path_2104" data-name="Path 2104" d="M1189.847,471.568l1.158.551a.79.79,0,0,1-.676,1.427l-1.161-.55a.791.791,0,0,1,.677-1.429Z" transform="translate(-1033.384 -447.813)" fill="#fff"/>
          <path id="Path_2105" data-name="Path 2105" d="M1202.713,477.658l1.16.545a.782.782,0,0,1-.66,1.417l-1.166-.541a.785.785,0,1,1,.661-1.424Z" transform="translate(-1042.387 -452.071)" fill="#fff"/>
          <path id="Path_2106" data-name="Path 2106" d="M1215.629,483.667l1.164.534h0a.771.771,0,0,1-.639,1.4l-1.172-.53a.775.775,0,1,1,.639-1.411h.006Z" transform="translate(-1051.433 -456.276)" fill="#fff"/>
          <path id="Path_2107" data-name="Path 2107" d="M1228.6,489.536l1.17.518,0,0a.761.761,0,0,1-.613,1.393l-1.179-.515a.764.764,0,1,1,.612-1.4h.006Z" transform="translate(-1060.521 -460.383)" fill="#fff"/>
          <path id="Path_2108" data-name="Path 2108" d="M1241.66,495.219l1.178.5,0,0a.751.751,0,0,1-.582,1.385l-1.188-.5a.754.754,0,0,1,.582-1.392h0Z" transform="translate(-1069.667 -464.36)" fill="#fff"/>
          <path id="Path_2109" data-name="Path 2109" d="M1254.813,500.665l1.187.474,0,0a.741.741,0,0,1-.545,1.377l-1.2-.472a.744.744,0,1,1,.545-1.384h0Z" transform="translate(-1078.883 -468.172)" fill="#fff"/>
          <path id="Path_2110" data-name="Path 2110" d="M1268.078,505.823l1.2.445.005,0a.731.731,0,0,1-.506,1.371l-1.21-.443a.734.734,0,0,1,.5-1.378h0Z" transform="translate(-1088.178 -471.783)" fill="#fff"/>
          <path id="Path_2111" data-name="Path 2111" d="M1281.464,510.65l1.209.413.006,0a.72.72,0,0,1-.462,1.365l-1.222-.411a.724.724,0,0,1,.461-1.372h0Z" transform="translate(-1097.56 -475.164)" fill="#fff"/>
          <path id="Path_2112" data-name="Path 2112" d="M1294.978,515.1l1.22.376.007,0a.71.71,0,0,1-.415,1.358l-1.234-.374a.713.713,0,1,1,.414-1.365h0Z" transform="translate(-1107.032 -478.281)" fill="#fff"/>
          <path id="Path_2113" data-name="Path 2113" d="M1308.621,519.129l1.231.335.007,0a.7.7,0,0,1-.364,1.352l-1.247-.333a.7.7,0,0,1,.362-1.358h0Z" transform="translate(-1116.596 -481.102)" fill="#fff"/>
          <path id="Path_2114" data-name="Path 2114" d="M1322.392,522.681l1.242.289.008,0a.69.69,0,0,1-.309,1.344l-1.259-.286a.693.693,0,1,1,.307-1.351h0Z" transform="translate(-1126.25 -483.59)" fill="#fff"/>
          <path id="Path_2115" data-name="Path 2115" d="M1336.287,525.7l1.253.238.009,0a.68.68,0,0,1-.25,1.336l-1.272-.236a.683.683,0,1,1,.249-1.342h0Z" transform="translate(-1135.993 -485.709)" fill="#fff"/>
          <path id="Path_2116" data-name="Path 2116" d="M1350.3,528.144l1.26.182h.009a.669.669,0,0,1-.188,1.325l-1.28-.179a.672.672,0,0,1,.186-1.332h.012Z" transform="translate(-1145.821 -487.418)" fill="#fff"/>
          <path id="Path_2117" data-name="Path 2117" d="M1364.4,529.94l1.266.121h.01a.659.659,0,0,1-.122,1.312l-1.286-.117a.662.662,0,0,1,.12-1.319h.013Z" transform="translate(-1155.708 -488.677)" fill="#fff"/>
          <path id="Path_2118" data-name="Path 2118" d="M1378.562,531.038l1.27.055h.01a.649.649,0,0,1-.053,1.3l-1.291-.05a.652.652,0,0,1,.051-1.3h.013Z" transform="translate(-1165.641 -489.447)" fill="#fff"/>
          <path id="Path_2119" data-name="Path 2119" d="M1392.759,531.358l1.272-.013h.011a.636.636,0,0,1,.018,1.272l-1.294.023a.642.642,0,0,1-.023-1.283h.016Z" transform="translate(-1175.599 -489.662)" fill="#fff"/>
          <path id="Path_2120" data-name="Path 2120" d="M1406.969,530.736l1.268-.091h.012a.618.618,0,0,1,.094,1.233l-1.291.1a.624.624,0,1,1-.1-1.243h.017Z" transform="translate(-1185.573 -489.171)" fill="#fff"/>
          <path id="Path_2121" data-name="Path 2121" d="M1421.123,529.21l1.26-.173.011,0a.6.6,0,0,1,.168,1.188l-1.281.186a.605.605,0,1,1-.175-1.2h.005Z" transform="translate(-1195.509 -488.044)" fill="#fff"/>
          <path id="Path_2122" data-name="Path 2122" d="M1435.16,526.772l1.246-.254.011,0a.582.582,0,0,1,.238,1.139l-1.266.27a.587.587,0,1,1-.245-1.149h0Z" transform="translate(-1205.361 -486.277)" fill="#fff"/>
          <path id="Path_2123" data-name="Path 2123" d="M1449.016,523.416l1.226-.338.011,0a.564.564,0,0,1,.3,1.085l-1.245.354a.569.569,0,1,1-.311-1.095l0,0Z" transform="translate(-1215.085 -483.866)" fill="#fff"/>
          <path id="Path_2124" data-name="Path 2124" d="M1462.622,519.125l1.2-.422.011,0a.546.546,0,0,1,.367,1.028l-1.218.44a.551.551,0,1,1-.375-1.036h0Z" transform="translate(-1224.633 -480.798)" fill="#fff"/>
          <path id="Path_2125" data-name="Path 2125" d="M1475.9,513.881l1.165-.508.011,0a.527.527,0,0,1,.426.965l-1.183.528a.533.533,0,0,1-.434-.973l0,0Z" transform="translate(-1233.952 -477.061)" fill="#fff"/>
          <path id="Path_2126" data-name="Path 2126" d="M1488.764,507.663l1.123-.6.011-.006a.509.509,0,0,1,.482.9l-1.139.618a.515.515,0,0,1-.49-.9l0,0Z" transform="translate(-1242.979 -472.641)" fill="#fff"/>
          <path id="Path_2127" data-name="Path 2127" d="M1501.113,500.455l1.07-.686.01-.007a.491.491,0,0,1,.533.824l-1.085.709a.5.5,0,1,1-.543-.831l0,0Z" transform="translate(-1251.644 -467.525)" fill="#fff"/>
          <path id="Path_2128" data-name="Path 2128" d="M1512.833,492.248l1.006-.775.01-.008a.473.473,0,0,1,.58.746l-1.02.8a.478.478,0,1,1-.59-.753l0,0Z" transform="translate(-1259.869 -461.71)" fill="#fff"/>
          <path id="Path_2129" data-name="Path 2129" d="M1523.8,483.048l.931-.864.009-.009a.455.455,0,0,1,.621.664l-.943.889a.46.46,0,0,1-.631-.67l0,0Z" transform="translate(-1267.564 -455.198)" fill="#fff"/>
          <path id="Path_2130" data-name="Path 2130" d="M1533.879,472.883l.845-.949.009-.01a.436.436,0,0,1,.654.578l-.853.975a.442.442,0,1,1-.665-.582l0,0Z" transform="translate(-1274.637 -448.013)" fill="#fff"/>
        </g>
      </g>
    </g>
  </g>
</svg>
