<?xml version="1.0" encoding="UTF-8" standalone="no"?>
<svg
   xmlns:dc="http://purl.org/dc/elements/1.1/"
   xmlns:cc="http://creativecommons.org/ns#"
   xmlns:rdf="http://www.w3.org/1999/02/22-rdf-syntax-ns#"
   xmlns:svg="http://www.w3.org/2000/svg"
   xmlns="http://www.w3.org/2000/svg"
   xmlns:sodipodi="http://sodipodi.sourceforge.net/DTD/sodipodi-0.dtd"
   xmlns:inkscape="http://www.inkscape.org/namespaces/inkscape"
   version="1.1"
   id="svg2"
   xml:space="preserve"
   width="565.33331"
   height="640"
   viewBox="0 0 565.33331 640"
   sodipodi:docname="social-media.eps"><metadata
     id="metadata8"><rdf:RDF><cc:Work
         rdf:about=""><dc:format>image/svg+xml</dc:format><dc:type
           rdf:resource="http://purl.org/dc/dcmitype/StillImage" /></cc:Work></rdf:RDF></metadata><defs
     id="defs6"><clipPath
       clipPathUnits="userSpaceOnUse"
       id="clipPath32"><path
         d="M 2769.02,480 H 1550.98 l 186.64,560 h 844.76 z M 3440,240 c 0,-44.18 -35.82,-80 -80,-80 H 960 c -44.18,0 -80,35.82 -80,80 0,44.18 35.82,80 80,80 h 2400 c 44.18,0 80,-35.82 80,-80 z M 560,1360 v 320 h 3200 v -320 c 0,-88.36 -71.64,-160 -160,-160 H 720 c -88.359,0 -160,71.64 -160,160 z M 720,3520 H 880 V 1840 H 560 v 1520 c 0,88.36 71.641,160 160,160 z m 320,640 c 0,88.36 71.64,160 160,160 H 3164.49 C 3135.7,4271.56 3120.31,4216.33 3120,4160 V 1840 H 1040 Z m 2560,0 v -160 h -320 v 160 c 0,88.36 71.64,160 160,160 88.36,0 160,-71.64 160,-160 z m 0,-640 c 88.36,0 160,-71.64 160,-160 V 1840 h -480 v 1680 z m 0,-2480 c 176.72,0 320,143.28 320,320 v 2000 c 0,176.72 -143.28,320 -320,320 h -320 v 160 h 400 c 44.18,0 80,35.82 80,80 v 240 c 0,176.72 -143.28,320 -320,320 H 1200 c -176.72,0 -320,-143.28 -320,-320 V 3680 H 720 C 543.281,3680 400,3536.72 400,3360 V 1360 c 0,-176.72 143.281,-320 320,-320 h 849.02 L 1382.38,480 H 960 C 827.461,480 720,372.539 720,240 c 0.27,-27.301 5.23,-54.379 14.73,-80 H 320 V 0 h 3040 c 132.54,0 240,107.461 240,240 0,132.539 -107.46,240 -240,240 h -422.38 l -186.64,560 z"
         id="path30" /></clipPath><clipPath
       clipPathUnits="userSpaceOnUse"
       id="clipPath50"><path
         d="M 1680,2480 H 2960 V 2320 H 1680 Z"
         id="path48" /></clipPath></defs><sodipodi:namedview
     pagecolor="#ffffff"
     bordercolor="#666666"
     borderopacity="1"
     objecttolerance="10"
     gridtolerance="10"
     guidetolerance="10"
     inkscape:pageopacity="0"
     inkscape:pageshadow="2"
     inkscape:window-width="640"
     inkscape:window-height="480"
     id="namedview4" /><g
     id="g10"
     inkscape:groupmode="layer"
     inkscape:label="ink_ext_XXXXXX"
     transform="matrix(1.3333333,0,0,-1.3333333,0,640)"><g
       id="g12"
       transform="scale(0.1)"><path
         d="m 2080,1520 h 160 v -160 h -160 v 160"
         style="fill:#ffffff;fill-opacity:1;fill-rule:nonzero;stroke:none"
         id="path14" /><path
         d="M 0,160 H 160 V 0 H 0 v 160"
         style="fill:#ffffff;fill-opacity:1;fill-rule:nonzero;stroke:none"
         id="path16" /><path
         d="m 1600,3760 h 80 v -320 h -80 c -88.36,0 -160,71.64 -160,160 0,88.36 71.64,160 160,160 z m 1120,-539.45 -560,129.22 v 500.46 l 560,129.22 z M 2000,2800 h -160 v 459.45 l 160,-36.99 z m -160,976.02 160,36.87 v -426.56 l -160,37.65 z M 1600,3280 h 80 v -560 c 0,-44.18 35.82,-80 80,-80 h 320 c 44.18,0 80,35.82 80,80 v 465.59 l 621.99,-143.99 c 5.94,-1.21 11.96,-1.76 18.01,-1.6 44.18,0 80,35.82 80,80 v 960 c 0,24.38 -11.09,47.46 -30.2,62.66 -19.06,15.19 -44.02,20.82 -67.81,15.35 L 1750.78,3920 H 1600 c -176.72,0 -320,-143.28 -320,-320 0,-176.72 143.28,-320 320,-320 v 0"
         style="fill:#ffffff;fill-opacity:1;fill-rule:nonzero;stroke:none"
         id="path18" /><path
         d="M 1200,4800 H 2960 V 4640 H 1200 v 160"
         style="fill:#ffffff;fill-opacity:1;fill-rule:nonzero;stroke:none"
         id="path20" /><path
         d="m 3120,4800 h 160 v -160 h -160 v 160"
         style="fill:#ffffff;fill-opacity:1;fill-rule:nonzero;stroke:none"
         id="path22" /><path
         d="M 2769.02,480 H 1550.98 l 186.64,560 h 844.76 z M 3440,240 c 0,-44.18 -35.82,-80 -80,-80 H 960 c -44.18,0 -80,35.82 -80,80 0,44.18 35.82,80 80,80 h 2400 c 44.18,0 80,-35.82 80,-80 z M 560,1360 v 320 h 3200 v -320 c 0,-88.36 -71.64,-160 -160,-160 H 720 c -88.359,0 -160,71.64 -160,160 z M 720,3520 H 880 V 1840 H 560 v 1520 c 0,88.36 71.641,160 160,160 z m 320,640 c 0,88.36 71.64,160 160,160 H 3164.49 C 3135.7,4271.56 3120.31,4216.33 3120,4160 V 1840 H 1040 Z m 2560,0 v -160 h -320 v 160 c 0,88.36 71.64,160 160,160 88.36,0 160,-71.64 160,-160 z m 0,-640 c 88.36,0 160,-71.64 160,-160 V 1840 h -480 v 1680 z m 0,-2480 c 176.72,0 320,143.28 320,320 v 2000 c 0,176.72 -143.28,320 -320,320 h -320 v 160 h 400 c 44.18,0 80,35.82 80,80 v 240 c 0,176.72 -143.28,320 -320,320 H 1200 c -176.72,0 -320,-143.28 -320,-320 V 3680 H 720 C 543.281,3680 400,3536.72 400,3360 V 1360 c 0,-176.72 143.281,-320 320,-320 h 849.02 L 1382.38,480 H 960 C 827.461,480 720,372.539 720,240 c 0.27,-27.301 5.23,-54.379 14.73,-80 H 320 V 0 h 3040 c 132.54,0 240,107.461 240,240 0,132.539 -107.46,240 -240,240 h -422.38 l -186.64,560 H 3600"
         style="fill:#ffffff;fill-opacity:1;fill-rule:nonzero;stroke:none"
         id="path24" /><g
         id="g26"><g
           id="g28"
           clip-path="url(#clipPath32)"><path
             d="M 320,0 V 4480.8 H 3920 V 0 H 320"
             style="fill:#ffffff;fill-opacity:1;fill-rule:nonzero;stroke:none"
             id="path34" /></g></g><path
         d="M 80,3280 H 240 V 2160 H 80 v 1120"
         style="fill:#ffffff;fill-opacity:1;fill-rule:nonzero;stroke:none"
         id="path36" /><path
         d="m 4080,2240 h 160 V 1200 h -160 v 1040"
         style="fill:#ffffff;fill-opacity:1;fill-rule:nonzero;stroke:none"
         id="path38" /><path
         d="m 1360,2480 h 160 v -160 h -160 v 160"
         style="fill:#ffffff;fill-opacity:1;fill-rule:nonzero;stroke:none"
         id="path40" /><path
         d="M 1680,2480 H 2960 V 2320 H 1680 v 160"
         style="fill:#ffffff;fill-opacity:1;fill-rule:nonzero;stroke:none"
         id="path42" /><g
         id="g44"><g
           id="g46"
           clip-path="url(#clipPath50)"><path
             d="m 1680,2320 v 160 H 2960 V 2320 H 1680"
             style="fill:#ffffff;fill-opacity:1;fill-rule:nonzero;stroke:none"
             id="path52" /></g></g><path
         d="m 2820.8,1988.8 h -1632 v 181.97 h 1632 V 1988.8"
         style="fill:#ffffff;fill-opacity:1;fill-rule:nonzero;stroke:none"
         id="path54" /></g></g></svg>
