<?xml version="1.0" encoding="UTF-8" standalone="no"?>
<svg
   xmlns:dc="http://purl.org/dc/elements/1.1/"
   xmlns:cc="http://creativecommons.org/ns#"
   xmlns:rdf="http://www.w3.org/1999/02/22-rdf-syntax-ns#"
   xmlns:svg="http://www.w3.org/2000/svg"
   xmlns="http://www.w3.org/2000/svg"
   xmlns:sodipodi="http://sodipodi.sourceforge.net/DTD/sodipodi-0.dtd"
   xmlns:inkscape="http://www.inkscape.org/namespaces/inkscape"
   version="1.1"
   id="svg2"
   xml:space="preserve"
   width="659.74664"
   height="659.74664"
   viewBox="0 0 659.74664 659.74664"
   sodipodi:docname="UI-UX.eps"><metadata
     id="metadata8"><rdf:RDF><cc:Work
         rdf:about=""><dc:format>image/svg+xml</dc:format><dc:type
           rdf:resource="http://purl.org/dc/dcmitype/StillImage" /></cc:Work></rdf:RDF></metadata><defs
     id="defs6"><clipPath
       clipPathUnits="userSpaceOnUse"
       id="clipPath32"><path
         d="m 2803.91,2968.84 h -659.72 v 247.39 h 659.72 z m 164.93,-82.47 v 412.33 c 0,45.52 -36.94,82.46 -82.47,82.46 h -824.64 c -45.52,0 -82.47,-36.94 -82.47,-82.46 v -412.33 c 0,-45.52 36.95,-82.46 82.47,-82.46 h 824.64 c 45.53,0 82.47,36.94 82.47,82.46 z"
         id="path30" /></clipPath><clipPath
       clipPathUnits="userSpaceOnUse"
       id="clipPath44"><path
         d="M 1649.4,2968.84 H 989.684 v 247.39 H 1649.4 Z m 164.93,-82.47 v 412.33 c 0,45.52 -36.94,82.46 -82.46,82.46 H 907.219 c -45.52,0 -82.461,-36.94 -82.461,-82.46 v -412.33 c 0,-45.52 36.941,-82.46 82.461,-82.46 h 824.651 c 45.52,0 82.46,36.94 82.46,82.46 z"
         id="path42" /></clipPath><clipPath
       clipPathUnits="userSpaceOnUse"
       id="clipPath56"><path
         d="m 3958.42,2968.84 h -659.71 v 247.39 h 659.71 z m 164.93,-82.47 v 412.33 c 0,45.52 -36.94,82.46 -82.47,82.46 h -824.64 c -45.52,0 -82.47,-36.94 -82.47,-82.46 v -412.33 c 0,-45.52 36.95,-82.46 82.47,-82.46 h 824.64 c 45.53,0 82.47,36.94 82.47,82.46 z"
         id="path54" /></clipPath><clipPath
       clipPathUnits="userSpaceOnUse"
       id="clipPath68"><path
         d="m 2061.73,2638.98 h 824.65 v -164.93 h -824.65 z"
         id="path66" /></clipPath><clipPath
       clipPathUnits="userSpaceOnUse"
       id="clipPath80"><path
         d="m 2061.73,2309.11 h 824.65 v -164.92 h -824.65 z"
         id="path78" /></clipPath><clipPath
       clipPathUnits="userSpaceOnUse"
       id="clipPath92"><path
         d="m 2061.73,1979.26 h 824.65 v -164.93 h -824.65 z"
         id="path90" /></clipPath><clipPath
       clipPathUnits="userSpaceOnUse"
       id="clipPath104"><path
         d="m 3216.24,2638.98 h 824.64 v -164.93 h -824.64 z"
         id="path102" /></clipPath><clipPath
       clipPathUnits="userSpaceOnUse"
       id="clipPath116"><path
         d="m 3216.24,2309.11 h 824.64 v -164.92 h -824.64 z"
         id="path114" /></clipPath><clipPath
       clipPathUnits="userSpaceOnUse"
       id="clipPath128"><path
         d="m 3216.24,1979.26 h 824.64 v -164.93 h -824.64 z"
         id="path126" /></clipPath><clipPath
       clipPathUnits="userSpaceOnUse"
       id="clipPath140"><path
         d="M 907.219,2638.98 H 1731.87 V 2474.05 H 907.219 Z"
         id="path138" /></clipPath><clipPath
       clipPathUnits="userSpaceOnUse"
       id="clipPath152"><path
         d="M 907.219,2309.11 H 1731.87 V 2144.19 H 907.219 Z"
         id="path150" /></clipPath><clipPath
       clipPathUnits="userSpaceOnUse"
       id="clipPath164"><path
         d="M 907.219,1979.26 H 1731.87 V 1814.33 H 907.219 Z"
         id="path162" /></clipPath></defs><sodipodi:namedview
     pagecolor="#ffffff"
     bordercolor="#666666"
     borderopacity="1"
     objecttolerance="10"
     gridtolerance="10"
     guidetolerance="10"
     inkscape:pageopacity="0"
     inkscape:pageshadow="2"
     inkscape:window-width="640"
     inkscape:window-height="480"
     id="namedview4" /><g
     id="g10"
     inkscape:groupmode="layer"
     inkscape:label="ink_ext_XXXXXX"
     transform="matrix(1.3333333,0,0,-1.3333333,0,659.74667)"><g
       id="g12"
       transform="scale(0.1)"><path
         d="m 329.965,4783.06 c 66.723,0 126.855,-40.15 152.371,-101.78 25.547,-61.64 11.43,-132.62 -35.77,-179.75 -47.128,-47.19 -118.097,-61.31 -179.746,-35.76 -61.625,25.51 -101.785,85.64 -101.785,152.37 0,91.11 73.817,164.92 164.93,164.92 z m 4288.175,0 c 66.73,0 126.86,-40.15 152.37,-101.78 25.55,-61.64 11.44,-132.62 -35.76,-179.75 -47.14,-47.19 -118.1,-61.31 -179.75,-35.76 -61.63,25.51 -101.79,85.64 -101.79,152.37 0,91.11 73.82,164.92 164.93,164.92 z M 4783.07,329.961 c 0,-66.731 -40.15,-126.859 -101.79,-152.371 -61.65,-25.551 -132.61,-11.442 -179.74,35.762 -47.2,47.128 -61.32,118.109 -35.76,179.75 25.5,61.628 85.63,101.789 152.36,101.789 91.11,0 164.93,-73.821 164.93,-164.93 z M 247.5,4299.99 V 2556.51 h 164.926 v 1743.48 c 115.387,30.17 205.519,120.3 235.687,235.68 H 4300 c 30.16,-115.38 120.3,-205.51 235.68,-235.68 V 648.109 C 4420.3,617.941 4330.16,527.809 4300,412.422 H 2556.52 V 247.492 H 4300 c 29.35,-114.57 117.89,-204.5506 231.97,-235.7928 114.03,-31.2578 236.06,1.1211 319.71,84.7227 83.59,83.6371 115.97,205.6801 84.72,319.7191 -31.24,114.07 -121.22,202.609 -235.79,231.968 V 4299.99 c 114.57,29.35 204.55,117.89 235.79,231.97 31.25,114.04 -1.13,236.07 -84.72,319.72 -83.65,83.59 -205.68,115.97 -319.71,84.71 C 4417.89,4905.15 4329.35,4815.17 4300,4700.6 H 648.113 C 618.754,4815.17 530.215,4905.15 416.137,4936.39 302.105,4967.65 180.066,4935.27 96.4219,4851.68 12.832,4768.03 -19.5508,4646 11.7031,4531.96 42.9453,4417.88 132.93,4329.34 247.5,4299.99 v 0"
         style="fill:#ffffff;fill-opacity:1;fill-rule:nonzero;stroke:none"
         id="path14" /><path
         d="M 165.035,2192.51 2192.52,165.031 H 165.035 Z M 82.5664,0.101563 H 2391.59 c 33.34,0 63.4,20.078137 76.18,50.898437 12.73,30.8086 5.69,66.301 -17.88,89.871 L 140.875,2449.89 C 117.301,2473.46 81.8125,2480.5 51,2467.77 20.1836,2454.98 0.101563,2424.92 0.101563,2391.58 V 82.5586 C 0.101563,37.0391 37.0469,0.101563 82.5664,0.101563 v 0"
         style="fill:#ffffff;fill-opacity:1;fill-rule:nonzero;stroke:none"
         id="path16" /><path
         d="M 577.359,577.359 V 1197.08 L 1197.08,577.359 Z m 877.101,-24.16 -901.261,901.261 c -23.574,23.56 -59.062,30.6 -89.875,17.88 -30.812,-12.78 -50.898,-42.85 -50.898,-76.19 V 494.891 c 0,-45.52 36.949,-82.469 82.465,-82.469 h 901.259 c 33.35,0 63.42,20.078 76.19,50.898 12.72,30.809 5.69,66.301 -17.88,89.879 v 0"
         style="fill:#ffffff;fill-opacity:1;fill-rule:nonzero;stroke:none"
         id="path18" /><path
         d="M 2474.05,1154.61 V 824.75 H 2061.73 V 659.82 h 2144.09 c 45.51,0 82.46,36.942 82.46,82.469 V 1402 c 0,45.52 -36.95,82.47 -82.46,82.47 H 1484.47 V 1319.54 H 4123.35 V 824.75 h -164.93 v 329.86 H 3793.49 V 824.75 H 3628.56 V 989.68 H 3463.63 V 824.75 H 3298.71 V 989.68 H 3133.77 V 824.75 H 2968.84 V 989.68 H 2803.91 V 824.75 h -164.93 v 329.86 h -164.93"
         style="fill:#ffffff;fill-opacity:1;fill-rule:nonzero;stroke:none"
         id="path20" /><path
         d="M 3958.42,3711.02 H 989.684 v 329.86 H 3958.42 Z m 164.93,412.33 c 0,45.52 -36.94,82.46 -82.47,82.46 H 907.219 c -45.52,0 -82.469,-36.94 -82.469,-82.46 v -494.79 c 0,-45.53 36.949,-82.47 82.469,-82.47 H 4040.88 c 45.53,0 82.47,36.94 82.47,82.47 v 494.79"
         style="fill:#ffffff;fill-opacity:1;fill-rule:nonzero;stroke:none"
         id="path22" /><path
         d="m 2803.91,2968.84 h -659.72 v 247.39 h 659.72 z m 164.93,-82.47 v 412.33 c 0,45.52 -36.94,82.46 -82.47,82.46 h -824.64 c -45.52,0 -82.47,-36.94 -82.47,-82.46 v -412.33 c 0,-45.52 36.95,-82.46 82.47,-82.46 h 824.64 c 45.53,0 82.47,36.94 82.47,82.46 v 0"
         style="fill:#ffffff;fill-opacity:1;fill-rule:nonzero;stroke:none"
         id="path24" /><g
         id="g26"><g
           id="g28"
           clip-path="url(#clipPath32)"><path
             d="m 1979.26,2803.91 v 577.25 h 989.58 v -577.25 h -989.58"
             style="fill:#ffffff;fill-opacity:1;fill-rule:nonzero;stroke:none"
             id="path34" /></g></g><path
         d="M 1649.4,2968.84 H 989.684 v 247.39 H 1649.4 Z m 164.93,-82.47 v 412.33 c 0,45.52 -36.94,82.46 -82.46,82.46 H 907.219 c -45.52,0 -82.461,-36.94 -82.461,-82.46 v -412.33 c 0,-45.52 36.941,-82.46 82.461,-82.46 h 824.651 c 45.52,0 82.46,36.94 82.46,82.46 v 0"
         style="fill:#ffffff;fill-opacity:1;fill-rule:nonzero;stroke:none"
         id="path36" /><g
         id="g38"><g
           id="g40"
           clip-path="url(#clipPath44)"><path
             d="m 824.758,2803.91 v 577.25 H 1814.33 V 2803.91 H 824.758"
             style="fill:#ffffff;fill-opacity:1;fill-rule:nonzero;stroke:none"
             id="path46" /></g></g><path
         d="m 3958.42,2968.84 h -659.71 v 247.39 h 659.71 z m 164.93,-82.47 v 412.33 c 0,45.52 -36.94,82.46 -82.47,82.46 h -824.64 c -45.52,0 -82.47,-36.94 -82.47,-82.46 v -412.33 c 0,-45.52 36.95,-82.46 82.47,-82.46 h 824.64 c 45.53,0 82.47,36.94 82.47,82.46 v 0"
         style="fill:#ffffff;fill-opacity:1;fill-rule:nonzero;stroke:none"
         id="path48" /><g
         id="g50"><g
           id="g52"
           clip-path="url(#clipPath56)"><path
             d="m 3133.77,2803.91 v 577.25 h 989.58 v -577.25 h -989.58"
             style="fill:#ffffff;fill-opacity:1;fill-rule:nonzero;stroke:none"
             id="path58" /></g></g><path
         d="m 2061.73,2638.98 h 824.65 v -164.93 h -824.65 v 164.93"
         style="fill:#ffffff;fill-opacity:1;fill-rule:nonzero;stroke:none"
         id="path60" /><g
         id="g62"><g
           id="g64"
           clip-path="url(#clipPath68)"><path
             d="m 2061.73,2474.05 v 164.93 h 824.65 v -164.93 h -824.65"
             style="fill:#ffffff;fill-opacity:1;fill-rule:nonzero;stroke:none"
             id="path70" /></g></g><path
         d="m 2061.73,2309.11 h 824.65 v -164.92 h -824.65 v 164.92"
         style="fill:#ffffff;fill-opacity:1;fill-rule:nonzero;stroke:none"
         id="path72" /><g
         id="g74"><g
           id="g76"
           clip-path="url(#clipPath80)"><path
             d="m 2061.73,2144.19 v 164.92 h 824.65 v -164.92 h -824.65"
             style="fill:#ffffff;fill-opacity:1;fill-rule:nonzero;stroke:none"
             id="path82" /></g></g><path
         d="m 2061.73,1979.26 h 824.65 v -164.93 h -824.65 v 164.93"
         style="fill:#ffffff;fill-opacity:1;fill-rule:nonzero;stroke:none"
         id="path84" /><g
         id="g86"><g
           id="g88"
           clip-path="url(#clipPath92)"><path
             d="m 2061.73,1814.33 v 164.93 h 824.65 v -164.93 h -824.65"
             style="fill:#ffffff;fill-opacity:1;fill-rule:nonzero;stroke:none"
             id="path94" /></g></g><path
         d="m 3216.24,2638.98 h 824.64 v -164.93 h -824.64 v 164.93"
         style="fill:#ffffff;fill-opacity:1;fill-rule:nonzero;stroke:none"
         id="path96" /><g
         id="g98"><g
           id="g100"
           clip-path="url(#clipPath104)"><path
             d="m 3216.24,2474.05 v 164.93 h 824.64 v -164.93 h -824.64"
             style="fill:#ffffff;fill-opacity:1;fill-rule:nonzero;stroke:none"
             id="path106" /></g></g><path
         d="m 3216.24,2309.11 h 824.64 v -164.92 h -824.64 v 164.92"
         style="fill:#ffffff;fill-opacity:1;fill-rule:nonzero;stroke:none"
         id="path108" /><g
         id="g110"><g
           id="g112"
           clip-path="url(#clipPath116)"><path
             d="m 3216.24,2144.19 v 164.92 h 824.64 v -164.92 h -824.64"
             style="fill:#ffffff;fill-opacity:1;fill-rule:nonzero;stroke:none"
             id="path118" /></g></g><path
         d="m 3216.24,1979.26 h 824.64 v -164.93 h -824.64 v 164.93"
         style="fill:#ffffff;fill-opacity:1;fill-rule:nonzero;stroke:none"
         id="path120" /><g
         id="g122"><g
           id="g124"
           clip-path="url(#clipPath128)"><path
             d="m 3216.24,1814.33 v 164.93 h 824.64 v -164.93 h -824.64"
             style="fill:#ffffff;fill-opacity:1;fill-rule:nonzero;stroke:none"
             id="path130" /></g></g><path
         d="M 907.219,2638.98 H 1731.87 V 2474.05 H 907.219 v 164.93"
         style="fill:#ffffff;fill-opacity:1;fill-rule:nonzero;stroke:none"
         id="path132" /><g
         id="g134"><g
           id="g136"
           clip-path="url(#clipPath140)"><path
             d="m 907.219,2474.05 v 164.93 H 1731.87 V 2474.05 H 907.219"
             style="fill:#ffffff;fill-opacity:1;fill-rule:nonzero;stroke:none"
             id="path142" /></g></g><path
         d="M 907.219,2309.11 H 1731.87 V 2144.19 H 907.219 v 164.92"
         style="fill:#ffffff;fill-opacity:1;fill-rule:nonzero;stroke:none"
         id="path144" /><g
         id="g146"><g
           id="g148"
           clip-path="url(#clipPath152)"><path
             d="m 907.219,2144.19 v 164.92 H 1731.87 V 2144.19 H 907.219"
             style="fill:#ffffff;fill-opacity:1;fill-rule:nonzero;stroke:none"
             id="path154" /></g></g><path
         d="M 907.219,1979.26 H 1731.87 V 1814.33 H 907.219 v 164.93"
         style="fill:#ffffff;fill-opacity:1;fill-rule:nonzero;stroke:none"
         id="path156" /><g
         id="g158"><g
           id="g160"
           clip-path="url(#clipPath164)"><path
             d="m 907.219,1814.33 v 164.93 H 1731.87 V 1814.33 H 907.219"
             style="fill:#ffffff;fill-opacity:1;fill-rule:nonzero;stroke:none"
             id="path166" /></g></g></g></g></svg>
