<?xml version="1.0" encoding="UTF-8" standalone="no"?>
<svg
   xmlns:dc="http://purl.org/dc/elements/1.1/"
   xmlns:cc="http://creativecommons.org/ns#"
   xmlns:rdf="http://www.w3.org/1999/02/22-rdf-syntax-ns#"
   xmlns:svg="http://www.w3.org/2000/svg"
   xmlns="http://www.w3.org/2000/svg"
   xmlns:sodipodi="http://sodipodi.sourceforge.net/DTD/sodipodi-0.dtd"
   xmlns:inkscape="http://www.inkscape.org/namespaces/inkscape"
   version="1.1"
   id="svg2"
   xml:space="preserve"
   width="664.61334"
   height="664.61334"
   viewBox="0 0 664.61334 664.61334"
   sodipodi:docname="web-developement.eps"><metadata
     id="metadata8"><rdf:RDF><cc:Work
         rdf:about=""><dc:format>image/svg+xml</dc:format><dc:type
           rdf:resource="http://purl.org/dc/dcmitype/StillImage" /></cc:Work></rdf:RDF></metadata><defs
     id="defs6" /><sodipodi:namedview
     pagecolor="#ffffff"
     bordercolor="#666666"
     borderopacity="1"
     objecttolerance="10"
     gridtolerance="10"
     guidetolerance="10"
     inkscape:pageopacity="0"
     inkscape:pageshadow="2"
     inkscape:window-width="640"
     inkscape:window-height="480"
     id="namedview4" /><g
     id="g10"
     inkscape:groupmode="layer"
     inkscape:label="ink_ext_XXXXXX"
     transform="matrix(1.3333333,0,0,-1.3333333,0,664.61333)"><g
       id="g12"
       transform="scale(0.1)"><path
         d="m 4019.85,803.98 h -160.79 v -160.8 h 160.79 z m 0,321.58 H 3859.06 V 964.77 h 160.79 z m 0,-643.169 H 3859.06 V 321.59 h 160.79 z M 2090.32,321.59 h 160.8 v 160.801 h -160.8 z m 160.8,1768.73 h -160.8 v -482.37 h -160.79 v -160.8 h 160.79 V 964.77 h 160.8 v 482.38 h 160.79 v 160.8 H 2251.12 Z M 1447.15,964.77 h 160.79 v 803.97 h 160.79 v 160.79 h -160.79 v 160.79 h -160.79 v -160.79 h -160.8 v -160.79 h 160.8 z m -643.181,0 h 160.797 v 160.79 h 160.794 v 160.8 H 964.766 v 803.96 H 803.969 V 1286.36 H 643.176 v -160.8 H 803.969 Z M 643.176,643.18 H 2251.12 v 160.8 H 643.176 Z m 0,-321.59 H 1929.53 V 482.391 H 643.176 Z M 3859.06,3859.06 H 2733.5 v -482.38 h 1125.56 z m 160.79,-643.17 H 2572.71 v 803.97 H 4019.85 Z M 780.414,2870.74 515.668,3135.49 780.414,3400.24 666.73,3513.92 288.305,3135.49 666.73,2757.06 Z m 803.966,-113.68 378.43,378.43 -378.43,378.43 -113.68,-113.68 264.75,-264.75 -264.75,-264.75 z m -221.81,835.42 -152.44,50.88 -321.583,-964.77 152.433,-50.88 z M 160.793,2492.31 c 0,-44.28 36.016,-80.39 80.395,-80.39 H 2009.92 c 44.38,0 80.4,36.11 80.4,80.39 v 1286.35 c 0,44.29 -36.02,80.4 -80.4,80.4 H 241.188 c -44.379,0 -80.395,-36.11 -80.395,-80.4 z m 321.59,1527.55 H 2009.92 c 133.01,0 241.2,-108.19 241.2,-241.2 V 2492.31 c 0,-133 -108.19,-241.19 -241.2,-241.19 H 482.383 V 241.191 c 0,-44.371 36.019,-80.39 80.398,-80.39 H 4100.25 c 44.38,0 80.4,36.019 80.4,80.39 V 1494.27 L 3093.03,406.652 l -695.41,-99.343 99.35,695.411 1248.4,1248.4 H 2572.71 v 803.97 H 4019.85 V 2525.6 l 160.8,160.79 V 4180.65 H 482.383 Z m 0,723.57 V 4341.45 H 4180.65 v 401.98 c 0,44.28 -36.02,80.4 -80.4,80.4 H 562.781 c -44.379,0 -80.398,-36.12 -80.398,-80.4 z m 3896.427,-2086.29 -245.28,-245.22 368.7,-368.7 245.28,245.27 c 48.52,48.47 76.31,115.63 76.31,184.3 0,143.74 -116.88,260.71 -260.66,260.71 -69.66,0 -135.15,-27.11 -184.35,-76.36 z m 9.74,-727.61 -127.51,127.51 L 2927.58,723.582 3055.09,596.07 Z M 2587.09,496.781 2884.55,539.23 2629.54,794.242 Z m 99.3,467.989 127.51,-127.508 1333.46,1333.468 -127.51,127.51 z M 3859.06,2894.3 H 2733.5 V 2411.92 H 3859.06 Z M -0.00390625,2492.31 v 1286.35 c 0,133.01 108.19190625,241.2 241.19190625,241.2 h 80.402 v 723.57 c 0,133 108.183,241.19 241.191,241.19 H 4100.25 c 133,0 241.19,-108.19 241.19,-241.19 v -1913.3 c 66,41.19 141.9,64.17 221.72,64.17 232.35,0 421.45,-189.11 421.45,-421.51 0,-112.58 -43.81,-218.37 -123.42,-298.03 l -519.75,-519.7 V 241.191 C 4341.44,108.191 4233.25,0 4100.25,0 H 562.781 C 429.773,0 321.59,108.191 321.59,241.191 V 2251.12 h -80.402 c -133,0 -241.19190625,108.19 -241.19190625,241.19 z M 723.57,4663.03 H 562.781 V 4502.24 H 723.57 Z m 321.59,0 H 884.367 v -160.79 h 160.793 z m 321.59,-160.79 h -160.8 v 160.79 h 160.8 v -160.79"
         style="fill:#ffffff;fill-opacity:1;fill-rule:nonzero;stroke:none"
         id="path14" /></g></g></svg>
